SourceEmoji-BnW.ufo
<glyph name="numbersign" format="1">
	<unicode hex="0023"/>
	<advance width="554"/>
	<outline>
		<contour>
			<point x="89" y="60" type="line" smooth="yes"/>
			<point x="85" y="27"/>
			<point x="109" y="0"/>
			<point x="142" y="0" type="curve"/>
			<point x="134" y="0" type="line"/>
			<point x="171" y="0"/>
			<point x="196" y="22"/>
			<point x="201" y="60" type="curve" smooth="yes"/>
			<point x="215" y="172" type="line"/>
			<point x="294" y="172" type="line"/>
			<point x="280" y="60" type="line" smooth="yes"/>
			<point x="276" y="27"/>
			<point x="300" y="0"/>
			<point x="333" y="0" type="curve"/>
			<point x="325" y="0" type="line"/>
			<point x="362" y="0"/>
			<point x="387" y="22"/>
			<point x="392" y="60" type="curve" smooth="yes"/>
			<point x="406" y="172" type="line"/>
			<point x="444" y="172" type="line" smooth="yes"/>
			<point x="479" y="172"/>
			<point x="504" y="197"/>
			<point x="504" y="232" type="curve" smooth="yes"/>
			<point x="504" y="236" type="line" smooth="yes"/>
			<point x="504" y="271"/>
			<point x="479" y="296"/>
			<point x="444" y="296" type="curve" smooth="yes"/>
			<point x="420" y="296" type="line"/>
			<point x="430" y="376" type="line"/>
			<point x="464" y="376" type="line" smooth="yes"/>
			<point x="499" y="376"/>
			<point x="524" y="401"/>
			<point x="524" y="436" type="curve" smooth="yes"/>
			<point x="524" y="440" type="line" smooth="yes"/>
			<point x="524" y="475"/>
			<point x="499" y="500"/>
			<point x="464" y="500" type="curve" smooth="yes"/>
			<point x="446" y="500" type="line"/>
			<point x="456" y="590" type="line" smooth="yes"/>
			<point x="460" y="623"/>
			<point x="436" y="650"/>
			<point x="403" y="650" type="curve"/>
			<point x="413" y="650" type="line"/>
			<point x="375" y="650"/>
			<point x="350" y="628"/>
			<point x="345" y="590" type="curve" smooth="yes"/>
			<point x="334" y="500" type="line"/>
			<point x="255" y="500" type="line"/>
			<point x="265" y="590" type="line" smooth="yes"/>
			<point x="269" y="623"/>
			<point x="245" y="650"/>
			<point x="212" y="650" type="curve"/>
			<point x="222" y="650" type="line"/>
			<point x="184" y="650"/>
			<point x="159" y="628"/>
			<point x="154" y="590" type="curve" smooth="yes"/>
			<point x="143" y="500" type="line"/>
			<point x="114" y="500" type="line" smooth="yes"/>
			<point x="79" y="500"/>
			<point x="54" y="475"/>
			<point x="54" y="440" type="curve" smooth="yes"/>
			<point x="54" y="436" type="line" smooth="yes"/>
			<point x="54" y="401"/>
			<point x="79" y="376"/>
			<point x="114" y="376" type="curve" smooth="yes"/>
			<point x="127" y="376" type="line"/>
			<point x="117" y="296" type="line"/>
			<point x="94" y="296" type="line" smooth="yes"/>
			<point x="59" y="296"/>
			<point x="34" y="271"/>
			<point x="34" y="236" type="curve" smooth="yes"/>
			<point x="34" y="232" type="line" smooth="yes"/>
			<point x="34" y="197"/>
			<point x="59" y="172"/>
			<point x="94" y="172" type="curve" smooth="yes"/>
			<point x="103" y="172" type="line"/>
		</contour>
		<contour>
			<point x="229" y="296" type="line"/>
			<point x="239" y="376" type="line"/>
			<point x="318" y="376" type="line"/>
			<point x="308" y="296" type="line"/>
		</contour>
	</outline>
</glyph>
<glyph name="percent" format="1">
	<unicode hex="0025"/>
	<advance width="884"/>
	<outline>
		<contour>
			<point x="192" y="246" type="curve" smooth="yes"/>
			<point x="290" y="246"/>
			<point x="366" y="325"/>
			<point x="366" y="454" type="curve" smooth="yes"/>
			<point x="366" y="584"/>
			<point x="290" y="660"/>
			<point x="192" y="660" type="curve" smooth="yes"/>
			<point x="94" y="660"/>
			<point x="18" y="584"/>
			<point x="18" y="454" type="curve" smooth="yes"/>
			<point x="18" y="325"/>
			<point x="94" y="246"/>
		</contour>
		<contour>
			<point x="192" y="354" type="curve" smooth="yes"/>
			<point x="174" y="354"/>
			<point x="154" y="371"/>
			<point x="154" y="454" type="curve" smooth="yes"/>
			<point x="154" y="537"/>
			<point x="174" y="552"/>
			<point x="192" y="552" type="curve" smooth="yes"/>
			<point x="210" y="552"/>
			<point x="230" y="537"/>
			<point x="230" y="454" type="curve" smooth="yes"/>
			<point x="230" y="371"/>
			<point x="210" y="354"/>
		</contour>
		<contour>
			<point x="692" y="-12" type="curve" smooth="yes"/>
			<point x="790" y="-12"/>
			<point x="866" y="67"/>
			<point x="866" y="196" type="curve" smooth="yes"/>
			<point x="866" y="326"/>
			<point x="790" y="402"/>
			<point x="692" y="402" type="curve" smooth="yes"/>
			<point x="594" y="402"/>
			<point x="518" y="326"/>
			<point x="518" y="196" type="curve" smooth="yes"/>
			<point x="518" y="67"/>
			<point x="594" y="-12"/>
		</contour>
		<contour>
			<point x="692" y="96" type="curve" smooth="yes"/>
			<point x="674" y="96"/>
			<point x="654" y="113"/>
			<point x="654" y="196" type="curve" smooth="yes"/>
			<point x="654" y="279"/>
			<point x="674" y="294"/>
			<point x="692" y="294" type="curve" smooth="yes"/>
			<point x="710" y="294"/>
			<point x="730" y="279"/>
			<point x="730" y="196" type="curve" smooth="yes"/>
			<point x="730" y="113"/>
			<point x="710" y="96"/>
		</contour>
		<contour>
			<point x="282" y="-16" type="curve" smooth="yes"/>
			<point x="313" y="-16"/>
			<point x="330" y="-4"/>
			<point x="346" y="28" type="curve" smooth="yes"/>
			<point x="638" y="592" type="line" smooth="yes"/>
			<point x="644" y="604"/>
			<point x="650" y="616"/>
			<point x="650" y="628" type="curve" smooth="yes"/>
			<point x="650" y="648"/>
			<point x="633" y="664"/>
			<point x="606" y="664" type="curve" smooth="yes"/>
			<point x="575" y="664"/>
			<point x="558" y="652"/>
			<point x="542" y="620" type="curve" smooth="yes"/>
			<point x="250" y="56" type="line" smooth="yes"/>
			<point x="244" y="44"/>
			<point x="238" y="32"/>
			<point x="238" y="20" type="curve" smooth="yes"/>
			<point x="238" y="0"/>
			<point x="255" y="-16"/>
		</contour>
	</outline>
</glyph>
<glyph name="asterisk" format="1">
	<unicode hex="002A"/>
	<advance width="1000"/>
	<outline>
		<contour>
			<point x="484" y="111" type="curve" smooth="yes"/>
			<point x="518" y="111" type="line" smooth="yes"/>
			<point x="530" y="111"/>
			<point x="539" y="119"/>
			<point x="539" y="131" type="curve" smooth="yes"/>
			<point x="543" y="308" type="line"/>
			<point x="698" y="224" type="line" smooth="yes"/>
			<point x="709" y="218"/>
			<point x="720" y="221"/>
			<point x="726" y="231" type="curve" smooth="yes"/>
			<point x="743" y="261" type="line" smooth="yes"/>
			<point x="749" y="271"/>
			<point x="746" y="282"/>
			<point x="736" y="288" type="curve" smooth="yes"/>
			<point x="586" y="380" type="line"/>
			<point x="736" y="473" type="line" smooth="yes"/>
			<point x="746" y="479"/>
			<point x="749" y="490"/>
			<point x="743" y="500" type="curve" smooth="yes"/>
			<point x="726" y="530" type="line" smooth="yes"/>
			<point x="720" y="540"/>
			<point x="709" y="543"/>
			<point x="698" y="537" type="curve" smooth="yes"/>
			<point x="543" y="453" type="line"/>
			<point x="539" y="630" type="line" smooth="yes"/>
			<point x="539" y="642"/>
			<point x="530" y="650"/>
			<point x="518" y="650" type="curve" smooth="yes"/>
			<point x="484" y="650" type="line" smooth="yes"/>
			<point x="472" y="650"/>
			<point x="463" y="642"/>
			<point x="463" y="630" type="curve" smooth="yes"/>
			<point x="459" y="453" type="line"/>
			<point x="305" y="537" type="line" smooth="yes"/>
			<point x="294" y="543"/>
			<point x="283" y="540"/>
			<point x="277" y="530" type="curve" smooth="yes"/>
			<point x="259" y="500" type="line" smooth="yes"/>
			<point x="253" y="490"/>
			<point x="256" y="479"/>
			<point x="266" y="473" type="curve" smooth="yes"/>
			<point x="417" y="380" type="line"/>
			<point x="266" y="288" type="line" smooth="yes"/>
			<point x="256" y="282"/>
			<point x="253" y="271"/>
			<point x="259" y="261" type="curve" smooth="yes"/>
			<point x="277" y="231" type="line" smooth="yes"/>
			<point x="283" y="221"/>
			<point x="294" y="218"/>
			<point x="305" y="224" type="curve" smooth="yes"/>
			<point x="459" y="308" type="line"/>
			<point x="463" y="131" type="line" smooth="yes"/>
			<point x="463" y="119"/>
			<point x="472" y="111"/>
		</contour>
	</outline>
</glyph>
<glyph name="comma" format="1">
	<unicode hex="002C"/>
	<advance width="342"/>
	<outline>
		<contour>
			<point x="120" y="-200" type="curve" smooth="yes"/>
			<point x="200" y="-200"/>
			<point x="304" y="-100"/>
			<point x="304" y="48" type="curve" smooth="yes"/>
			<point x="304" y="158"/>
			<point x="260" y="222"/>
			<point x="176" y="222" type="curve" smooth="yes"/>
			<point x="108" y="222"/>
			<point x="58" y="180"/>
			<point x="58" y="114" type="curve" smooth="yes"/>
			<point x="58" y="46"/>
			<point x="112" y="8"/>
			<point x="170" y="8" type="curve" smooth="yes"/>
			<point x="194" y="8"/>
			<point x="215" y="18"/>
			<point x="234" y="30" type="curve"/>
			<point x="176" y="130" type="line"/>
			<point x="176" y="12" type="line" smooth="yes"/>
			<point x="176" y="-26"/>
			<point x="159" y="-44"/>
			<point x="142" y="-60" type="curve" smooth="yes"/>
			<point x="116" y="-84"/>
			<point x="56" y="-86"/>
			<point x="56" y="-142" type="curve" smooth="yes"/>
			<point x="56" y="-180"/>
			<point x="82" y="-200"/>
		</contour>
	</outline>
</glyph>
<glyph name="hyphen" format="1">
	<unicode hex="002D"/>
	<advance width="350"/>
	<outline>
		<contour>
			<point x="116" y="184" type="curve"/>
			<point x="234" y="184" type="line"/>
			<point x="284" y="184"/>
			<point x="314" y="202"/>
			<point x="314" y="254" type="curve"/>
			<point x="314" y="258" type="line"/>
			<point x="314" y="310"/>
			<point x="284" y="328"/>
			<point x="234" y="328" type="curve"/>
			<point x="116" y="328" type="line"/>
			<point x="66" y="328"/>
			<point x="36" y="310"/>
			<point x="36" y="258" type="curve"/>
			<point x="36" y="254" type="line"/>
			<point x="36" y="202"/>
			<point x="66" y="184"/>
		</contour>
	</outline>
</glyph>
<glyph name="period" format="1">
	<unicode hex="002E"/>
	<advance width="342"/>
	<outline>
		<contour>
			<point x="171" y="-12" type="curve" smooth="yes"/>
			<point x="237" y="-12"/>
			<point x="284" y="40"/>
			<point x="284" y="105" type="curve" smooth="yes"/>
			<point x="284" y="170"/>
			<point x="237" y="222"/>
			<point x="171" y="222" type="curve" smooth="yes"/>
			<point x="105" y="222"/>
			<point x="58" y="170"/>
			<point x="58" y="105" type="curve" smooth="yes"/>
			<point x="58" y="40"/>
			<point x="105" y="-12"/>
		</contour>
	</outline>
</glyph>
<glyph name="zero" format="1">
	<unicode hex="0030"/>
	<advance width="552"/>
	<outline>
		<contour>
			<point x="276" y="-12" type="curve" smooth="yes"/>
			<point x="420" y="-12"/>
			<point x="522" y="102"/>
			<point x="522" y="320" type="curve" smooth="yes"/>
			<point x="522" y="536"/>
			<point x="420" y="645"/>
			<point x="276" y="645" type="curve" smooth="yes"/>
			<point x="132" y="645"/>
			<point x="30" y="538"/>
			<point x="30" y="320" type="curve" smooth="yes"/>
			<point x="30" y="102"/>
			<point x="132" y="-12"/>
		</contour>
		<contour>
			<point x="276" y="141" type="curve" smooth="yes"/>
			<point x="247" y="141"/>
			<point x="218" y="158"/>
			<point x="218" y="320" type="curve" smooth="yes"/>
			<point x="218" y="482"/>
			<point x="247" y="492"/>
			<point x="276" y="492" type="curve" smooth="yes"/>
			<point x="305" y="492"/>
			<point x="334" y="482"/>
			<point x="334" y="320" type="curve" smooth="yes"/>
			<point x="334" y="158"/>
			<point x="305" y="141"/>
		</contour>
	</outline>
</glyph>
<glyph name="one" format="1">
	<unicode hex="0031"/>
	<advance width="552"/>
	<outline>
		<contour>
			<point x="508" y="80" type="curve" smooth="yes"/>
			<point x="508" y="127"/>
			<point x="475" y="160"/>
			<point x="428" y="160" type="curve" smooth="yes"/>
			<point x="395" y="160" type="line"/>
			<point x="395" y="554" type="line" smooth="yes"/>
			<point x="395" y="610"/>
			<point x="354" y="638"/>
			<point x="319" y="638" type="curve" smooth="yes"/>
			<point x="256" y="638"/>
			<point x="238" y="618"/>
			<point x="192" y="598" type="curve" smooth="yes"/>
			<point x="138" y="574"/>
			<point x="70" y="574"/>
			<point x="70" y="506" type="curve" smooth="yes"/>
			<point x="70" y="468"/>
			<point x="106" y="442"/>
			<point x="148" y="442" type="curve" smooth="yes"/>
			<point x="195" y="442" type="line"/>
			<point x="195" y="160" type="line"/>
			<point x="138" y="160" type="line" smooth="yes"/>
			<point x="91" y="160"/>
			<point x="58" y="127"/>
			<point x="58" y="80" type="curve" smooth="yes"/>
			<point x="58" y="33"/>
			<point x="91" y="0"/>
			<point x="138" y="0" type="curve" smooth="yes"/>
			<point x="428" y="0" type="line" smooth="yes"/>
			<point x="475" y="0"/>
			<point x="508" y="33"/>
		</contour>
	</outline>
</glyph>
<glyph name="two" format="1">
	<unicode hex="0032"/>
	<advance width="552"/>
	<outline>
		<contour>
			<point x="114" y="0" type="curve" smooth="yes"/>
			<point x="434" y="0" type="line" smooth="yes"/>
			<point x="481" y="0"/>
			<point x="514" y="32"/>
			<point x="514" y="80" type="curve" smooth="yes"/>
			<point x="514" y="88" type="line" smooth="yes"/>
			<point x="514" y="136"/>
			<point x="481" y="168"/>
			<point x="434" y="168" type="curve" smooth="yes"/>
			<point x="405" y="168"/>
			<point x="355" y="162"/>
			<point x="323" y="158" type="curve"/>
			<point x="389" y="224"/>
			<point x="480" y="334"/>
			<point x="480" y="430" type="curve" smooth="yes"/>
			<point x="480" y="560"/>
			<point x="385" y="646"/>
			<point x="254" y="646" type="curve" smooth="yes"/>
			<point x="149" y="646"/>
			<point x="86" y="602"/>
			<point x="68" y="583" type="curve" smooth="yes"/>
			<point x="52" y="566"/>
			<point x="44" y="550"/>
			<point x="44" y="528" type="curve" smooth="yes"/>
			<point x="44" y="488"/>
			<point x="80" y="452"/>
			<point x="122" y="452" type="curve" smooth="yes"/>
			<point x="158" y="452"/>
			<point x="178" y="490"/>
			<point x="226" y="490" type="curve" smooth="yes"/>
			<point x="260" y="490"/>
			<point x="290" y="470"/>
			<point x="290" y="418" type="curve" smooth="yes"/>
			<point x="290" y="338"/>
			<point x="173" y="236"/>
			<point x="96" y="168" type="curve" smooth="yes"/>
			<point x="56" y="134"/>
			<point x="34" y="108"/>
			<point x="34" y="64" type="curve" smooth="yes"/>
			<point x="34" y="24"/>
			<point x="68" y="0"/>
		</contour>
	</outline>
</glyph>
<glyph name="three" format="1">
	<unicode hex="0033"/>
	<advance width="552"/>
	<outline>
		<contour>
			<point x="249" y="-12" type="curve" smooth="yes"/>
			<point x="386" y="-12"/>
			<point x="506" y="53"/>
			<point x="506" y="175" type="curve" smooth="yes"/>
			<point x="506" y="253"/>
			<point x="460" y="301"/>
			<point x="390" y="324" type="curve"/>
			<point x="390" y="328" type="line"/>
			<point x="457" y="359"/>
			<point x="487" y="404"/>
			<point x="487" y="460" type="curve" smooth="yes"/>
			<point x="487" y="579"/>
			<point x="394" y="645"/>
			<point x="245" y="645" type="curve" smooth="yes"/>
			<point x="166" y="645"/>
			<point x="98" y="616"/>
			<point x="94" y="613" type="curve" smooth="yes"/>
			<point x="57" y="584"/>
			<point x="53" y="537"/>
			<point x="83" y="500" type="curve"/>
			<point x="80" y="504" type="line"/>
			<point x="110" y="467"/>
			<point x="156" y="462"/>
			<point x="194" y="491" type="curve"/>
			<point x="172" y="474"/>
			<point x="197" y="490"/>
			<point x="235" y="490" type="curve" smooth="yes"/>
			<point x="270" y="490"/>
			<point x="287" y="476"/>
			<point x="287" y="445" type="curve" smooth="yes"/>
			<point x="287" y="408"/>
			<point x="260" y="388"/>
			<point x="243" y="388" type="curve" smooth="yes"/>
			<point x="196" y="388"/>
			<point x="163" y="355"/>
			<point x="163" y="308" type="curve"/>
			<point x="163" y="330" type="line"/>
			<point x="163" y="283"/>
			<point x="196" y="250"/>
			<point x="243" y="250" type="curve" smooth="yes"/>
			<point x="290" y="250"/>
			<point x="306" y="229"/>
			<point x="306" y="190" type="curve" smooth="yes"/>
			<point x="306" y="160"/>
			<point x="276" y="148"/>
			<point x="227" y="148" type="curve" smooth="yes"/>
			<point x="192" y="148"/>
			<point x="147" y="168"/>
			<point x="168" y="150" type="curve"/>
			<point x="134" y="179"/>
			<point x="87" y="174"/>
			<point x="61" y="138" type="curve"/>
			<point x="65" y="143" type="line"/>
			<point x="34" y="100"/>
			<point x="36" y="57"/>
			<point x="70" y="17" type="curve"/>
			<point x="116" y="0"/>
			<point x="187" y="-12"/>
		</contour>
	</outline>
</glyph>
<glyph name="four" format="1">
	<unicode hex="0034"/>
	<advance width="552"/>
	<outline>
		<contour>
			<point x="286" y="80" type="line" smooth="yes"/>
			<point x="286" y="33"/>
			<point x="319" y="0"/>
			<point x="366" y="0" type="curve" smooth="yes"/>
			<point x="392" y="0" type="line" smooth="yes"/>
			<point x="439" y="0"/>
			<point x="472" y="33"/>
			<point x="472" y="80" type="curve" smooth="yes"/>
			<point x="472" y="553" type="line" smooth="yes"/>
			<point x="472" y="600"/>
			<point x="439" y="633"/>
			<point x="392" y="633" type="curve" smooth="yes"/>
			<point x="299" y="633" type="line" smooth="yes"/>
			<point x="242" y="633"/>
			<point x="208" y="613"/>
			<point x="181" y="563" type="curve" smooth="yes"/>
			<point x="60" y="342" type="line" smooth="yes"/>
			<point x="29" y="285"/>
			<point x="21" y="257"/>
			<point x="21" y="192" type="curve"/>
			<point x="21" y="211" type="line"/>
			<point x="21" y="164"/>
			<point x="54" y="131"/>
			<point x="101" y="131" type="curve" smooth="yes"/>
			<point x="454" y="131" type="line" smooth="yes"/>
			<point x="501" y="131"/>
			<point x="534" y="164"/>
			<point x="534" y="211" type="curve"/>
			<point x="534" y="202" type="line"/>
			<point x="534" y="249"/>
			<point x="501" y="282"/>
			<point x="454" y="282" type="curve" smooth="yes"/>
			<point x="207" y="282" type="line"/>
			<point x="236" y="355" type="line" smooth="yes"/>
			<point x="252" y="396"/>
			<point x="272" y="436"/>
			<point x="288" y="476" type="curve"/>
			<point x="292" y="476" type="line"/>
			<point x="290" y="430"/>
			<point x="286" y="364"/>
			<point x="286" y="318" type="curve" smooth="yes"/>
		</contour>
	</outline>
</glyph>
<glyph name="five" format="1">
	<unicode hex="0035"/>
	<advance width="552"/>
	<outline>
		<contour>
			<point x="258" y="-12" type="curve" smooth="yes"/>
			<point x="392" y="-12"/>
			<point x="506" y="71"/>
			<point x="506" y="214" type="curve" smooth="yes"/>
			<point x="506" y="347"/>
			<point x="410" y="409"/>
			<point x="300" y="409" type="curve" smooth="yes"/>
			<point x="284" y="409"/>
			<point x="271" y="410"/>
			<point x="252" y="404" type="curve"/>
			<point x="257" y="466" type="line"/>
			<point x="399" y="466" type="line" smooth="yes"/>
			<point x="446" y="466"/>
			<point x="479" y="499"/>
			<point x="479" y="546" type="curve" smooth="yes"/>
			<point x="479" y="553" type="line" smooth="yes"/>
			<point x="479" y="600"/>
			<point x="446" y="633"/>
			<point x="399" y="633" type="curve" smooth="yes"/>
			<point x="165" y="633" type="line" smooth="yes"/>
			<point x="117" y="633"/>
			<point x="83" y="601"/>
			<point x="81" y="553" type="curve" smooth="yes"/>
			<point x="73" y="381" type="line" smooth="yes"/>
			<point x="70" y="323"/>
			<point x="88" y="289"/>
			<point x="137" y="257" type="curve"/>
			<point x="87" y="289" type="line"/>
			<point x="134" y="259"/>
			<point x="174" y="259"/>
			<point x="222" y="289" type="curve"/>
			<point x="192" y="270"/>
			<point x="204" y="274"/>
			<point x="235" y="274" type="curve" smooth="yes"/>
			<point x="275" y="274"/>
			<point x="306" y="253"/>
			<point x="306" y="210" type="curve" smooth="yes"/>
			<point x="306" y="164"/>
			<point x="280" y="148"/>
			<point x="226" y="148" type="curve" smooth="yes"/>
			<point x="189" y="148"/>
			<point x="146" y="171"/>
			<point x="168" y="152" type="curve"/>
			<point x="135" y="181"/>
			<point x="88" y="175"/>
			<point x="62" y="138" type="curve"/>
			<point x="67" y="145" type="line"/>
			<point x="37" y="103"/>
			<point x="41" y="59"/>
			<point x="78" y="22" type="curve"/>
			<point x="123" y="2"/>
			<point x="195" y="-12"/>
		</contour>
	</outline>
</glyph>
<glyph name="six" format="1">
	<unicode hex="0036"/>
	<advance width="552"/>
	<outline>
		<contour>
			<point x="292" y="-12" type="curve" smooth="yes"/>
			<point x="417" y="-12"/>
			<point x="522" y="67"/>
			<point x="522" y="208" type="curve" smooth="yes"/>
			<point x="522" y="345"/>
			<point x="434" y="403"/>
			<point x="326" y="403" type="curve" smooth="yes"/>
			<point x="295" y="403"/>
			<point x="236" y="380"/>
			<point x="209" y="336" type="curve"/>
			<point x="219" y="214" type="line"/>
			<point x="235" y="252"/>
			<point x="260" y="265"/>
			<point x="286" y="265" type="curve" smooth="yes"/>
			<point x="308" y="265"/>
			<point x="341" y="262"/>
			<point x="341" y="208" type="curve" smooth="yes"/>
			<point x="341" y="146"/>
			<point x="314" y="136"/>
			<point x="286" y="136" type="curve" smooth="yes"/>
			<point x="264" y="136"/>
			<point x="216" y="151"/>
			<point x="216" y="310" type="curve" smooth="yes"/>
			<point x="216" y="442"/>
			<point x="258" y="485"/>
			<point x="318" y="485" type="curve" smooth="yes"/>
			<point x="352" y="485"/>
			<point x="393" y="462"/>
			<point x="356" y="501" type="curve"/>
			<point x="387" y="468"/>
			<point x="434" y="469"/>
			<point x="464" y="503" type="curve" smooth="yes"/>
			<point x="494" y="537"/>
			<point x="492" y="583"/>
			<point x="458" y="617" type="curve"/>
			<point x="471" y="604"/>
			<point x="400" y="645"/>
			<point x="303" y="645" type="curve" smooth="yes"/>
			<point x="164" y="645"/>
			<point x="35" y="531"/>
			<point x="35" y="310" type="curve" smooth="yes"/>
			<point x="35" y="72"/>
			<point x="171" y="-12"/>
		</contour>
	</outline>
</glyph>
<glyph name="seven" format="1">
	<unicode hex="0037"/>
	<advance width="552"/>
	<outline>
		<contour>
			<point x="224" y="-4" type="curve" smooth="yes"/>
			<point x="264" y="-4" type="line" smooth="yes"/>
			<point x="312" y="-4"/>
			<point x="348" y="28"/>
			<point x="348" y="76" type="curve" smooth="yes"/>
			<point x="348" y="183"/>
			<point x="383" y="361"/>
			<point x="459" y="449" type="curve" smooth="yes"/>
			<point x="501" y="496"/>
			<point x="512" y="516"/>
			<point x="512" y="556" type="curve" smooth="yes"/>
			<point x="512" y="602"/>
			<point x="479" y="634"/>
			<point x="432" y="634" type="curve" smooth="yes"/>
			<point x="120" y="634" type="line" smooth="yes"/>
			<point x="72" y="634"/>
			<point x="40" y="602"/>
			<point x="40" y="554" type="curve" smooth="yes"/>
			<point x="40" y="546" type="line" smooth="yes"/>
			<point x="40" y="498"/>
			<point x="72" y="466"/>
			<point x="120" y="466" type="curve" smooth="yes"/>
			<point x="332" y="466" type="line"/>
			<point x="320" y="490" type="line"/>
			<point x="184" y="308"/>
			<point x="148" y="154"/>
			<point x="148" y="76" type="curve" smooth="yes"/>
			<point x="148" y="30"/>
			<point x="177" y="-4"/>
		</contour>
	</outline>
</glyph>
<glyph name="eight" format="1">
	<unicode hex="0038"/>
	<advance width="552"/>
	<outline>
		<contour>
			<point x="274" y="-12" type="curve" smooth="yes"/>
			<point x="418" y="-12"/>
			<point x="514" y="64"/>
			<point x="514" y="168" type="curve" smooth="yes"/>
			<point x="514" y="252"/>
			<point x="469" y="304"/>
			<point x="406" y="336" type="curve"/>
			<point x="406" y="340" type="line"/>
			<point x="452" y="369"/>
			<point x="484" y="412"/>
			<point x="484" y="468" type="curve" smooth="yes"/>
			<point x="484" y="578"/>
			<point x="402" y="644"/>
			<point x="281" y="644" type="curve" smooth="yes"/>
			<point x="150" y="644"/>
			<point x="59" y="576"/>
			<point x="59" y="460" type="curve" smooth="yes"/>
			<point x="59" y="394"/>
			<point x="90" y="348"/>
			<point x="141" y="309" type="curve"/>
			<point x="141" y="305" type="line"/>
			<point x="81" y="273"/>
			<point x="42" y="233"/>
			<point x="42" y="162" type="curve" smooth="yes"/>
			<point x="42" y="57"/>
			<point x="142" y="-12"/>
		</contour>
		<contour>
			<point x="310" y="388" type="curve"/>
			<point x="254" y="410"/>
			<point x="232" y="428"/>
			<point x="232" y="460" type="curve" smooth="yes"/>
			<point x="232" y="495"/>
			<point x="254" y="508"/>
			<point x="276" y="508" type="curve" smooth="yes"/>
			<point x="306" y="508"/>
			<point x="325" y="490"/>
			<point x="325" y="452" type="curve" smooth="yes"/>
			<point x="325" y="430"/>
			<point x="320" y="410"/>
		</contour>
		<contour>
			<point x="278" y="124" type="curve" smooth="yes"/>
			<point x="245" y="124"/>
			<point x="212" y="142"/>
			<point x="212" y="186" type="curve" smooth="yes"/>
			<point x="212" y="209"/>
			<point x="219" y="236"/>
			<point x="228" y="255" type="curve"/>
			<point x="297" y="224"/>
			<point x="330" y="210"/>
			<point x="330" y="176" type="curve" smooth="yes"/>
			<point x="330" y="133"/>
			<point x="305" y="124"/>
		</contour>
	</outline>
</glyph>
<glyph name="nine" format="1">
	<unicode hex="0039"/>
	<advance width="552"/>
	<outline>
		<contour>
			<point x="248" y="-12" type="curve" smooth="yes"/>
			<point x="387" y="-12"/>
			<point x="516" y="102"/>
			<point x="516" y="323" type="curve" smooth="yes"/>
			<point x="516" y="561"/>
			<point x="380" y="645"/>
			<point x="260" y="645" type="curve" smooth="yes"/>
			<point x="134" y="645"/>
			<point x="30" y="566"/>
			<point x="30" y="425" type="curve" smooth="yes"/>
			<point x="30" y="288"/>
			<point x="118" y="230"/>
			<point x="225" y="230" type="curve" smooth="yes"/>
			<point x="256" y="230"/>
			<point x="315" y="253"/>
			<point x="342" y="297" type="curve"/>
			<point x="332" y="418" type="line"/>
			<point x="316" y="381"/>
			<point x="292" y="368"/>
			<point x="265" y="368" type="curve" smooth="yes"/>
			<point x="243" y="368"/>
			<point x="210" y="371"/>
			<point x="210" y="425" type="curve" smooth="yes"/>
			<point x="210" y="487"/>
			<point x="237" y="497"/>
			<point x="265" y="497" type="curve" smooth="yes"/>
			<point x="287" y="497"/>
			<point x="336" y="482"/>
			<point x="336" y="323" type="curve" smooth="yes"/>
			<point x="336" y="191"/>
			<point x="294" y="148"/>
			<point x="234" y="148" type="curve" smooth="yes"/>
			<point x="199" y="148"/>
			<point x="159" y="171"/>
			<point x="197" y="133" type="curve"/>
			<point x="164" y="166"/>
			<point x="117" y="164"/>
			<point x="87" y="130" type="curve" smooth="yes"/>
			<point x="57" y="96"/>
			<point x="59" y="50"/>
			<point x="94" y="17" type="curve"/>
			<point x="81" y="29"/>
			<point x="152" y="-12"/>
		</contour>
	</outline>
</glyph>
<glyph name="A" format="1">
	<unicode hex="0041"/>
	<advance width="595"/>
	<outline>
		<contour>
			<point x="72" y="-10" type="curve" smooth="yes"/>
			<point x="119" y="-10" type="line" smooth="yes"/>
			<point x="165" y="-10"/>
			<point x="194" y="14"/>
			<point x="203" y="58" type="curve" smooth="yes"/>
			<point x="252" y="298" type="line" smooth="yes"/>
			<point x="264" y="356"/>
			<point x="280" y="438"/>
			<point x="292" y="501" type="curve"/>
			<point x="296" y="501" type="line"/>
			<point x="308" y="438"/>
			<point x="326" y="356"/>
			<point x="338" y="298" type="curve" smooth="yes"/>
			<point x="387" y="58" type="line" smooth="yes"/>
			<point x="396" y="14"/>
			<point x="425" y="-10"/>
			<point x="471" y="-10" type="curve" smooth="yes"/>
			<point x="525" y="-10" type="line" smooth="yes"/>
			<point x="562" y="-10"/>
			<point x="592" y="12"/>
			<point x="592" y="52" type="curve" smooth="yes"/>
			<point x="592" y="60"/>
			<point x="591" y="68"/>
			<point x="588" y="78" type="curve" smooth="yes"/>
			<point x="444" y="572" type="line" smooth="yes"/>
			<point x="428" y="626"/>
			<point x="394" y="648"/>
			<point x="340" y="648" type="curve" smooth="yes"/>
			<point x="256" y="648" type="line" smooth="yes"/>
			<point x="202" y="648"/>
			<point x="170" y="626"/>
			<point x="154" y="572" type="curve" smooth="yes"/>
			<point x="8" y="78" type="line" smooth="yes"/>
			<point x="5" y="68"/>
			<point x="4" y="60"/>
			<point x="4" y="52" type="curve" smooth="yes"/>
			<point x="4" y="12"/>
			<point x="35" y="-10"/>
		</contour>
		<contour>
			<point x="136" y="120" type="line"/>
			<point x="459" y="120" type="line"/>
			<point x="459" y="270" type="line"/>
			<point x="136" y="270" type="line"/>
		</contour>
		<contour>
			<point name="aboveUC" x="294" y="668" type="move"/>
		</contour>
		<contour>
			<point name="ogonekUC" x="490" y="0" type="move"/>
		</contour>
		<contour>
			<point name="baseLC" x="548" y="0" type="move"/>
		</contour>
		<contour>
			<point name="belowLC" x="294" y="-20" type="move"/>
		</contour>
	</outline>
</glyph>
<glyph name="B" format="1">
	<unicode hex="0042"/>
	<advance width="620"/>
	<outline>
		<contour>
			<point x="146" y="0" type="curve" smooth="yes"/>
			<point x="334" y="0" type="line" smooth="yes"/>
			<point x="472" y="0"/>
			<point x="592" y="56"/>
			<point x="592" y="192" type="curve" smooth="yes"/>
			<point x="592" y="285"/>
			<point x="542" y="324"/>
			<point x="486" y="342" type="curve"/>
			<point x="486" y="346" type="line"/>
			<point x="538" y="370"/>
			<point x="564" y="420"/>
			<point x="564" y="482" type="curve" smooth="yes"/>
			<point x="564" y="616"/>
			<point x="450" y="648"/>
			<point x="313" y="648" type="curve" smooth="yes"/>
			<point x="146" y="648" type="line" smooth="yes"/>
			<point x="98" y="648"/>
			<point x="66" y="616"/>
			<point x="66" y="568" type="curve" smooth="yes"/>
			<point x="66" y="80" type="line" smooth="yes"/>
			<point x="66" y="32"/>
			<point x="98" y="0"/>
		</contour>
		<contour>
			<point x="266" y="398" type="line"/>
			<point x="266" y="496" type="line"/>
			<point x="312" y="496" type="line" smooth="yes"/>
			<point x="352" y="496"/>
			<point x="370" y="483"/>
			<point x="370" y="448" type="curve" smooth="yes"/>
			<point x="370" y="418"/>
			<point x="350" y="398"/>
			<point x="312" y="398" type="curve" smooth="yes"/>
		</contour>
		<contour>
			<point x="266" y="154" type="line"/>
			<point x="266" y="260" type="line"/>
			<point x="322" y="260" type="line" smooth="yes"/>
			<point x="376" y="260"/>
			<point x="398" y="247"/>
			<point x="398" y="208" type="curve" smooth="yes"/>
			<point x="398" y="173"/>
			<point x="376" y="154"/>
			<point x="322" y="154" type="curve" smooth="yes"/>
		</contour>
		<contour>
			<point name="aboveUC" x="311" y="668" type="move"/>
		</contour>
		<contour>
			<point name="belowLC" x="326" y="-20" type="move"/>
		</contour>
	</outline>
</glyph>
<glyph name="C" format="1">
	<unicode hex="0043"/>
	<advance width="591"/>
	<outline>
		<contour>
			<point x="359" y="-12" type="curve" smooth="yes"/>
			<point x="482" y="-12"/>
			<point x="564" y="42"/>
			<point x="564" y="108" type="curve" smooth="yes"/>
			<point x="564" y="158"/>
			<point x="528" y="194"/>
			<point x="478" y="194" type="curve" smooth="yes"/>
			<point x="436" y="194"/>
			<point x="431" y="160"/>
			<point x="366" y="160" type="curve" smooth="yes"/>
			<point x="295" y="160"/>
			<point x="246" y="216"/>
			<point x="246" y="330" type="curve" smooth="yes"/>
			<point x="246" y="428"/>
			<point x="307" y="488"/>
			<point x="368" y="488" type="curve" smooth="yes"/>
			<point x="418" y="488"/>
			<point x="434" y="462"/>
			<point x="478" y="462" type="curve" smooth="yes"/>
			<point x="524" y="462"/>
			<point x="558" y="496"/>
			<point x="558" y="550" type="curve" smooth="yes"/>
			<point x="558" y="614"/>
			<point x="476" y="660"/>
			<point x="363" y="660" type="curve" smooth="yes"/>
			<point x="200" y="660"/>
			<point x="42" y="538"/>
			<point x="42" y="322" type="curve" smooth="yes"/>
			<point x="42" y="93"/>
			<point x="192" y="-12"/>
		</contour>
		<contour>
			<point name="aboveUC" x="354" y="668" type="move"/>
		</contour>
		<contour>
			<point name="baseLC" x="355" y="0" type="move"/>
		</contour>
		<contour>
			<point name="belowLC" x="355" y="-20" type="move"/>
		</contour>
	</outline>
</glyph>
<glyph name="D" format="1">
	<unicode hex="0044"/>
	<advance width="650"/>
	<outline>
		<contour>
			<point x="146" y="0" type="curve" smooth="yes"/>
			<point x="280" y="0" type="line" smooth="yes"/>
			<point x="464" y="0"/>
			<point x="608" y="90"/>
			<point x="608" y="328" type="curve" smooth="yes"/>
			<point x="608" y="564"/>
			<point x="464" y="648"/>
			<point x="268" y="648" type="curve" smooth="yes"/>
			<point x="146" y="648" type="line" smooth="yes"/>
			<point x="98" y="648"/>
			<point x="66" y="616"/>
			<point x="66" y="568" type="curve" smooth="yes"/>
			<point x="66" y="80" type="line" smooth="yes"/>
			<point x="66" y="32"/>
			<point x="98" y="0"/>
		</contour>
		<contour>
			<point x="266" y="160" type="line"/>
			<point x="266" y="488" type="line"/>
			<point x="268" y="488" type="line" smooth="yes"/>
			<point x="332" y="488"/>
			<point x="404" y="472"/>
			<point x="404" y="328" type="curve" smooth="yes"/>
			<point x="404" y="182"/>
			<point x="332" y="160"/>
			<point x="268" y="160" type="curve" smooth="yes"/>
		</contour>
		<contour>
			<point name="aboveUC" x="326" y="668" type="move"/>
		</contour>
		<contour>
			<point name="baseLC" x="300" y="0" type="move"/>
		</contour>
		<contour>
			<point name="belowLC" x="320" y="-20" type="move"/>
		</contour>
	</outline>
</glyph>
<glyph name="E" format="1">
	<unicode hex="0045"/>
	<advance width="566"/>
	<outline>
		<contour>
			<point x="146" y="0" type="curve" smooth="yes"/>
			<point x="440" y="0" type="line" smooth="yes"/>
			<point x="488" y="0"/>
			<point x="520" y="31"/>
			<point x="520" y="80" type="curve" smooth="yes"/>
			<point x="520" y="88" type="line" smooth="yes"/>
			<point x="520" y="136"/>
			<point x="488" y="168"/>
			<point x="440" y="168" type="curve" smooth="yes"/>
			<point x="266" y="168" type="line"/>
			<point x="266" y="246" type="line"/>
			<point x="398" y="246" type="line" smooth="yes"/>
			<point x="446" y="246"/>
			<point x="478" y="278"/>
			<point x="478" y="326" type="curve" smooth="yes"/>
			<point x="478" y="330" type="line" smooth="yes"/>
			<point x="478" y="378"/>
			<point x="446" y="410"/>
			<point x="398" y="410" type="curve" smooth="yes"/>
			<point x="266" y="410" type="line"/>
			<point x="266" y="480" type="line"/>
			<point x="430" y="480" type="line" smooth="yes"/>
			<point x="478" y="480"/>
			<point x="510" y="512"/>
			<point x="510" y="560" type="curve" smooth="yes"/>
			<point x="510" y="568" type="line" smooth="yes"/>
			<point x="510" y="616"/>
			<point x="478" y="648"/>
			<point x="430" y="648" type="curve" smooth="yes"/>
			<point x="146" y="648" type="line" smooth="yes"/>
			<point x="98" y="648"/>
			<point x="66" y="616"/>
			<point x="66" y="568" type="curve" smooth="yes"/>
			<point x="66" y="80" type="line" smooth="yes"/>
			<point x="66" y="32"/>
			<point x="98" y="0"/>
		</contour>
		<contour>
			<point name="aboveUC" x="292" y="668" type="move"/>
		</contour>
		<contour>
			<point name="ogonekUC" x="398" y="0" type="move"/>
		</contour>
		<contour>
			<point name="baseLC" x="321" y="0" type="move"/>
		</contour>
		<contour>
			<point name="belowLC" x="290" y="-20" type="move"/>
		</contour>
	</outline>
</glyph>
<glyph name="F" format="1">
	<unicode hex="0046"/>
	<advance width="550"/>
	<outline>
		<contour>
			<point x="146" y="-10" type="curve" smooth="yes"/>
			<point x="186" y="-10" type="line" smooth="yes"/>
			<point x="234" y="-10"/>
			<point x="266" y="22"/>
			<point x="266" y="70" type="curve" smooth="yes"/>
			<point x="266" y="222" type="line"/>
			<point x="402" y="222" type="line" smooth="yes"/>
			<point x="450" y="222"/>
			<point x="482" y="254"/>
			<point x="482" y="302" type="curve" smooth="yes"/>
			<point x="482" y="306" type="line" smooth="yes"/>
			<point x="482" y="354"/>
			<point x="450" y="386"/>
			<point x="402" y="386" type="curve" smooth="yes"/>
			<point x="266" y="386" type="line"/>
			<point x="266" y="480" type="line"/>
			<point x="434" y="480" type="line" smooth="yes"/>
			<point x="482" y="480"/>
			<point x="514" y="512"/>
			<point x="514" y="560" type="curve" smooth="yes"/>
			<point x="514" y="568" type="line" smooth="yes"/>
			<point x="514" y="614"/>
			<point x="482" y="648"/>
			<point x="434" y="648" type="curve" smooth="yes"/>
			<point x="146" y="648" type="line" smooth="yes"/>
			<point x="98" y="648"/>
			<point x="66" y="614"/>
			<point x="66" y="568" type="curve" smooth="yes"/>
			<point x="66" y="70" type="line" smooth="yes"/>
			<point x="66" y="22"/>
			<point x="98" y="-10"/>
		</contour>
		<contour>
			<point name="aboveUC" x="291" y="668" type="move"/>
		</contour>
		<contour>
			<point name="baseLC" x="145" y="0" type="move"/>
		</contour>
		<contour>
			<point name="belowLC" x="178" y="-20" type="move"/>
		</contour>
	</outline>
</glyph>
<glyph name="G" format="1">
	<unicode hex="0047"/>
	<advance width="655"/>
	<outline>
		<contour>
			<point x="380" y="-12" type="curve" smooth="yes"/>
			<point x="436" y="-12"/>
			<point x="484" y="-4"/>
			<point x="538" y="22" type="curve" smooth="yes"/>
			<point x="600" y="52"/>
			<point x="606" y="84"/>
			<point x="606" y="148" type="curve" smooth="yes"/>
			<point x="606" y="310" type="line" smooth="yes"/>
			<point x="606" y="358"/>
			<point x="574" y="390"/>
			<point x="526" y="390" type="curve" smooth="yes"/>
			<point x="416" y="390" type="line" smooth="yes"/>
			<point x="370" y="390"/>
			<point x="338" y="358"/>
			<point x="338" y="310" type="curve" smooth="yes"/>
			<point x="338" y="258"/>
			<point x="370" y="228"/>
			<point x="416" y="228" type="curve" smooth="yes"/>
			<point x="428" y="228" type="line"/>
			<point x="428" y="164" type="line"/>
			<point x="424" y="162"/>
			<point x="410" y="160"/>
			<point x="400" y="160" type="curve" smooth="yes"/>
			<point x="292" y="160"/>
			<point x="246" y="216"/>
			<point x="246" y="330" type="curve" smooth="yes"/>
			<point x="246" y="428"/>
			<point x="306" y="488"/>
			<point x="380" y="488" type="curve" smooth="yes"/>
			<point x="428" y="488"/>
			<point x="458" y="460"/>
			<point x="499" y="460" type="curve" smooth="yes"/>
			<point x="550" y="460"/>
			<point x="585" y="499"/>
			<point x="584" y="554" type="curve" smooth="yes"/>
			<point x="584" y="618"/>
			<point x="501" y="660"/>
			<point x="373" y="660" type="curve" smooth="yes"/>
			<point x="199" y="660"/>
			<point x="42" y="538"/>
			<point x="42" y="322" type="curve" smooth="yes"/>
			<point x="42" y="93"/>
			<point x="195" y="-12"/>
		</contour>
		<contour>
			<point name="aboveUC" x="378" y="668" type="move"/>
		</contour>
		<contour>
			<point name="belowLC" x="374" y="-20" type="move"/>
		</contour>
	</outline>
</glyph>
<glyph name="H" format="1">
	<unicode hex="0048"/>
	<advance width="690"/>
	<outline>
		<contour>
			<point x="146" y="-4" type="curve" smooth="yes"/>
			<point x="186" y="-4" type="line" smooth="yes"/>
			<point x="234" y="-4"/>
			<point x="266" y="28"/>
			<point x="266" y="76" type="curve" smooth="yes"/>
			<point x="266" y="242" type="line"/>
			<point x="424" y="242" type="line"/>
			<point x="424" y="76" type="line" smooth="yes"/>
			<point x="424" y="28"/>
			<point x="456" y="-4"/>
			<point x="504" y="-4" type="curve" smooth="yes"/>
			<point x="544" y="-4" type="line" smooth="yes"/>
			<point x="592" y="-4"/>
			<point x="624" y="28"/>
			<point x="624" y="76" type="curve" smooth="yes"/>
			<point x="624" y="572" type="line" smooth="yes"/>
			<point x="624" y="620"/>
			<point x="592" y="652"/>
			<point x="544" y="652" type="curve" smooth="yes"/>
			<point x="504" y="652" type="line" smooth="yes"/>
			<point x="456" y="652"/>
			<point x="424" y="620"/>
			<point x="424" y="572" type="curve" smooth="yes"/>
			<point x="424" y="416" type="line"/>
			<point x="266" y="416" type="line"/>
			<point x="266" y="572" type="line" smooth="yes"/>
			<point x="266" y="620"/>
			<point x="234" y="652"/>
			<point x="186" y="652" type="curve" smooth="yes"/>
			<point x="146" y="652" type="line" smooth="yes"/>
			<point x="98" y="652"/>
			<point x="66" y="620"/>
			<point x="66" y="572" type="curve" smooth="yes"/>
			<point x="66" y="76" type="line" smooth="yes"/>
			<point x="66" y="28"/>
			<point x="98" y="-4"/>
		</contour>
		<contour>
			<point name="aboveUC" x="344" y="668" type="move"/>
		</contour>
		<contour>
			<point name="baseLC" x="129" y="0" type="move"/>
		</contour>
		<contour>
			<point name="belowLC" x="345" y="-20" type="move"/>
		</contour>
	</outline>
</glyph>
<glyph name="I" format="1">
	<unicode hex="0049"/>
	<advance width="332"/>
	<outline>
		<contour>
			<point x="146" y="-4" type="curve" smooth="yes"/>
			<point x="186" y="-4" type="line" smooth="yes"/>
			<point x="234" y="-4"/>
			<point x="266" y="28"/>
			<point x="266" y="76" type="curve" smooth="yes"/>
			<point x="266" y="572" type="line" smooth="yes"/>
			<point x="266" y="620"/>
			<point x="234" y="652"/>
			<point x="186" y="652" type="curve" smooth="yes"/>
			<point x="146" y="652" type="line" smooth="yes"/>
			<point x="98" y="652"/>
			<point x="66" y="620"/>
			<point x="66" y="572" type="curve" smooth="yes"/>
			<point x="66" y="76" type="line" smooth="yes"/>
			<point x="66" y="28"/>
			<point x="98" y="-4"/>
		</contour>
		<contour>
			<point name="aboveUC" x="166" y="668" type="move"/>
		</contour>
		<contour>
			<point name="ogonekUC" x="150" y="0" type="move"/>
		</contour>
		<contour>
			<point name="baseLC" x="169" y="0" type="move"/>
		</contour>
		<contour>
			<point name="belowLC" x="166" y="-20" type="move"/>
		</contour>
	</outline>
</glyph>
<glyph name="J" format="1">
	<unicode hex="004A"/>
	<advance width="532"/>
	<outline>
		<contour>
			<point x="238" y="-12" type="curve" smooth="yes"/>
			<point x="394" y="-12"/>
			<point x="470" y="92"/>
			<point x="470" y="216" type="curve" smooth="yes"/>
			<point x="470" y="572" type="line" smooth="yes"/>
			<point x="470" y="620"/>
			<point x="438" y="652"/>
			<point x="390" y="652" type="curve" smooth="yes"/>
			<point x="350" y="652" type="line" smooth="yes"/>
			<point x="302" y="652"/>
			<point x="270" y="620"/>
			<point x="270" y="572" type="curve" smooth="yes"/>
			<point x="270" y="232" type="line" smooth="yes"/>
			<point x="270" y="174"/>
			<point x="248" y="160"/>
			<point x="210" y="160" type="curve" smooth="yes"/>
			<point x="162" y="160"/>
			<point x="146" y="198"/>
			<point x="110" y="198" type="curve" smooth="yes"/>
			<point x="62" y="198"/>
			<point x="26" y="164"/>
			<point x="26" y="118" type="curve" smooth="yes"/>
			<point x="26" y="39"/>
			<point x="102" y="-12"/>
		</contour>
		<contour>
			<point name="aboveUC" x="369" y="668" type="move"/>
		</contour>
		<contour>
			<point name="belowLC" x="283" y="-20" type="move"/>
		</contour>
	</outline>
</glyph>
<glyph name="K" format="1">
	<unicode hex="004B"/>
	<advance width="644"/>
	<outline>
		<contour>
			<point x="146" y="-4" type="curve" smooth="yes"/>
			<point x="186" y="-4" type="line" smooth="yes"/>
			<point x="234" y="-4"/>
			<point x="266" y="28"/>
			<point x="266" y="76" type="curve" smooth="yes"/>
			<point x="266" y="148" type="line"/>
			<point x="312" y="221" type="line"/>
			<point x="400" y="65" type="line" smooth="yes"/>
			<point x="429" y="14"/>
			<point x="462" y="-4"/>
			<point x="520" y="-4" type="curve" smooth="yes"/>
			<point x="578" y="-4" type="line" smooth="yes"/>
			<point x="611" y="-4"/>
			<point x="634" y="36"/>
			<point x="617" y="64" type="curve" smooth="yes"/>
			<point x="428" y="380" type="line"/>
			<point x="572" y="587" type="line" smooth="yes"/>
			<point x="589" y="612"/>
			<point x="569" y="652"/>
			<point x="538" y="652" type="curve" smooth="yes"/>
			<point x="480" y="652" type="line" smooth="yes"/>
			<point x="422" y="652"/>
			<point x="389" y="634"/>
			<point x="359" y="583" type="curve" smooth="yes"/>
			<point x="271" y="434" type="line"/>
			<point x="266" y="434" type="line"/>
			<point x="266" y="572" type="line" smooth="yes"/>
			<point x="266" y="619"/>
			<point x="234" y="652"/>
			<point x="186" y="652" type="curve" smooth="yes"/>
			<point x="146" y="652" type="line" smooth="yes"/>
			<point x="98" y="652"/>
			<point x="66" y="619"/>
			<point x="66" y="572" type="curve" smooth="yes"/>
			<point x="66" y="76" type="line" smooth="yes"/>
			<point x="66" y="28"/>
			<point x="98" y="-4"/>
		</contour>
		<contour>
			<point name="aboveUC" x="326" y="668" type="move"/>
		</contour>
		<contour>
			<point name="belowLC" x="336" y="-20" type="move"/>
		</contour>
	</outline>
</glyph>
<glyph name="L" format="1">
	<unicode hex="004C"/>
	<advance width="544"/>
	<outline>
		<contour>
			<point x="146" y="0" type="curve" smooth="yes"/>
			<point x="430" y="0" type="line" smooth="yes"/>
			<point x="478" y="0"/>
			<point x="510" y="32"/>
			<point x="510" y="80" type="curve" smooth="yes"/>
			<point x="510" y="88" type="line" smooth="yes"/>
			<point x="510" y="136"/>
			<point x="478" y="168"/>
			<point x="430" y="168" type="curve" smooth="yes"/>
			<point x="266" y="168" type="line"/>
			<point x="266" y="572" type="line" smooth="yes"/>
			<point x="266" y="620"/>
			<point x="234" y="652"/>
			<point x="186" y="652" type="curve" smooth="yes"/>
			<point x="146" y="652" type="line" smooth="yes"/>
			<point x="98" y="652"/>
			<point x="66" y="620"/>
			<point x="66" y="572" type="curve" smooth="yes"/>
			<point x="66" y="80" type="line" smooth="yes"/>
			<point x="66" y="32"/>
			<point x="98" y="0"/>
		</contour>
		<contour>
			<point name="aboveUC" x="171" y="668" type="move"/>
		</contour>
		<contour>
			<point name="center" x="141" y="420" type="move"/>
		</contour>
		<contour>
			<point name="baseLC" x="302" y="0" type="move"/>
		</contour>
		<contour>
			<point name="belowLC" x="292" y="-20" type="move"/>
		</contour>
	</outline>
</glyph>
<glyph name="M" format="1">
	<unicode hex="004D"/>
	<advance width="792"/>
	<outline>
		<contour>
			<point x="146" y="-4" type="curve" smooth="yes"/>
			<point x="166" y="-4" type="line" smooth="yes"/>
			<point x="213" y="-4"/>
			<point x="246" y="29"/>
			<point x="246" y="76" type="curve" smooth="yes"/>
			<point x="246" y="138" type="line" smooth="yes"/>
			<point x="246" y="210"/>
			<point x="228" y="322"/>
			<point x="218" y="392" type="curve"/>
			<point x="222" y="392" type="line"/>
			<point x="276" y="224" type="line" smooth="yes"/>
			<point x="320" y="104" type="line" smooth="yes"/>
			<point x="337" y="57"/>
			<point x="357" y="44"/>
			<point x="394" y="44" type="curve" smooth="yes"/>
			<point x="431" y="44"/>
			<point x="451" y="57"/>
			<point x="468" y="104" type="curve" smooth="yes"/>
			<point x="512" y="224" type="line" smooth="yes"/>
			<point x="568" y="392" type="line"/>
			<point x="572" y="392" type="line"/>
			<point x="562" y="322"/>
			<point x="544" y="210"/>
			<point x="544" y="138" type="curve" smooth="yes"/>
			<point x="544" y="76" type="line" smooth="yes"/>
			<point x="544" y="29"/>
			<point x="577" y="-4"/>
			<point x="624" y="-4" type="curve" smooth="yes"/>
			<point x="646" y="-4" type="line" smooth="yes"/>
			<point x="693" y="-4"/>
			<point x="726" y="29"/>
			<point x="726" y="76" type="curve" smooth="yes"/>
			<point x="726" y="572" type="line" smooth="yes"/>
			<point x="726" y="619"/>
			<point x="693" y="652"/>
			<point x="646" y="652" type="curve" smooth="yes"/>
			<point x="591" y="652" type="line" smooth="yes"/>
			<point x="538" y="652"/>
			<point x="502" y="628"/>
			<point x="486" y="576" type="curve" smooth="yes"/>
			<point x="430" y="398" type="line" smooth="yes"/>
			<point x="419" y="364"/>
			<point x="410" y="328"/>
			<point x="400" y="292" type="curve"/>
			<point x="396" y="292" type="line"/>
			<point x="386" y="328"/>
			<point x="377" y="364"/>
			<point x="366" y="398" type="curve" smooth="yes"/>
			<point x="307" y="576" type="line" smooth="yes"/>
			<point x="290" y="628"/>
			<point x="255" y="652"/>
			<point x="201" y="652" type="curve" smooth="yes"/>
			<point x="146" y="652" type="line" smooth="yes"/>
			<point x="99" y="652"/>
			<point x="66" y="619"/>
			<point x="66" y="572" type="curve" smooth="yes"/>
			<point x="66" y="76" type="line" smooth="yes"/>
			<point x="66" y="29"/>
			<point x="99" y="-4"/>
		</contour>
		<contour>
			<point name="aboveUC" x="396" y="668" type="move"/>
		</contour>
		<contour>
			<point name="baseLC" x="686" y="0" type="move"/>
		</contour>
		<contour>
			<point name="belowLC" x="398" y="-20" type="move"/>
		</contour>
	</outline>
</glyph>
<glyph name="N" format="1">
	<unicode hex="004E"/>
	<advance width="680"/>
	<outline>
		<contour>
			<point x="66" y="76" type="line" smooth="yes"/>
			<point x="66" y="29"/>
			<point x="99" y="-4"/>
			<point x="146" y="-4" type="curve" smooth="yes"/>
			<point x="177" y="-4" type="line" smooth="yes"/>
			<point x="224" y="-4"/>
			<point x="257" y="29"/>
			<point x="257" y="76" type="curve" smooth="yes"/>
			<point x="257" y="139" type="line" smooth="yes"/>
			<point x="257" y="222"/>
			<point x="241" y="324"/>
			<point x="232" y="400" type="curve"/>
			<point x="236" y="400" type="line"/>
			<point x="295" y="252" type="line" smooth="yes"/>
			<point x="380" y="69" type="line" smooth="yes"/>
			<point x="404" y="18"/>
			<point x="437" y="-4"/>
			<point x="493" y="-4" type="curve" smooth="yes"/>
			<point x="534" y="-4" type="line" smooth="yes"/>
			<point x="581" y="-4"/>
			<point x="614" y="29"/>
			<point x="614" y="76" type="curve" smooth="yes"/>
			<point x="614" y="572" type="line" smooth="yes"/>
			<point x="614" y="619"/>
			<point x="581" y="652"/>
			<point x="534" y="652" type="curve" smooth="yes"/>
			<point x="503" y="652" type="line" smooth="yes"/>
			<point x="456" y="652"/>
			<point x="423" y="619"/>
			<point x="423" y="572" type="curve" smooth="yes"/>
			<point x="423" y="508" type="line" smooth="yes"/>
			<point x="423" y="424"/>
			<point x="439" y="319"/>
			<point x="448" y="248" type="curve"/>
			<point x="444" y="248" type="line"/>
			<point x="385" y="397" type="line" smooth="yes"/>
			<point x="300" y="579" type="line" smooth="yes"/>
			<point x="276" y="630"/>
			<point x="243" y="652"/>
			<point x="187" y="652" type="curve" smooth="yes"/>
			<point x="146" y="652" type="line" smooth="yes"/>
			<point x="99" y="652"/>
			<point x="66" y="619"/>
			<point x="66" y="572" type="curve" smooth="yes"/>
		</contour>
		<contour>
			<point name="aboveUC" x="339" y="668" type="move"/>
		</contour>
		<contour>
			<point name="baseLC" x="561" y="0" type="move"/>
		</contour>
		<contour>
			<point name="belowLC" x="357" y="-20" type="move"/>
		</contour>
	</outline>
</glyph>
<glyph name="O" format="1">
	<unicode hex="004F"/>
	<advance width="700"/>
	<outline>
		<contour>
			<point x="350" y="-12" type="curve" smooth="yes"/>
			<point x="534" y="-12"/>
			<point x="658" y="112"/>
			<point x="658" y="330" type="curve" smooth="yes"/>
			<point x="658" y="542"/>
			<point x="534" y="660"/>
			<point x="350" y="660" type="curve" smooth="yes"/>
			<point x="166" y="660"/>
			<point x="42" y="542"/>
			<point x="42" y="330" type="curve" smooth="yes"/>
			<point x="42" y="112"/>
			<point x="166" y="-12"/>
		</contour>
		<contour>
			<point x="350" y="160" type="curve" smooth="yes"/>
			<point x="286" y="160"/>
			<point x="246" y="224"/>
			<point x="246" y="330" type="curve" smooth="yes"/>
			<point x="246" y="432"/>
			<point x="286" y="488"/>
			<point x="350" y="488" type="curve" smooth="yes"/>
			<point x="414" y="488"/>
			<point x="454" y="432"/>
			<point x="454" y="330" type="curve" smooth="yes"/>
			<point x="454" y="224"/>
			<point x="414" y="160"/>
		</contour>
		<contour>
			<point name="aboveUC" x="350" y="668" type="move"/>
		</contour>
		<contour>
			<point name="hornLC" x="497" y="638" type="move"/>
		</contour>
		<contour>
			<point name="ogonekUC" x="350" y="0" type="move"/>
		</contour>
		<contour>
			<point name="baseLC" x="350" y="0" type="move"/>
		</contour>
		<contour>
			<point name="belowLC" x="350" y="-20" type="move"/>
		</contour>
	</outline>
</glyph>
<glyph name="P" format="1">
	<unicode hex="0050"/>
	<advance width="621"/>
	<outline>
		<contour>
			<point x="66" y="76" type="line" smooth="yes"/>
			<point x="66" y="28"/>
			<point x="98" y="-4"/>
			<point x="146" y="-4" type="curve" smooth="yes"/>
			<point x="186" y="-4" type="line" smooth="yes"/>
			<point x="234" y="-4"/>
			<point x="266" y="28"/>
			<point x="266" y="76" type="curve" smooth="yes"/>
			<point x="266" y="192" type="line"/>
			<point x="324" y="192" type="line" smooth="yes"/>
			<point x="458" y="192"/>
			<point x="590" y="261"/>
			<point x="590" y="426" type="curve" smooth="yes"/>
			<point x="590" y="596"/>
			<point x="462" y="648"/>
			<point x="320" y="648" type="curve" smooth="yes"/>
			<point x="146" y="648" type="line" smooth="yes"/>
			<point x="98" y="648"/>
			<point x="66" y="616"/>
			<point x="66" y="568" type="curve" smooth="yes"/>
		</contour>
		<contour>
			<point x="266" y="344" type="line"/>
			<point x="266" y="490" type="line"/>
			<point x="314" y="490" type="line" smooth="yes"/>
			<point x="366" y="490"/>
			<point x="396" y="470"/>
			<point x="396" y="422" type="curve" smooth="yes"/>
			<point x="396" y="376"/>
			<point x="372" y="344"/>
			<point x="318" y="344" type="curve" smooth="yes"/>
		</contour>
		<contour>
			<point name="aboveUC" x="327" y="668" type="move"/>
		</contour>
		<contour>
			<point name="belowLC" x="180" y="-20" type="move"/>
		</contour>
	</outline>
</glyph>
<glyph name="Q" format="1">
	<unicode hex="0051"/>
	<advance width="700"/>
	<outline>
		<contour>
			<point x="350" y="-12" type="curve" smooth="yes"/>
			<point x="534" y="-12"/>
			<point x="658" y="112"/>
			<point x="658" y="330" type="curve" smooth="yes"/>
			<point x="658" y="542"/>
			<point x="534" y="660"/>
			<point x="350" y="660" type="curve" smooth="yes"/>
			<point x="166" y="660"/>
			<point x="42" y="542"/>
			<point x="42" y="330" type="curve" smooth="yes"/>
			<point x="42" y="112"/>
			<point x="166" y="-12"/>
		</contour>
		<contour>
			<point x="350" y="150" type="curve" smooth="yes"/>
			<point x="286" y="150"/>
			<point x="246" y="212"/>
			<point x="246" y="326" type="curve" smooth="yes"/>
			<point x="246" y="434"/>
			<point x="286" y="488"/>
			<point x="350" y="488" type="curve" smooth="yes"/>
			<point x="414" y="488"/>
			<point x="454" y="434"/>
			<point x="454" y="326" type="curve" smooth="yes"/>
			<point x="454" y="212"/>
			<point x="414" y="150"/>
		</contour>
		<contour>
			<point x="572" y="-196" type="curve" smooth="yes"/>
			<point x="661" y="-196"/>
			<point x="702" y="-166"/>
			<point x="702" y="-108" type="curve" smooth="yes"/>
			<point x="702" y="-48"/>
			<point x="670" y="-32"/>
			<point x="638" y="-32" type="curve" smooth="yes"/>
			<point x="623" y="-32"/>
			<point x="604" y="-38"/>
			<point x="590" y="-38" type="curve" smooth="yes"/>
			<point x="544" y="-38"/>
			<point x="482" y="-26"/>
			<point x="458" y="30" type="curve"/>
			<point x="258" y="8" type="line"/>
			<point x="308" y="-110"/>
			<point x="420" y="-196"/>
		</contour>
		<contour>
			<point name="aboveUC" x="350" y="668" type="move"/>
		</contour>
	</outline>
</glyph>
<glyph name="R" format="1">
	<unicode hex="0052"/>
	<advance width="649"/>
	<outline>
		<contour>
			<point x="146" y="-4" type="curve" smooth="yes"/>
			<point x="186" y="-4" type="line" smooth="yes"/>
			<point x="234" y="-4"/>
			<point x="266" y="28"/>
			<point x="266" y="76" type="curve" smooth="yes"/>
			<point x="266" y="204" type="line"/>
			<point x="325" y="204" type="line" smooth="yes"/>
			<point x="468" y="204"/>
			<point x="594" y="268"/>
			<point x="594" y="430" type="curve" smooth="yes"/>
			<point x="594" y="600"/>
			<point x="466" y="648"/>
			<point x="325" y="648" type="curve" smooth="yes"/>
			<point x="146" y="648" type="line" smooth="yes"/>
			<point x="98" y="648"/>
			<point x="66" y="615"/>
			<point x="66" y="568" type="curve" smooth="yes"/>
			<point x="66" y="76" type="line" smooth="yes"/>
			<point x="66" y="28"/>
			<point x="98" y="-4"/>
		</contour>
		<contour>
			<point x="266" y="347" type="line"/>
			<point x="266" y="490" type="line"/>
			<point x="313" y="490" type="line" smooth="yes"/>
			<point x="370" y="490"/>
			<point x="400" y="474"/>
			<point x="400" y="424" type="curve" smooth="yes"/>
			<point x="400" y="373"/>
			<point x="370" y="347"/>
			<point x="313" y="347" type="curve" smooth="yes"/>
		</contour>
		<contour>
			<point x="378" y="68" type="line" smooth="yes"/>
			<point x="403" y="17"/>
			<point x="436" y="-4"/>
			<point x="493" y="-4" type="curve" smooth="yes"/>
			<point x="556" y="-4" type="line" smooth="yes"/>
			<point x="590" y="-4"/>
			<point x="613" y="36"/>
			<point x="597" y="66" type="curve" smooth="yes"/>
			<point x="422" y="388" type="line"/>
			<point x="290" y="251" type="line"/>
		</contour>
		<contour>
			<point name="aboveUC" x="323" y="668" type="move"/>
		</contour>
		<contour>
			<point name="baseLC" x="139" y="0" type="move"/>
		</contour>
		<contour>
			<point name="belowLC" x="342" y="-20" type="move"/>
		</contour>
	</outline>
</glyph>
<glyph name="S" format="1">
	<unicode hex="0053"/>
	<advance width="574"/>
	<outline>
		<contour>
			<point x="280" y="-12" type="curve" smooth="yes"/>
			<point x="450" y="-12"/>
			<point x="544" y="91"/>
			<point x="544" y="203" type="curve" smooth="yes"/>
			<point x="544" y="290"/>
			<point x="506" y="348"/>
			<point x="418" y="382" type="curve" smooth="yes"/>
			<point x="346" y="410" type="line" smooth="yes"/>
			<point x="280" y="436"/>
			<point x="253" y="440"/>
			<point x="253" y="461" type="curve" smooth="yes"/>
			<point x="253" y="480"/>
			<point x="269" y="488"/>
			<point x="302" y="488" type="curve" smooth="yes"/>
			<point x="353" y="488"/>
			<point x="387" y="460"/>
			<point x="430" y="460" type="curve" smooth="yes"/>
			<point x="481" y="460"/>
			<point x="516" y="499"/>
			<point x="515" y="554" type="curve" smooth="yes"/>
			<point x="515" y="618"/>
			<point x="432" y="660"/>
			<point x="304" y="660" type="curve" smooth="yes"/>
			<point x="154" y="660"/>
			<point x="50" y="564"/>
			<point x="50" y="448" type="curve" smooth="yes"/>
			<point x="50" y="352"/>
			<point x="106" y="294"/>
			<point x="182" y="264" type="curve" smooth="yes"/>
			<point x="258" y="234" type="line" smooth="yes"/>
			<point x="310" y="214"/>
			<point x="338" y="206"/>
			<point x="338" y="186" type="curve" smooth="yes"/>
			<point x="338" y="170"/>
			<point x="326" y="160"/>
			<point x="288" y="160" type="curve" smooth="yes"/>
			<point x="214" y="160"/>
			<point x="192" y="194"/>
			<point x="144" y="194" type="curve" smooth="yes"/>
			<point x="94" y="194"/>
			<point x="58" y="156"/>
			<point x="58" y="104" type="curve" smooth="yes"/>
			<point x="58" y="34"/>
			<point x="138" y="-12"/>
		</contour>
		<contour>
			<point name="aboveUC" x="302" y="668" type="move"/>
		</contour>
		<contour>
			<point name="baseLC" x="285" y="0" type="move"/>
		</contour>
		<contour>
			<point name="belowLC" x="285" y="-20" type="move"/>
		</contour>
	</outline>
</glyph>
<glyph name="T" format="1">
	<unicode hex="0054"/>
	<advance width="572"/>
	<outline>
		<contour>
			<point x="386" y="480" type="line"/>
			<point x="478" y="480" type="line" smooth="yes"/>
			<point x="521" y="480"/>
			<point x="552" y="512"/>
			<point x="552" y="560" type="curve" smooth="yes"/>
			<point x="552" y="568" type="line" smooth="yes"/>
			<point x="552" y="616"/>
			<point x="521" y="648"/>
			<point x="478" y="648" type="curve"/>
			<point x="94" y="648" type="line" smooth="yes"/>
			<point x="50" y="648"/>
			<point x="20" y="616"/>
			<point x="20" y="568" type="curve" smooth="yes"/>
			<point x="20" y="560" type="line" smooth="yes"/>
			<point x="20" y="512"/>
			<point x="50" y="480"/>
			<point x="94" y="480" type="curve" smooth="yes"/>
			<point x="186" y="480" type="line"/>
			<point x="186" y="76" type="line" smooth="yes"/>
			<point x="186" y="28"/>
			<point x="218" y="-4"/>
			<point x="266" y="-4" type="curve" smooth="yes"/>
			<point x="306" y="-4" type="line" smooth="yes"/>
			<point x="354" y="-4"/>
			<point x="386" y="28"/>
			<point x="386" y="76" type="curve" smooth="yes"/>
		</contour>
		<contour>
			<point name="aboveUC" x="287" y="668" type="move"/>
		</contour>
		<contour>
			<point name="baseLC" x="286" y="0" type="move"/>
		</contour>
		<contour>
			<point name="belowLC" x="286" y="-20" type="move"/>
		</contour>
	</outline>
</glyph>
<glyph name="U" format="1">
	<unicode hex="0055"/>
	<advance width="680"/>
	<outline>
		<contour>
			<point x="343" y="-12" type="curve" smooth="yes"/>
			<point x="540" y="-12"/>
			<point x="618" y="92"/>
			<point x="618" y="288" type="curve" smooth="yes"/>
			<point x="618" y="572" type="line" smooth="yes"/>
			<point x="618" y="620"/>
			<point x="586" y="652"/>
			<point x="538" y="652" type="curve" smooth="yes"/>
			<point x="506" y="652" type="line" smooth="yes"/>
			<point x="458" y="652"/>
			<point x="426" y="620"/>
			<point x="426" y="572" type="curve" smooth="yes"/>
			<point x="426" y="262" type="line" smooth="yes"/>
			<point x="426" y="194"/>
			<point x="406" y="160"/>
			<point x="343" y="160" type="curve" smooth="yes"/>
			<point x="280" y="160"/>
			<point x="262" y="194"/>
			<point x="262" y="262" type="curve" smooth="yes"/>
			<point x="262" y="572" type="line" smooth="yes"/>
			<point x="262" y="620"/>
			<point x="230" y="652"/>
			<point x="182" y="652" type="curve" smooth="yes"/>
			<point x="142" y="652" type="line" smooth="yes"/>
			<point x="94" y="652"/>
			<point x="62" y="620"/>
			<point x="62" y="572" type="curve" smooth="yes"/>
			<point x="62" y="288" type="line" smooth="yes"/>
			<point x="62" y="92"/>
			<point x="146" y="-12"/>
		</contour>
		<contour>
			<point name="aboveUC" x="340" y="668" type="move"/>
		</contour>
		<contour>
			<point name="hornLC" x="560" y="658" type="move"/>
		</contour>
		<contour>
			<point name="ogonekUC" x="340" y="0" type="move"/>
		</contour>
		<contour>
			<point name="baseLC" x="340" y="0" type="move"/>
		</contour>
		<contour>
			<point name="belowLC" x="340" y="-20" type="move"/>
		</contour>
	</outline>
</glyph>
<glyph name="V" format="1">
	<unicode hex="0056"/>
	<advance width="590"/>
	<outline>
		<contour>
			<point x="256" y="0" type="curve" smooth="yes"/>
			<point x="334" y="0" type="line" smooth="yes"/>
			<point x="388" y="0"/>
			<point x="420" y="22"/>
			<point x="436" y="76" type="curve" smooth="yes"/>
			<point x="580" y="564" type="line" smooth="yes"/>
			<point x="583" y="574"/>
			<point x="584" y="582"/>
			<point x="584" y="590" type="curve" smooth="yes"/>
			<point x="584" y="630"/>
			<point x="553" y="652"/>
			<point x="516" y="652" type="curve" smooth="yes"/>
			<point x="469" y="652" type="line" smooth="yes"/>
			<point x="423" y="652"/>
			<point x="394" y="628"/>
			<point x="385" y="584" type="curve" smooth="yes"/>
			<point x="338" y="350" type="line" smooth="yes"/>
			<point x="327" y="294"/>
			<point x="312" y="216"/>
			<point x="302" y="154" type="curve"/>
			<point x="298" y="154" type="line"/>
			<point x="288" y="216"/>
			<point x="269" y="294"/>
			<point x="258" y="350" type="curve" smooth="yes"/>
			<point x="211" y="584" type="line" smooth="yes"/>
			<point x="202" y="628"/>
			<point x="173" y="652"/>
			<point x="127" y="652" type="curve" smooth="yes"/>
			<point x="73" y="652" type="line" smooth="yes"/>
			<point x="36" y="652"/>
			<point x="6" y="630"/>
			<point x="6" y="590" type="curve" smooth="yes"/>
			<point x="6" y="582"/>
			<point x="7" y="574"/>
			<point x="10" y="564" type="curve" smooth="yes"/>
			<point x="152" y="76" type="line" smooth="yes"/>
			<point x="168" y="22"/>
			<point x="202" y="0"/>
		</contour>
		<contour>
			<point name="aboveUC" x="295" y="668" type="move"/>
		</contour>
		<contour>
			<point name="belowLC" x="290" y="-20" type="move"/>
		</contour>
	</outline>
</glyph>
<glyph name="W" format="1">
	<unicode hex="0057"/>
	<advance width="836"/>
	<outline>
		<contour>
			<point x="99" y="79" type="line" smooth="yes"/>
			<point x="107" y="29"/>
			<point x="141" y="0"/>
			<point x="192" y="0" type="curve" smooth="yes"/>
			<point x="282" y="0" type="line" smooth="yes"/>
			<point x="333" y="0"/>
			<point x="366" y="29"/>
			<point x="374" y="79" type="curve" smooth="yes"/>
			<point x="395" y="215" type="line" smooth="yes"/>
			<point x="403" y="264"/>
			<point x="410" y="320"/>
			<point x="416" y="368" type="curve"/>
			<point x="420" y="368" type="line"/>
			<point x="425" y="320"/>
			<point x="434" y="264"/>
			<point x="442" y="215" type="curve" smooth="yes"/>
			<point x="464" y="79" type="line" smooth="yes"/>
			<point x="472" y="29"/>
			<point x="505" y="0"/>
			<point x="556" y="0" type="curve" smooth="yes"/>
			<point x="651" y="0" type="line" smooth="yes"/>
			<point x="702" y="0"/>
			<point x="735" y="29"/>
			<point x="743" y="79" type="curve" smooth="yes"/>
			<point x="818" y="569" type="line" smooth="yes"/>
			<point x="825" y="612"/>
			<point x="793" y="648"/>
			<point x="750" y="648" type="curve" smooth="yes"/>
			<point x="720" y="648" type="line" smooth="yes"/>
			<point x="671" y="648"/>
			<point x="637" y="618"/>
			<point x="632" y="568" type="curve" smooth="yes"/>
			<point x="614" y="387" type="line" smooth="yes"/>
			<point x="608" y="322"/>
			<point x="602" y="254"/>
			<point x="597" y="186" type="curve"/>
			<point x="593" y="186" type="line"/>
			<point x="582" y="254"/>
			<point x="574" y="324"/>
			<point x="561" y="387" type="curve" smooth="yes"/>
			<point x="524" y="570" type="line" smooth="yes"/>
			<point x="514" y="620"/>
			<point x="480" y="648"/>
			<point x="428" y="648" type="curve" smooth="yes"/>
			<point x="422" y="648" type="line" smooth="yes"/>
			<point x="370" y="648"/>
			<point x="336" y="620"/>
			<point x="326" y="570" type="curve" smooth="yes"/>
			<point x="290" y="387" type="line" smooth="yes"/>
			<point x="277" y="321"/>
			<point x="268" y="253"/>
			<point x="257" y="186" type="curve"/>
			<point x="253" y="186" type="line"/>
			<point x="248" y="253"/>
			<point x="243" y="320"/>
			<point x="236" y="387" type="curve" smooth="yes"/>
			<point x="218" y="568" type="line" smooth="yes"/>
			<point x="213" y="618"/>
			<point x="179" y="648"/>
			<point x="130" y="648" type="curve" smooth="yes"/>
			<point x="86" y="648" type="line" smooth="yes"/>
			<point x="43" y="648"/>
			<point x="12" y="612"/>
			<point x="19" y="569" type="curve" smooth="yes"/>
		</contour>
		<contour>
			<point name="aboveUC" x="418" y="668" type="move"/>
		</contour>
		<contour>
			<point name="belowLC" x="420" y="-20" type="move"/>
		</contour>
	</outline>
</glyph>
<glyph name="X" format="1">
	<unicode hex="0058"/>
	<advance width="612"/>
	<outline>
		<contour>
			<point x="45" y="71" type="line" smooth="yes"/>
			<point x="29" y="40"/>
			<point x="53" y="0"/>
			<point x="88" y="0" type="curve" smooth="yes"/>
			<point x="143" y="0" type="line" smooth="yes"/>
			<point x="197" y="0"/>
			<point x="232" y="24"/>
			<point x="249" y="76" type="curve" smooth="yes"/>
			<point x="256" y="97" type="line" smooth="yes"/>
			<point x="268" y="132"/>
			<point x="282" y="166"/>
			<point x="295" y="206" type="curve"/>
			<point x="299" y="206" type="line"/>
			<point x="313" y="166"/>
			<point x="328" y="132"/>
			<point x="342" y="97" type="curve" smooth="yes"/>
			<point x="351" y="74" type="line" smooth="yes"/>
			<point x="371" y="23"/>
			<point x="405" y="0"/>
			<point x="460" y="0" type="curve" smooth="yes"/>
			<point x="523" y="0" type="line" smooth="yes"/>
			<point x="557" y="0"/>
			<point x="582" y="40"/>
			<point x="566" y="71" type="curve" smooth="yes"/>
			<point x="432" y="323" type="line"/>
			<point x="558" y="576" type="line" smooth="yes"/>
			<point x="574" y="608"/>
			<point x="549" y="648"/>
			<point x="514" y="648" type="curve" smooth="yes"/>
			<point x="460" y="648" type="line" smooth="yes"/>
			<point x="407" y="648"/>
			<point x="370" y="623"/>
			<point x="359" y="571" type="curve" smooth="yes"/>
			<point x="357" y="562" type="line" smooth="yes"/>
			<point x="350" y="531"/>
			<point x="332" y="493"/>
			<point x="319" y="450" type="curve"/>
			<point x="315" y="450" type="line"/>
			<point x="298" y="493"/>
			<point x="283" y="532"/>
			<point x="271" y="562" type="curve" smooth="yes"/>
			<point x="267" y="572" type="line" smooth="yes"/>
			<point x="247" y="623"/>
			<point x="215" y="648"/>
			<point x="161" y="648" type="curve" smooth="yes"/>
			<point x="98" y="648" type="line" smooth="yes"/>
			<point x="63" y="648"/>
			<point x="38" y="608"/>
			<point x="54" y="577" type="curve" smooth="yes"/>
			<point x="180" y="332" type="line"/>
		</contour>
		<contour>
			<point name="aboveUC" x="306" y="668" type="move"/>
		</contour>
		<contour>
			<point name="baseLC" x="529" y="0" type="move"/>
		</contour>
		<contour>
			<point name="belowLC" x="292" y="-20" type="move"/>
		</contour>
	</outline>
</glyph>
<glyph name="Y" format="1">
	<unicode hex="0059"/>
	<advance width="566"/>
	<outline>
		<contour>
			<point x="263" y="-4" type="curve" smooth="yes"/>
			<point x="303" y="-4" type="line" smooth="yes"/>
			<point x="350" y="-4"/>
			<point x="383" y="29"/>
			<point x="383" y="76" type="curve" smooth="yes"/>
			<point x="383" y="214" type="line"/>
			<point x="547" y="579" type="line" smooth="yes"/>
			<point x="562" y="612"/>
			<point x="536" y="652"/>
			<point x="500" y="652" type="curve" smooth="yes"/>
			<point x="451" y="652" type="line" smooth="yes"/>
			<point x="397" y="652"/>
			<point x="363" y="627"/>
			<point x="347" y="576" type="curve" smooth="yes"/>
			<point x="332" y="528" type="line" smooth="yes"/>
			<point x="316" y="478"/>
			<point x="301" y="434"/>
			<point x="286" y="382" type="curve"/>
			<point x="282" y="382" type="line"/>
			<point x="267" y="434"/>
			<point x="254" y="478"/>
			<point x="238" y="528" type="curve" smooth="yes"/>
			<point x="223" y="576" type="line" smooth="yes"/>
			<point x="207" y="627"/>
			<point x="173" y="652"/>
			<point x="119" y="652" type="curve" smooth="yes"/>
			<point x="65" y="652" type="line" smooth="yes"/>
			<point x="29" y="652"/>
			<point x="3" y="612"/>
			<point x="18" y="579" type="curve" smooth="yes"/>
			<point x="183" y="214" type="line"/>
			<point x="183" y="76" type="line" smooth="yes"/>
			<point x="183" y="29"/>
			<point x="216" y="-4"/>
		</contour>
		<contour>
			<point name="aboveUC" x="283" y="668" type="move"/>
		</contour>
		<contour>
			<point name="ogonekUC" x="283" y="0" type="move"/>
		</contour>
		<contour>
			<point name="belowLC" x="285" y="-20" type="move"/>
		</contour>
	</outline>
</glyph>
<glyph name="Z" format="1">
	<unicode hex="005A"/>
	<advance width="543"/>
	<outline>
		<contour>
			<point x="108" y="0" type="curve" smooth="yes"/>
			<point x="446" y="0" type="line" smooth="yes"/>
			<point x="490" y="0"/>
			<point x="520" y="32"/>
			<point x="520" y="80" type="curve" smooth="yes"/>
			<point x="520" y="88" type="line" smooth="yes"/>
			<point x="520" y="136"/>
			<point x="490" y="168"/>
			<point x="446" y="168" type="curve" smooth="yes"/>
			<point x="274" y="168" type="line"/>
			<point x="470" y="460" type="line"/>
			<point x="504" y="510"/>
			<point x="518" y="532"/>
			<point x="518" y="576" type="curve" smooth="yes"/>
			<point x="518" y="622"/>
			<point x="492" y="648"/>
			<point x="434" y="648" type="curve" smooth="yes"/>
			<point x="122" y="648" type="line" smooth="yes"/>
			<point x="78" y="648"/>
			<point x="48" y="616"/>
			<point x="48" y="568" type="curve" smooth="yes"/>
			<point x="48" y="560" type="line" smooth="yes"/>
			<point x="48" y="512"/>
			<point x="78" y="480"/>
			<point x="122" y="480" type="curve" smooth="yes"/>
			<point x="269" y="480" type="line"/>
			<point x="72" y="188" type="line" smooth="yes"/>
			<point x="38" y="138"/>
			<point x="24" y="116"/>
			<point x="24" y="72" type="curve" smooth="yes"/>
			<point x="24" y="26"/>
			<point x="50" y="0"/>
		</contour>
		<contour>
			<point name="aboveUC" x="285" y="668" type="move"/>
		</contour>
		<contour>
			<point name="baseLC" x="306" y="0" type="move"/>
		</contour>
		<contour>
			<point name="belowLC" x="282" y="-20" type="move"/>
		</contour>
	</outline>
</glyph>
<glyph name="underscore" format="1">
	<unicode hex="005F"/>
	<advance width="500"/>
	<outline>
		<contour>
			<point x="82" y="-186" type="curve"/>
			<point x="418" y="-186" type="line"/>
			<point x="468" y="-186"/>
			<point x="498" y="-168"/>
			<point x="498" y="-116" type="curve"/>
			<point x="498" y="-112" type="line"/>
			<point x="498" y="-60"/>
			<point x="468" y="-42"/>
			<point x="418" y="-42" type="curve"/>
			<point x="82" y="-42" type="line"/>
			<point x="32" y="-42"/>
			<point x="2" y="-60"/>
			<point x="2" y="-112" type="curve"/>
			<point x="2" y="-116" type="line"/>
			<point x="2" y="-168"/>
			<point x="32" y="-186"/>
		</contour>
	</outline>
</glyph>
<glyph name="a" format="1">
	<unicode hex="0061"/>
	<advance width="546"/>
	<outline>
		<contour>
			<point x="186" y="-12" type="curve" smooth="yes"/>
			<point x="238" y="-12"/>
			<point x="279" y="10"/>
			<point x="317" y="45" type="curve"/>
			<point x="321" y="45" type="line"/>
			<point x="334" y="8"/>
			<point x="358" y="-4"/>
			<point x="415" y="-4" type="curve" smooth="yes"/>
			<point x="418" y="-4" type="line" smooth="yes"/>
			<point x="465" y="-4"/>
			<point x="498" y="28"/>
			<point x="498" y="76" type="curve" smooth="yes"/>
			<point x="498" y="272" type="line" smooth="yes"/>
			<point x="498" y="450"/>
			<point x="412" y="516"/>
			<point x="278" y="516" type="curve" smooth="yes"/>
			<point x="126" y="516"/>
			<point x="68" y="476"/>
			<point x="68" y="420" type="curve" smooth="yes"/>
			<point x="68" y="376"/>
			<point x="98" y="342"/>
			<point x="140" y="342" type="curve" smooth="yes"/>
			<point x="174" y="342"/>
			<point x="192" y="360"/>
			<point x="238" y="360" type="curve" smooth="yes"/>
			<point x="271" y="360"/>
			<point x="300" y="357"/>
			<point x="300" y="308" type="curve"/>
			<point x="318" y="326" type="line"/>
			<point x="106" y="312"/>
			<point x="34" y="250"/>
			<point x="34" y="146" type="curve" smooth="yes"/>
			<point x="34" y="66"/>
			<point x="88" y="-12"/>
		</contour>
		<contour>
			<point x="250" y="138" type="curve" smooth="yes"/>
			<point x="232" y="138"/>
			<point x="220" y="148"/>
			<point x="220" y="166" type="curve" smooth="yes"/>
			<point x="220" y="190"/>
			<point x="242" y="210"/>
			<point x="328" y="218" type="curve"/>
			<point x="298" y="242" type="line"/>
			<point x="298" y="160" type="line"/>
			<point x="289" y="148"/>
			<point x="272" y="138"/>
		</contour>
		<contour>
			<point name="ogonekLC" x="363" y="0" type="move"/>
		</contour>
		<contour>
			<point name="aboveLC" x="290" y="524" type="move"/>
		</contour>
		<contour>
			<point name="baseLC" x="443" y="0" type="move"/>
		</contour>
		<contour>
			<point name="belowLC" x="264" y="-20" type="move"/>
		</contour>
	</outline>
</glyph>
<glyph name="b" format="1">
	<unicode hex="0062"/>
	<advance width="588"/>
	<outline>
		<contour>
			<point x="348" y="-12" type="curve" smooth="yes"/>
			<point x="453" y="-12"/>
			<point x="556" y="86"/>
			<point x="556" y="262" type="curve" smooth="yes"/>
			<point x="556" y="416"/>
			<point x="476" y="516"/>
			<point x="360" y="516" type="curve" smooth="yes"/>
			<point x="319" y="516"/>
			<point x="276" y="502"/>
			<point x="244" y="472" type="curve"/>
			<point x="250" y="538" type="line" smooth="yes"/>
			<point x="250" y="614" type="line" smooth="yes"/>
			<point x="250" y="662"/>
			<point x="218" y="694"/>
			<point x="171" y="694" type="curve" smooth="yes"/>
			<point x="130" y="694" type="line" smooth="yes"/>
			<point x="83" y="694"/>
			<point x="50" y="662"/>
			<point x="50" y="614" type="curve" smooth="yes"/>
			<point x="50" y="70" type="line" smooth="yes"/>
			<point x="50" y="23"/>
			<point x="83" y="-10"/>
			<point x="130" y="-10" type="curve"/>
			<point x="126" y="-10" type="line"/>
			<point x="179" y="-10"/>
			<point x="213" y="16"/>
			<point x="228" y="67" type="curve"/>
			<point x="222" y="55" type="line"/>
			<point x="226" y="55" type="line"/>
			<point x="263" y="10"/>
			<point x="305" y="-12"/>
		</contour>
		<contour>
			<point x="294" y="150" type="curve" smooth="yes"/>
			<point x="280" y="150"/>
			<point x="264" y="154"/>
			<point x="250" y="166" type="curve"/>
			<point x="250" y="326" type="line"/>
			<point x="262" y="346"/>
			<point x="278" y="354"/>
			<point x="298" y="354" type="curve" smooth="yes"/>
			<point x="330" y="354"/>
			<point x="352" y="332"/>
			<point x="352" y="250" type="curve" smooth="yes"/>
			<point x="352" y="168"/>
			<point x="322" y="150"/>
		</contour>
		<contour>
			<point name="aboveUC" x="145" y="730" type="move"/>
		</contour>
		<contour>
			<point name="belowLC" x="293" y="-20" type="move"/>
		</contour>
	</outline>
</glyph>
<glyph name="c" format="1">
	<unicode hex="0063"/>
	<advance width="478"/>
	<outline>
		<contour>
			<point x="306" y="516" type="curve" smooth="yes"/>
			<point x="159" y="516"/>
			<point x="28" y="420"/>
			<point x="28" y="252" type="curve" smooth="yes"/>
			<point x="28" y="85"/>
			<point x="141" y="-12"/>
			<point x="287" y="-12" type="curve" smooth="yes"/>
			<point x="392" y="-12"/>
			<point x="450" y="28"/>
			<point x="450" y="78" type="curve" smooth="yes"/>
			<point x="450" y="125"/>
			<point x="422" y="162"/>
			<point x="380" y="162" type="curve" smooth="yes"/>
			<point x="357" y="162"/>
			<point x="343" y="148"/>
			<point x="311" y="148" type="curve" smooth="yes"/>
			<point x="268" y="148"/>
			<point x="232" y="188"/>
			<point x="232" y="252" type="curve" smooth="yes"/>
			<point x="232" y="317"/>
			<point x="262" y="356"/>
			<point x="318" y="356" type="curve" smooth="yes"/>
			<point x="346" y="356"/>
			<point x="357" y="344"/>
			<point x="378" y="344" type="curve" smooth="yes"/>
			<point x="420" y="344"/>
			<point x="448" y="381"/>
			<point x="448" y="428" type="curve" smooth="yes"/>
			<point x="448" y="478"/>
			<point x="396" y="516"/>
		</contour>
		<contour>
			<point name="aboveLC" x="282" y="524" type="move"/>
		</contour>
		<contour>
			<point name="baseLC" x="283" y="0" type="move"/>
		</contour>
		<contour>
			<point name="belowLC" x="271" y="-20" type="move"/>
		</contour>
	</outline>
</glyph>
<glyph name="d" format="1">
	<unicode hex="0064"/>
	<advance width="588"/>
	<outline>
		<contour>
			<point x="290" y="150" type="curve" smooth="yes"/>
			<point x="258" y="150"/>
			<point x="236" y="172"/>
			<point x="236" y="254" type="curve" smooth="yes"/>
			<point x="236" y="336"/>
			<point x="266" y="354"/>
			<point x="294" y="354" type="curve" smooth="yes"/>
			<point x="308" y="354"/>
			<point x="324" y="350"/>
			<point x="338" y="338" type="curve"/>
			<point x="338" y="178" type="line"/>
			<point x="326" y="158"/>
			<point x="310" y="150"/>
		</contour>
		<contour>
			<point x="238" y="-12" type="curve" smooth="yes"/>
			<point x="280" y="-12"/>
			<point x="328" y="10"/>
			<point x="356" y="42" type="curve"/>
			<point x="360" y="42" type="line"/>
			<point x="372" y="6"/>
			<point x="396" y="-4"/>
			<point x="454" y="-4" type="curve" smooth="yes"/>
			<point x="458" y="-4" type="line" smooth="yes"/>
			<point x="505" y="-4"/>
			<point x="538" y="28"/>
			<point x="538" y="76" type="curve"/>
			<point x="538" y="614" type="line" smooth="yes"/>
			<point x="538" y="662"/>
			<point x="505" y="694"/>
			<point x="458" y="694" type="curve" smooth="yes"/>
			<point x="417" y="694" type="line" smooth="yes"/>
			<point x="370" y="694"/>
			<point x="338" y="662"/>
			<point x="338" y="614" type="curve" smooth="yes"/>
			<point x="338" y="538" type="line" smooth="yes"/>
			<point x="346" y="466" type="line"/>
			<point x="320" y="498"/>
			<point x="288" y="516"/>
			<point x="234" y="516" type="curve" smooth="yes"/>
			<point x="128" y="516"/>
			<point x="32" y="418"/>
			<point x="32" y="252" type="curve" smooth="yes"/>
			<point x="32" y="90"/>
			<point x="114" y="-12"/>
		</contour>
		<contour>
			<point name="aboveUC" x="432" y="730" type="move"/>
		</contour>
		<contour>
			<point name="baseLC" x="246" y="0" type="move"/>
		</contour>
		<contour>
			<point name="belowLC" x="302" y="-20" type="move"/>
		</contour>
	</outline>
</glyph>
<glyph name="e" format="1">
	<unicode hex="0065"/>
	<advance width="536"/>
	<outline>
		<contour>
			<point x="294" y="-12" type="curve" smooth="yes"/>
			<point x="420" y="-12"/>
			<point x="468" y="24"/>
			<point x="468" y="76" type="curve" smooth="yes"/>
			<point x="468" y="119"/>
			<point x="440" y="152"/>
			<point x="398" y="152" type="curve" smooth="yes"/>
			<point x="372" y="152"/>
			<point x="359" y="138"/>
			<point x="322" y="138" type="curve" smooth="yes"/>
			<point x="271" y="138"/>
			<point x="208" y="153"/>
			<point x="208" y="252" type="curve" smooth="yes"/>
			<point x="208" y="342"/>
			<point x="242" y="366"/>
			<point x="282" y="366" type="curve" smooth="yes"/>
			<point x="325" y="366"/>
			<point x="338" y="344"/>
			<point x="338" y="289" type="curve"/>
			<point x="361" y="308" type="line"/>
			<point x="184" y="308" type="line"/>
			<point x="184" y="200" type="line"/>
			<point x="412" y="200" type="line" smooth="yes"/>
			<point x="480" y="200"/>
			<point x="500" y="228"/>
			<point x="500" y="270" type="curve" smooth="yes"/>
			<point x="500" y="402"/>
			<point x="430" y="516"/>
			<point x="274" y="516" type="curve" smooth="yes"/>
			<point x="149" y="516"/>
			<point x="28" y="416"/>
			<point x="28" y="252" type="curve" smooth="yes"/>
			<point x="28" y="84"/>
			<point x="142" y="-12"/>
		</contour>
		<contour>
			<point name="ogonekLC" x="344" y="0" type="move"/>
		</contour>
		<contour>
			<point name="aboveLC" x="284" y="524" type="move"/>
		</contour>
		<contour>
			<point name="baseLC" x="274" y="0" type="move"/>
		</contour>
		<contour>
			<point name="belowLC" x="274" y="-20" type="move"/>
		</contour>
	</outline>
</glyph>
<glyph name="f" format="1">
	<unicode hex="0066"/>
	<advance width="382"/>
	<outline>
		<contour>
			<point x="166" y="-4" type="curve" smooth="yes"/>
			<point x="206" y="-4" type="line" smooth="yes"/>
			<point x="253" y="-4"/>
			<point x="286" y="28"/>
			<point x="286" y="76" type="curve" smooth="yes"/>
			<point x="286" y="496" type="line" smooth="yes"/>
			<point x="286" y="538"/>
			<point x="301" y="548"/>
			<point x="320" y="548" type="curve" smooth="yes"/>
			<point x="329" y="548"/>
			<point x="340" y="545"/>
			<point x="349" y="545" type="curve" smooth="yes"/>
			<point x="374" y="545"/>
			<point x="404" y="562"/>
			<point x="404" y="618" type="curve" smooth="yes"/>
			<point x="404" y="673"/>
			<point x="364" y="702"/>
			<point x="290" y="702" type="curve" smooth="yes"/>
			<point x="134" y="702"/>
			<point x="86" y="597"/>
			<point x="86" y="488" type="curve" smooth="yes"/>
			<point x="86" y="76" type="line" smooth="yes"/>
			<point x="86" y="28"/>
			<point x="119" y="-4"/>
		</contour>
		<contour>
			<point x="88" y="350" type="curve"/>
			<point x="294" y="350" type="line" smooth="yes"/>
			<point x="342" y="350"/>
			<point x="374" y="368"/>
			<point x="374" y="420" type="curve"/>
			<point x="374" y="434" type="line"/>
			<point x="374" y="486"/>
			<point x="342" y="504"/>
			<point x="294" y="504" type="curve" smooth="yes"/>
			<point x="88" y="504" type="line" smooth="yes"/>
			<point x="40" y="504"/>
			<point x="8" y="486"/>
			<point x="8" y="434" type="curve"/>
			<point x="8" y="420" type="line"/>
			<point x="8" y="368"/>
			<point x="40" y="350"/>
		</contour>
		<contour>
			<point name="aboveUC" x="262" y="730" type="move"/>
		</contour>
		<contour>
			<point name="baseLC" x="191" y="0" type="move"/>
		</contour>
		<contour>
			<point name="belowLC" x="186" y="-20" type="move"/>
		</contour>
	</outline>
</glyph>
<glyph name="g" format="1">
	<unicode hex="0067"/>
	<advance width="558"/>
	<outline>
		<contour>
			<point x="238" y="-200" type="curve" smooth="yes"/>
			<point x="425" y="-200"/>
			<point x="542" y="-128"/>
			<point x="542" y="-14" type="curve" smooth="yes"/>
			<point x="542" y="82"/>
			<point x="465" y="120"/>
			<point x="336" y="120" type="curve" smooth="yes"/>
			<point x="268" y="120" type="line" smooth="yes"/>
			<point x="222" y="120"/>
			<point x="202" y="124"/>
			<point x="202" y="143" type="curve" smooth="yes"/>
			<point x="202" y="156"/>
			<point x="206" y="162"/>
			<point x="229" y="184" type="curve"/>
			<point x="178" y="167" type="line"/>
			<point x="230" y="160"/>
			<point x="246" y="159"/>
			<point x="259" y="159" type="curve" smooth="yes"/>
			<point x="376" y="159"/>
			<point x="470" y="202"/>
			<point x="470" y="324" type="curve" smooth="yes"/>
			<point x="470" y="346"/>
			<point x="466" y="360"/>
			<point x="460" y="380" type="curve"/>
			<point x="450" y="360" type="line"/>
			<point x="464" y="360" type="line" smooth="yes"/>
			<point x="514" y="360"/>
			<point x="544" y="378"/>
			<point x="544" y="430" type="curve"/>
			<point x="544" y="434" type="line"/>
			<point x="544" y="486"/>
			<point x="514" y="504"/>
			<point x="464" y="504" type="curve" smooth="yes"/>
			<point x="313" y="504" type="line"/>
			<point x="371" y="494" type="line"/>
			<point x="326" y="512"/>
			<point x="290" y="516"/>
			<point x="260" y="516" type="curve" smooth="yes"/>
			<point x="146" y="516"/>
			<point x="36" y="462"/>
			<point x="36" y="332" type="curve" smooth="yes"/>
			<point x="36" y="274"/>
			<point x="68" y="228"/>
			<point x="105" y="204" type="curve"/>
			<point x="105" y="200" type="line"/>
			<point x="68" y="174"/>
			<point x="48" y="137"/>
			<point x="48" y="105" type="curve" smooth="yes"/>
			<point x="48" y="62"/>
			<point x="68" y="36"/>
			<point x="95" y="17" type="curve"/>
			<point x="95" y="13" type="line"/>
			<point x="48" y="-9"/>
			<point x="25" y="-38"/>
			<point x="25" y="-78" type="curve" smooth="yes"/>
			<point x="25" y="-170"/>
			<point x="126" y="-200"/>
		</contour>
		<contour>
			<point x="260" y="276" type="curve" smooth="yes"/>
			<point x="234" y="276"/>
			<point x="220" y="291"/>
			<point x="220" y="332" type="curve" smooth="yes"/>
			<point x="220" y="370"/>
			<point x="234" y="385"/>
			<point x="260" y="385" type="curve" smooth="yes"/>
			<point x="283" y="385"/>
			<point x="298" y="370"/>
			<point x="298" y="332" type="curve" smooth="yes"/>
			<point x="298" y="291"/>
			<point x="284" y="276"/>
		</contour>
		<contour>
			<point x="271" y="-79" type="curve" smooth="yes"/>
			<point x="223" y="-79"/>
			<point x="187" y="-71"/>
			<point x="187" y="-45" type="curve" smooth="yes"/>
			<point x="187" y="-36"/>
			<point x="190" y="-32"/>
			<point x="195" y="-24" type="curve"/>
			<point x="206" y="-27"/>
			<point x="223" y="-29"/>
			<point x="270" y="-29" type="curve" smooth="yes"/>
			<point x="294" y="-29" type="line" smooth="yes"/>
			<point x="331" y="-29"/>
			<point x="352" y="-30"/>
			<point x="352" y="-50" type="curve" smooth="yes"/>
			<point x="352" y="-70"/>
			<point x="316" y="-79"/>
		</contour>
		<contour>
			<point name="aboveLC" x="286" y="524" type="move"/>
		</contour>
		<contour>
			<point name="belowLC" x="286" y="-194" type="move"/>
		</contour>
	</outline>
</glyph>
<glyph name="h" format="1">
	<unicode hex="0068"/>
	<advance width="594"/>
	<outline>
		<contour>
			<point x="130" y="-4" type="curve" smooth="yes"/>
			<point x="170" y="-4" type="line" smooth="yes"/>
			<point x="218" y="-4"/>
			<point x="250" y="28"/>
			<point x="250" y="76" type="curve" smooth="yes"/>
			<point x="250" y="318" type="line"/>
			<point x="268" y="336"/>
			<point x="284" y="346"/>
			<point x="309" y="346" type="curve" smooth="yes"/>
			<point x="333" y="346"/>
			<point x="346" y="332"/>
			<point x="346" y="292" type="curve" smooth="yes"/>
			<point x="346" y="76" type="line" smooth="yes"/>
			<point x="346" y="28"/>
			<point x="378" y="-4"/>
			<point x="426" y="-4" type="curve" smooth="yes"/>
			<point x="466" y="-4" type="line" smooth="yes"/>
			<point x="514" y="-4"/>
			<point x="546" y="28"/>
			<point x="546" y="76" type="curve" smooth="yes"/>
			<point x="546" y="318" type="line" smooth="yes"/>
			<point x="546" y="436"/>
			<point x="500" y="517"/>
			<point x="388" y="516" type="curve" smooth="yes"/>
			<point x="320" y="516"/>
			<point x="272" y="484"/>
			<point x="240" y="454" type="curve"/>
			<point x="250" y="540" type="line" smooth="yes"/>
			<point x="250" y="614" type="line" smooth="yes"/>
			<point x="250" y="662"/>
			<point x="218" y="694"/>
			<point x="170" y="694" type="curve" smooth="yes"/>
			<point x="130" y="694" type="line" smooth="yes"/>
			<point x="82" y="694"/>
			<point x="50" y="662"/>
			<point x="50" y="614" type="curve" smooth="yes"/>
			<point x="50" y="76" type="line"/>
			<point x="50" y="28"/>
			<point x="82" y="-4"/>
		</contour>
		<contour>
			<point name="aboveUC" x="146" y="730" type="move"/>
		</contour>
		<contour>
			<point name="baseLC" x="297" y="0" type="move"/>
		</contour>
		<contour>
			<point name="belowLC" x="304" y="-20" type="move"/>
		</contour>
	</outline>
</glyph>
<glyph name="i" format="1">
	<unicode hex="0069"/>
	<advance width="300"/>
	<outline>
		<contour>
			<point x="50" y="76" type="line" smooth="yes"/>
			<point x="50" y="28"/>
			<point x="82" y="-4"/>
			<point x="130" y="-4" type="curve" smooth="yes"/>
			<point x="170" y="-4" type="line" smooth="yes"/>
			<point x="218" y="-4"/>
			<point x="250" y="28"/>
			<point x="250" y="76" type="curve" smooth="yes"/>
			<point x="250" y="428" type="line" smooth="yes"/>
			<point x="250" y="476"/>
			<point x="218" y="508"/>
			<point x="170" y="508" type="curve" smooth="yes"/>
			<point x="130" y="508" type="line" smooth="yes"/>
			<point x="82" y="508"/>
			<point x="50" y="476"/>
			<point x="50" y="428" type="curve" smooth="yes"/>
		</contour>
		<contour>
			<point x="150" y="554" type="curve" smooth="yes"/>
			<point x="211" y="554"/>
			<point x="254" y="595"/>
			<point x="254" y="650" type="curve" smooth="yes"/>
			<point x="254" y="706"/>
			<point x="211" y="747"/>
			<point x="150" y="747" type="curve" smooth="yes"/>
			<point x="89" y="747"/>
			<point x="46" y="706"/>
			<point x="46" y="650" type="curve" smooth="yes"/>
			<point x="46" y="595"/>
			<point x="89" y="554"/>
		</contour>
		<contour>
			<point name="aboveUC" x="151" y="776" type="move"/>
		</contour>
		<contour>
			<point name="ogonekLC" x="202" y="0" type="move"/>
		</contour>
		<contour>
			<point name="baseLC" x="151" y="0" type="move"/>
		</contour>
		<contour>
			<point name="belowLC" x="151" y="-20" type="move"/>
		</contour>
	</outline>
</glyph>
<glyph name="j" format="1">
	<unicode hex="006A"/>
	<advance width="302"/>
	<outline>
		<contour>
			<point x="52" y="-178" type="curve" smooth="yes"/>
			<point x="206" y="-178"/>
			<point x="254" y="-76"/>
			<point x="254" y="32" type="curve" smooth="yes"/>
			<point x="254" y="428" type="line" smooth="yes"/>
			<point x="254" y="476"/>
			<point x="222" y="508"/>
			<point x="174" y="508" type="curve" smooth="yes"/>
			<point x="134" y="508" type="line" smooth="yes"/>
			<point x="86" y="508"/>
			<point x="54" y="476"/>
			<point x="54" y="428" type="curve" smooth="yes"/>
			<point x="54" y="14" type="line" smooth="yes"/>
			<point x="54" y="-16"/>
			<point x="40" y="-24"/>
			<point x="26" y="-24" type="curve" smooth="yes"/>
			<point x="16" y="-24"/>
			<point x="11" y="-20"/>
			<point x="-4" y="-20" type="curve" smooth="yes"/>
			<point x="-40" y="-20"/>
			<point x="-64" y="-50"/>
			<point x="-64" y="-90" type="curve" smooth="yes"/>
			<point x="-64" y="-144"/>
			<point x="-22" y="-178"/>
		</contour>
		<contour>
			<point x="154" y="554" type="curve" smooth="yes"/>
			<point x="215" y="554"/>
			<point x="258" y="595"/>
			<point x="258" y="650" type="curve" smooth="yes"/>
			<point x="258" y="706"/>
			<point x="215" y="747"/>
			<point x="154" y="747" type="curve" smooth="yes"/>
			<point x="93" y="747"/>
			<point x="50" y="706"/>
			<point x="50" y="650" type="curve" smooth="yes"/>
			<point x="50" y="595"/>
			<point x="93" y="554"/>
		</contour>
		<contour>
			<point name="aboveUC" x="153" y="776" type="move"/>
		</contour>
		<contour>
			<point name="belowLC" x="152" y="-20" type="move"/>
		</contour>
	</outline>
</glyph>
<glyph name="k" format="1">
	<unicode hex="006B"/>
	<advance width="591"/>
	<outline>
		<contour>
			<point x="130" y="-4" type="curve" smooth="yes"/>
			<point x="166" y="-4" type="line" smooth="yes"/>
			<point x="214" y="-4"/>
			<point x="246" y="28"/>
			<point x="246" y="76" type="curve" smooth="yes"/>
			<point x="246" y="118" type="line"/>
			<point x="286" y="160" type="line"/>
			<point x="334" y="66" type="line" smooth="yes"/>
			<point x="360" y="16"/>
			<point x="395" y="-4"/>
			<point x="452" y="-4" type="curve" smooth="yes"/>
			<point x="509" y="-4" type="line" smooth="yes"/>
			<point x="541" y="-4"/>
			<point x="563" y="36"/>
			<point x="546" y="63" type="curve" smooth="yes"/>
			<point x="400" y="292" type="line"/>
			<point x="530" y="447" type="line" smooth="yes"/>
			<point x="548" y="468"/>
			<point x="530" y="508"/>
			<point x="502" y="508" type="curve" smooth="yes"/>
			<point x="446" y="508" type="line" smooth="yes"/>
			<point x="386" y="508"/>
			<point x="353" y="492"/>
			<point x="317" y="445" type="curve" smooth="yes"/>
			<point x="250" y="356" type="line"/>
			<point x="246" y="356" type="line"/>
			<point x="246" y="614" type="line" smooth="yes"/>
			<point x="246" y="662"/>
			<point x="214" y="694"/>
			<point x="166" y="694" type="curve" smooth="yes"/>
			<point x="130" y="694" type="line" smooth="yes"/>
			<point x="82" y="694"/>
			<point x="50" y="662"/>
			<point x="50" y="614" type="curve" smooth="yes"/>
			<point x="50" y="76" type="line" smooth="yes"/>
			<point x="50" y="28"/>
			<point x="82" y="-4"/>
		</contour>
		<contour>
			<point name="aboveUC" x="152" y="730" type="move"/>
		</contour>
		<contour>
			<point name="belowLC" x="314" y="-20" type="move"/>
		</contour>
	</outline>
</glyph>
<glyph name="l" format="1">
	<unicode hex="006C"/>
	<advance width="320"/>
	<outline>
		<contour>
			<point x="206" y="-12" type="curve" smooth="yes"/>
			<point x="284" y="-12"/>
			<point x="312" y="28"/>
			<point x="312" y="78" type="curve" smooth="yes"/>
			<point x="312" y="133"/>
			<point x="285" y="148"/>
			<point x="270" y="148" type="curve" smooth="yes"/>
			<point x="262" y="148"/>
			<point x="250" y="154"/>
			<point x="250" y="174" type="curve" smooth="yes"/>
			<point x="250" y="614" type="line" smooth="yes"/>
			<point x="250" y="662"/>
			<point x="218" y="694"/>
			<point x="170" y="694" type="curve" smooth="yes"/>
			<point x="130" y="694" type="line" smooth="yes"/>
			<point x="82" y="694"/>
			<point x="50" y="662"/>
			<point x="50" y="614" type="curve" smooth="yes"/>
			<point x="50" y="180" type="line" smooth="yes"/>
			<point x="50" y="68"/>
			<point x="88" y="-12"/>
		</contour>
		<contour>
			<point name="aboveUC" x="151" y="730" type="move"/>
		</contour>
		<contour>
			<point name="center" x="150" y="432" type="move"/>
		</contour>
		<contour>
			<point name="baseLC" x="156" y="0" type="move"/>
		</contour>
		<contour>
			<point name="belowLC" x="177" y="-20" type="move"/>
		</contour>
	</outline>
</glyph>
<glyph name="m" format="1">
	<unicode hex="006D"/>
	<advance width="878"/>
	<outline>
		<contour>
			<point x="130" y="-4" type="curve" smooth="yes"/>
			<point x="170" y="-4" type="line" smooth="yes"/>
			<point x="220" y="-4"/>
			<point x="250" y="28"/>
			<point x="250" y="76" type="curve" smooth="yes"/>
			<point x="250" y="320" type="line"/>
			<point x="270" y="339"/>
			<point x="290" y="347"/>
			<point x="304" y="347" type="curve" smooth="yes"/>
			<point x="329" y="347"/>
			<point x="340" y="338"/>
			<point x="340" y="282" type="curve" smooth="yes"/>
			<point x="340" y="76" type="line" smooth="yes"/>
			<point x="340" y="29"/>
			<point x="373" y="-4"/>
			<point x="420" y="-4" type="curve" smooth="yes"/>
			<point x="460" y="-4" type="line" smooth="yes"/>
			<point x="507" y="-4"/>
			<point x="540" y="29"/>
			<point x="540" y="76" type="curve" smooth="yes"/>
			<point x="540" y="320" type="line"/>
			<point x="560" y="339"/>
			<point x="579" y="347"/>
			<point x="594" y="347" type="curve" smooth="yes"/>
			<point x="619" y="347"/>
			<point x="630" y="338"/>
			<point x="630" y="282" type="curve" smooth="yes"/>
			<point x="630" y="76" type="line" smooth="yes"/>
			<point x="630" y="29"/>
			<point x="663" y="-4"/>
			<point x="710" y="-4" type="curve" smooth="yes"/>
			<point x="750" y="-4" type="line" smooth="yes"/>
			<point x="797" y="-4"/>
			<point x="830" y="29"/>
			<point x="830" y="76" type="curve" smooth="yes"/>
			<point x="830" y="308" type="line" smooth="yes"/>
			<point x="830" y="432"/>
			<point x="782" y="516"/>
			<point x="668" y="516" type="curve" smooth="yes"/>
			<point x="598" y="516"/>
			<point x="556" y="478"/>
			<point x="518" y="440" type="curve"/>
			<point x="489" y="491"/>
			<point x="445" y="516"/>
			<point x="379" y="516" type="curve" smooth="yes"/>
			<point x="310" y="516"/>
			<point x="268" y="482"/>
			<point x="234" y="446" type="curve"/>
			<point x="230" y="446" type="line"/>
			<point x="218" y="496"/>
			<point x="196" y="508"/>
			<point x="144" y="508" type="curve" smooth="yes"/>
			<point x="130" y="508" type="line" smooth="yes"/>
			<point x="82" y="508"/>
			<point x="50" y="476"/>
			<point x="50" y="428" type="curve" smooth="yes"/>
			<point x="50" y="76" type="line" smooth="yes"/>
			<point x="50" y="28"/>
			<point x="82" y="-4"/>
		</contour>
		<contour>
			<point name="aboveLC" x="459" y="524" type="move"/>
		</contour>
		<contour>
			<point name="baseLC" x="795" y="0" type="move"/>
		</contour>
		<contour>
			<point name="belowLC" x="445" y="-20" type="move"/>
		</contour>
	</outline>
</glyph>
<glyph name="n" format="1">
	<unicode hex="006E"/>
	<advance width="594"/>
	<outline>
		<contour>
			<point x="130" y="-4" type="curve" smooth="yes"/>
			<point x="170" y="-4" type="line" smooth="yes"/>
			<point x="218" y="-4"/>
			<point x="250" y="28"/>
			<point x="250" y="76" type="curve" smooth="yes"/>
			<point x="250" y="318" type="line"/>
			<point x="268" y="336"/>
			<point x="284" y="346"/>
			<point x="309" y="346" type="curve" smooth="yes"/>
			<point x="333" y="346"/>
			<point x="346" y="332"/>
			<point x="346" y="292" type="curve" smooth="yes"/>
			<point x="346" y="76" type="line" smooth="yes"/>
			<point x="346" y="28"/>
			<point x="378" y="-4"/>
			<point x="426" y="-4" type="curve" smooth="yes"/>
			<point x="466" y="-4" type="line" smooth="yes"/>
			<point x="514" y="-4"/>
			<point x="546" y="28"/>
			<point x="546" y="76" type="curve" smooth="yes"/>
			<point x="546" y="318" type="line" smooth="yes"/>
			<point x="546" y="436"/>
			<point x="500" y="516"/>
			<point x="388" y="516" type="curve" smooth="yes"/>
			<point x="320" y="516"/>
			<point x="270" y="486"/>
			<point x="234" y="446" type="curve"/>
			<point x="230" y="446" type="line"/>
			<point x="218" y="496"/>
			<point x="196" y="508"/>
			<point x="144" y="508" type="curve" smooth="yes"/>
			<point x="130" y="508" type="line" smooth="yes"/>
			<point x="82" y="508"/>
			<point x="50" y="476"/>
			<point x="50" y="428" type="curve"/>
			<point x="50" y="76" type="line" smooth="yes"/>
			<point x="50" y="28"/>
			<point x="82" y="-4"/>
		</contour>
		<contour>
			<point name="aboveLC" x="328" y="524" type="move"/>
		</contour>
		<contour>
			<point name="baseLC" x="475" y="0" type="move"/>
		</contour>
		<contour>
			<point name="belowLC" x="306" y="-20" type="move"/>
		</contour>
	</outline>
</glyph>
<glyph name="o" format="1">
	<unicode hex="006F"/>
	<advance width="564"/>
	<outline>
		<contour>
			<point x="282" y="-12" type="curve" smooth="yes"/>
			<point x="416" y="-12"/>
			<point x="536" y="82"/>
			<point x="536" y="252" type="curve" smooth="yes"/>
			<point x="536" y="422"/>
			<point x="416" y="516"/>
			<point x="282" y="516" type="curve" smooth="yes"/>
			<point x="148" y="516"/>
			<point x="28" y="422"/>
			<point x="28" y="252" type="curve" smooth="yes"/>
			<point x="28" y="82"/>
			<point x="148" y="-12"/>
		</contour>
		<contour>
			<point x="282" y="148" type="curve" smooth="yes"/>
			<point x="246" y="148"/>
			<point x="232" y="180"/>
			<point x="232" y="252" type="curve" smooth="yes"/>
			<point x="232" y="326"/>
			<point x="246" y="356"/>
			<point x="282" y="356" type="curve" smooth="yes"/>
			<point x="318" y="356"/>
			<point x="332" y="326"/>
			<point x="332" y="252" type="curve" smooth="yes"/>
			<point x="332" y="180"/>
			<point x="318" y="148"/>
		</contour>
		<contour>
			<point name="hornLC" x="377" y="504" type="move"/>
		</contour>
		<contour>
			<point name="aboveLC" x="282" y="524" type="move"/>
		</contour>
		<contour>
			<point name="ogonekLC" x="282" y="0" type="move"/>
		</contour>
		<contour>
			<point name="baseLC" x="282" y="0" type="move"/>
		</contour>
		<contour>
			<point name="belowLC" x="282" y="-20" type="move"/>
		</contour>
	</outline>
</glyph>
<glyph name="p" format="1">
	<unicode hex="0070"/>
	<advance width="588"/>
	<outline>
		<contour>
			<point x="294" y="150" type="curve" smooth="yes"/>
			<point x="280" y="150"/>
			<point x="264" y="154"/>
			<point x="250" y="166" type="curve"/>
			<point x="250" y="326" type="line"/>
			<point x="262" y="346"/>
			<point x="278" y="354"/>
			<point x="298" y="354" type="curve" smooth="yes"/>
			<point x="330" y="354"/>
			<point x="352" y="332"/>
			<point x="352" y="250" type="curve" smooth="yes"/>
			<point x="352" y="168"/>
			<point x="322" y="150"/>
		</contour>
		<contour>
			<point x="130" y="-170" type="curve" smooth="yes"/>
			<point x="170" y="-170" type="line" smooth="yes"/>
			<point x="218" y="-170"/>
			<point x="250" y="-138"/>
			<point x="250" y="-90" type="curve" smooth="yes"/>
			<point x="250" y="-36" type="line" smooth="yes"/>
			<point x="242" y="38" type="line"/>
			<point x="270" y="8"/>
			<point x="308" y="-12"/>
			<point x="348" y="-12" type="curve" smooth="yes"/>
			<point x="454" y="-12"/>
			<point x="556" y="86"/>
			<point x="556" y="260" type="curve" smooth="yes"/>
			<point x="556" y="416"/>
			<point x="477" y="516"/>
			<point x="360" y="516" type="curve" smooth="yes"/>
			<point x="310" y="516"/>
			<point x="270" y="494"/>
			<point x="233" y="456" type="curve"/>
			<point x="229" y="456" type="line"/>
			<point x="214" y="496"/>
			<point x="196" y="508"/>
			<point x="144" y="508" type="curve" smooth="yes"/>
			<point x="130" y="508" type="line" smooth="yes"/>
			<point x="82" y="508"/>
			<point x="50" y="476"/>
			<point x="50" y="428" type="curve"/>
			<point x="50" y="-90" type="line" smooth="yes"/>
			<point x="50" y="-138"/>
			<point x="82" y="-170"/>
		</contour>
		<contour>
			<point name="aboveLC" x="316" y="524" type="move"/>
		</contour>
		<contour>
			<point name="belowLC" x="146" y="-194" type="move"/>
		</contour>
	</outline>
</glyph>
<glyph name="q" format="1">
	<unicode hex="0071"/>
	<advance width="588"/>
	<outline>
		<contour>
			<point x="337" y="-90" type="line" smooth="yes"/>
			<point x="337" y="-137"/>
			<point x="370" y="-170"/>
			<point x="417" y="-170" type="curve" smooth="yes"/>
			<point x="458" y="-170" type="line" smooth="yes"/>
			<point x="505" y="-170"/>
			<point x="538" y="-137"/>
			<point x="538" y="-90" type="curve" smooth="yes"/>
			<point x="538" y="424" type="line" smooth="yes"/>
			<point x="538" y="471"/>
			<point x="505" y="504"/>
			<point x="458" y="504" type="curve"/>
			<point x="462" y="504" type="line"/>
			<point x="408" y="504"/>
			<point x="374" y="479"/>
			<point x="358" y="428" type="curve"/>
			<point x="366" y="453" type="line"/>
			<point x="362" y="453" type="line"/>
			<point x="325" y="499"/>
			<point x="286" y="516"/>
			<point x="234" y="516" type="curve" smooth="yes"/>
			<point x="135" y="516"/>
			<point x="32" y="418"/>
			<point x="32" y="252" type="curve" smooth="yes"/>
			<point x="32" y="90"/>
			<point x="113" y="-12"/>
			<point x="238" y="-12" type="curve" smooth="yes"/>
			<point x="272" y="-12"/>
			<point x="317" y="5"/>
			<point x="344" y="32" type="curve"/>
			<point x="337" y="-33" type="line" smooth="yes"/>
		</contour>
		<contour>
			<point x="292" y="150" type="curve" smooth="yes"/>
			<point x="259" y="150"/>
			<point x="237" y="173"/>
			<point x="237" y="255" type="curve" smooth="yes"/>
			<point x="237" y="336"/>
			<point x="262" y="354"/>
			<point x="285" y="354" type="curve" smooth="yes"/>
			<point x="302" y="354"/>
			<point x="324" y="350"/>
			<point x="337" y="338" type="curve"/>
			<point x="337" y="177" type="line"/>
			<point x="326" y="154"/>
			<point x="312" y="150"/>
		</contour>
		<contour>
			<point name="aboveLC" x="319" y="524" type="move"/>
		</contour>
		<contour>
			<point name="belowLC" x="430" y="-194" type="move"/>
		</contour>
	</outline>
</glyph>
<glyph name="s" format="1">
	<unicode hex="0073"/>
	<advance width="462"/>
	<outline>
		<contour>
			<point x="214" y="-12" type="curve" smooth="yes"/>
			<point x="362" y="-12"/>
			<point x="438" y="62"/>
			<point x="438" y="161" type="curve" smooth="yes"/>
			<point x="438" y="249"/>
			<point x="388" y="280"/>
			<point x="316" y="310" type="curve" smooth="yes"/>
			<point x="268" y="330"/>
			<point x="228" y="335"/>
			<point x="228" y="356" type="curve" smooth="yes"/>
			<point x="228" y="370"/>
			<point x="238" y="374"/>
			<point x="256" y="374" type="curve" smooth="yes"/>
			<point x="286" y="374"/>
			<point x="320" y="350"/>
			<point x="352" y="350" type="curve" smooth="yes"/>
			<point x="394" y="350"/>
			<point x="422" y="382"/>
			<point x="422" y="426" type="curve" smooth="yes"/>
			<point x="422" y="480"/>
			<point x="354" y="516"/>
			<point x="250" y="516" type="curve" smooth="yes"/>
			<point x="128" y="516"/>
			<point x="42" y="452"/>
			<point x="42" y="348" type="curve" smooth="yes"/>
			<point x="42" y="266"/>
			<point x="106" y="220"/>
			<point x="162" y="196" type="curve" smooth="yes"/>
			<point x="210" y="176"/>
			<point x="252" y="168"/>
			<point x="252" y="148" type="curve" smooth="yes"/>
			<point x="252" y="136"/>
			<point x="244" y="130"/>
			<point x="218" y="130" type="curve" smooth="yes"/>
			<point x="172" y="130"/>
			<point x="146" y="158"/>
			<point x="110" y="158" type="curve" smooth="yes"/>
			<point x="68" y="158"/>
			<point x="40" y="126"/>
			<point x="40" y="82" type="curve" smooth="yes"/>
			<point x="40" y="26"/>
			<point x="108" y="-12"/>
		</contour>
		<contour>
			<point name="aboveLC" x="250" y="524" type="move"/>
		</contour>
		<contour>
			<point name="baseLC" x="233" y="0" type="move"/>
		</contour>
		<contour>
			<point name="belowLC" x="233" y="-20" type="move"/>
		</contour>
	</outline>
</glyph>
<glyph name="t" format="1">
	<unicode hex="0074"/>
	<advance width="420"/>
	<outline>
		<contour>
			<point x="262" y="-12" type="curve" smooth="yes"/>
			<point x="365" y="-12"/>
			<point x="404" y="18"/>
			<point x="404" y="74" type="curve" smooth="yes"/>
			<point x="404" y="132"/>
			<point x="378" y="146"/>
			<point x="346" y="146" type="curve" smooth="yes"/>
			<point x="336" y="146"/>
			<point x="328" y="144"/>
			<point x="320" y="144" type="curve" smooth="yes"/>
			<point x="300" y="144"/>
			<point x="274" y="158"/>
			<point x="274" y="210" type="curve" smooth="yes"/>
			<point x="274" y="350" type="line"/>
			<point x="314" y="350" type="line"/>
			<point x="362" y="350"/>
			<point x="394" y="368"/>
			<point x="394" y="420" type="curve"/>
			<point x="394" y="434" type="line"/>
			<point x="394" y="486"/>
			<point x="362" y="504"/>
			<point x="314" y="504" type="curve"/>
			<point x="274" y="504" type="line"/>
			<point x="274" y="572" type="line" smooth="yes"/>
			<point x="274" y="622"/>
			<point x="255" y="642"/>
			<point x="204" y="642" type="curve" smooth="yes"/>
			<point x="178" y="642" type="line" smooth="yes"/>
			<point x="134" y="642"/>
			<point x="110" y="624"/>
			<point x="100" y="574" type="curve" smooth="yes"/>
			<point x="86" y="504" type="line"/>
			<point x="24" y="498"/>
			<point x="0" y="484"/>
			<point x="0" y="430" type="curve"/>
			<point x="0" y="420" type="line"/>
			<point x="0" y="368"/>
			<point x="26" y="350"/>
			<point x="72" y="350" type="curve"/>
			<point x="74" y="350" type="line"/>
			<point x="74" y="206" type="line" smooth="yes"/>
			<point x="74" y="74"/>
			<point x="132" y="-12"/>
		</contour>
		<contour>
			<point name="aboveLC" x="186" y="666" type="move"/>
		</contour>
		<contour>
			<point name="baseLC" x="248" y="0" type="move"/>
		</contour>
		<contour>
			<point name="belowLC" x="237" y="-20" type="move"/>
		</contour>
	</outline>
</glyph>
<glyph name="u" format="1">
	<unicode hex="0075"/>
	<advance width="586"/>
	<outline>
		<contour>
			<point x="355" y="52" type="line"/>
			<point x="369" y="2"/>
			<point x="394" y="-10"/>
			<point x="453" y="-10" type="curve" smooth="yes"/>
			<point x="456" y="-10" type="line" smooth="yes"/>
			<point x="504" y="-10"/>
			<point x="536" y="22"/>
			<point x="536" y="70" type="curve"/>
			<point x="536" y="434" type="line" smooth="yes"/>
			<point x="536" y="482"/>
			<point x="504" y="514"/>
			<point x="456" y="514" type="curve" smooth="yes"/>
			<point x="416" y="514" type="line" smooth="yes"/>
			<point x="368" y="514"/>
			<point x="336" y="482"/>
			<point x="336" y="434" type="curve" smooth="yes"/>
			<point x="336" y="182" type="line"/>
			<point x="318" y="164"/>
			<point x="308" y="158"/>
			<point x="285" y="158" type="curve" smooth="yes"/>
			<point x="261" y="158"/>
			<point x="248" y="172"/>
			<point x="248" y="212" type="curve" smooth="yes"/>
			<point x="248" y="434" type="line" smooth="yes"/>
			<point x="248" y="482"/>
			<point x="216" y="514"/>
			<point x="168" y="514" type="curve" smooth="yes"/>
			<point x="128" y="514" type="line" smooth="yes"/>
			<point x="80" y="514"/>
			<point x="48" y="482"/>
			<point x="48" y="434" type="curve" smooth="yes"/>
			<point x="48" y="186" type="line" smooth="yes"/>
			<point x="48" y="68"/>
			<point x="94" y="-12"/>
			<point x="206" y="-12" type="curve" smooth="yes"/>
			<point x="270" y="-12"/>
			<point x="316" y="14"/>
			<point x="351" y="52" type="curve"/>
		</contour>
		<contour>
			<point name="ogonekLC" x="409" y="0" type="move"/>
		</contour>
		<contour>
			<point name="aboveLC" x="306" y="524" type="move"/>
		</contour>
		<contour>
			<point name="baseLC" x="486" y="0" type="move"/>
		</contour>
		<contour>
			<point name="belowLC" x="290" y="-20" type="move"/>
		</contour>
	</outline>
</glyph>
<glyph name="v" format="1">
	<unicode hex="0076"/>
	<advance width="568"/>
	<outline>
		<contour>
			<point x="148" y="76" type="line" smooth="yes"/>
			<point x="164" y="25"/>
			<point x="198" y="0"/>
			<point x="252" y="0" type="curve" smooth="yes"/>
			<point x="323" y="0" type="line" smooth="yes"/>
			<point x="377" y="0"/>
			<point x="410" y="25"/>
			<point x="426" y="77" type="curve" smooth="yes"/>
			<point x="533" y="427" type="line" smooth="yes"/>
			<point x="545" y="465"/>
			<point x="516" y="504"/>
			<point x="476" y="504" type="curve" smooth="yes"/>
			<point x="446" y="504" type="line" smooth="yes"/>
			<point x="394" y="504"/>
			<point x="359" y="476"/>
			<point x="349" y="426" type="curve" smooth="yes"/>
			<point x="324" y="305" type="line" smooth="yes"/>
			<point x="313" y="254"/>
			<point x="302" y="201"/>
			<point x="291" y="145" type="curve"/>
			<point x="287" y="145" type="line"/>
			<point x="276" y="201"/>
			<point x="265" y="254"/>
			<point x="254" y="305" type="curve" smooth="yes"/>
			<point x="229" y="426" type="line" smooth="yes"/>
			<point x="219" y="476"/>
			<point x="184" y="504"/>
			<point x="132" y="504" type="curve" smooth="yes"/>
			<point x="92" y="504" type="line" smooth="yes"/>
			<point x="53" y="504"/>
			<point x="24" y="465"/>
			<point x="36" y="428" type="curve" smooth="yes"/>
		</contour>
		<contour>
			<point name="aboveLC" x="286" y="524" type="move"/>
		</contour>
		<contour>
			<point name="belowLC" x="286" y="-20" type="move"/>
		</contour>
	</outline>
</glyph>
<glyph name="w" format="1">
	<unicode hex="0077"/>
	<advance width="823"/>
	<outline>
		<contour>
			<point x="121" y="68" type="line" smooth="yes"/>
			<point x="132" y="17"/>
			<point x="167" y="-10"/>
			<point x="219" y="-10" type="curve" smooth="yes"/>
			<point x="287" y="-10" type="line" smooth="yes"/>
			<point x="338" y="-10"/>
			<point x="371" y="19"/>
			<point x="379" y="69" type="curve" smooth="yes"/>
			<point x="390" y="137" type="line" smooth="yes"/>
			<point x="398" y="189"/>
			<point x="400" y="241"/>
			<point x="408" y="306" type="curve"/>
			<point x="412" y="306" type="line"/>
			<point x="420" y="242"/>
			<point x="425" y="188"/>
			<point x="434" y="136" type="curve" smooth="yes"/>
			<point x="445" y="69" type="line" smooth="yes"/>
			<point x="453" y="19"/>
			<point x="488" y="-10"/>
			<point x="539" y="-10" type="curve" smooth="yes"/>
			<point x="610" y="-10" type="line" smooth="yes"/>
			<point x="662" y="-10"/>
			<point x="697" y="17"/>
			<point x="707" y="68" type="curve" smooth="yes"/>
			<point x="782" y="436" type="line" smooth="yes"/>
			<point x="790" y="477"/>
			<point x="761" y="514"/>
			<point x="719" y="514" type="curve" smooth="yes"/>
			<point x="696" y="514" type="line" smooth="yes"/>
			<point x="645" y="514"/>
			<point x="611" y="485"/>
			<point x="604" y="435" type="curve" smooth="yes"/>
			<point x="588" y="327" type="line" smooth="yes"/>
			<point x="579" y="270"/>
			<point x="579" y="210"/>
			<point x="572" y="150" type="curve"/>
			<point x="568" y="150" type="line"/>
			<point x="556" y="210"/>
			<point x="551" y="270"/>
			<point x="539" y="327" type="curve" smooth="yes"/>
			<point x="516" y="436" type="line" smooth="yes"/>
			<point x="505" y="486"/>
			<point x="472" y="514"/>
			<point x="420" y="514" type="curve" smooth="yes"/>
			<point x="413" y="514" type="line" smooth="yes"/>
			<point x="361" y="514"/>
			<point x="327" y="486"/>
			<point x="317" y="436" type="curve" smooth="yes"/>
			<point x="296" y="327" type="line" smooth="yes"/>
			<point x="285" y="271"/>
			<point x="277" y="210"/>
			<point x="270" y="150" type="curve"/>
			<point x="266" y="150" type="line"/>
			<point x="258" y="210"/>
			<point x="257" y="270"/>
			<point x="248" y="327" type="curve" smooth="yes"/>
			<point x="232" y="435" type="line" smooth="yes"/>
			<point x="225" y="485"/>
			<point x="191" y="514"/>
			<point x="141" y="514" type="curve" smooth="yes"/>
			<point x="104" y="514" type="line" smooth="yes"/>
			<point x="62" y="514"/>
			<point x="33" y="477"/>
			<point x="42" y="436" type="curve" smooth="yes"/>
		</contour>
		<contour>
			<point name="aboveLC" x="413" y="524" type="move"/>
		</contour>
		<contour>
			<point name="belowLC" x="413" y="-20" type="move"/>
		</contour>
	</outline>
</glyph>
<glyph name="x" format="1">
	<unicode hex="0078"/>
	<advance width="570"/>
	<outline>
		<contour>
			<point x="53" y="70" type="line" smooth="yes"/>
			<point x="36" y="40"/>
			<point x="60" y="0"/>
			<point x="94" y="0" type="curve" smooth="yes"/>
			<point x="141" y="0" type="line" smooth="yes"/>
			<point x="194" y="0"/>
			<point x="228" y="26"/>
			<point x="243" y="77" type="curve"/>
			<point x="237" y="56" type="line"/>
			<point x="246" y="85"/>
			<point x="257" y="114"/>
			<point x="266" y="142" type="curve"/>
			<point x="270" y="142" type="line"/>
			<point x="284" y="114"/>
			<point x="297" y="84"/>
			<point x="312" y="56" type="curve"/>
			<point x="304" y="71" type="line"/>
			<point x="331" y="20"/>
			<point x="365" y="0"/>
			<point x="422" y="0" type="curve" smooth="yes"/>
			<point x="476" y="0" type="line" smooth="yes"/>
			<point x="508" y="0"/>
			<point x="531" y="40"/>
			<point x="514" y="68" type="curve" smooth="yes"/>
			<point x="408" y="238" type="line"/>
			<point x="512" y="433" type="line" smooth="yes"/>
			<point x="528" y="464"/>
			<point x="503" y="504"/>
			<point x="469" y="504" type="curve" smooth="yes"/>
			<point x="422" y="504" type="line" smooth="yes"/>
			<point x="370" y="504"/>
			<point x="336" y="477"/>
			<point x="325" y="426" type="curve"/>
			<point x="329" y="446" type="line"/>
			<point x="322" y="418"/>
			<point x="310" y="387"/>
			<point x="303" y="358" type="curve"/>
			<point x="299" y="358" type="line"/>
			<point x="287" y="387"/>
			<point x="274" y="418"/>
			<point x="262" y="446" type="curve"/>
			<point x="269" y="431" type="line"/>
			<point x="245" y="482"/>
			<point x="211" y="504"/>
			<point x="155" y="504" type="curve" smooth="yes"/>
			<point x="101" y="504" type="line" smooth="yes"/>
			<point x="68" y="504"/>
			<point x="44" y="464"/>
			<point x="61" y="435" type="curve" smooth="yes"/>
			<point x="161" y="262" type="line"/>
		</contour>
		<contour>
			<point name="aboveLC" x="285" y="524" type="move"/>
		</contour>
		<contour>
			<point name="baseLC" x="477" y="0" type="move"/>
		</contour>
		<contour>
			<point name="belowLC" x="285" y="-20" type="move"/>
		</contour>
	</outline>
</glyph>
<glyph name="y" format="1">
	<unicode hex="0079"/>
	<advance width="566"/>
	<outline>
		<contour>
			<point x="164" y="-180" type="curve" smooth="yes"/>
			<point x="287" y="-180"/>
			<point x="339" y="-124"/>
			<point x="390" y="23" type="curve" smooth="yes"/>
			<point x="526" y="418" type="line" smooth="yes"/>
			<point x="530" y="430"/>
			<point x="532" y="440"/>
			<point x="532" y="450" type="curve" smooth="yes"/>
			<point x="532" y="492"/>
			<point x="502" y="514"/>
			<point x="464" y="514" type="curve" smooth="yes"/>
			<point x="434" y="514" type="line" smooth="yes"/>
			<point x="388" y="514"/>
			<point x="360" y="490"/>
			<point x="350" y="446" type="curve" smooth="yes"/>
			<point x="326" y="336" type="line" smooth="yes"/>
			<point x="316" y="292"/>
			<point x="304" y="244"/>
			<point x="296" y="192" type="curve"/>
			<point x="292" y="192" type="line"/>
			<point x="281" y="244"/>
			<point x="270" y="292"/>
			<point x="258" y="336" type="curve" smooth="yes"/>
			<point x="228" y="446" type="line" smooth="yes"/>
			<point x="216" y="490"/>
			<point x="190" y="514"/>
			<point x="144" y="514" type="curve" smooth="yes"/>
			<point x="106" y="514" type="line" smooth="yes"/>
			<point x="68" y="514"/>
			<point x="38" y="492"/>
			<point x="38" y="452" type="curve" smooth="yes"/>
			<point x="38" y="442"/>
			<point x="40" y="432"/>
			<point x="44" y="422" type="curve" smooth="yes"/>
			<point x="202" y="24" type="line"/>
			<point x="198" y="6" type="line" smooth="yes"/>
			<point x="192" y="-20"/>
			<point x="179" y="-26"/>
			<point x="160" y="-26" type="curve" smooth="yes"/>
			<point x="150" y="-26"/>
			<point x="144" y="-24"/>
			<point x="130" y="-24" type="curve" smooth="yes"/>
			<point x="92" y="-24"/>
			<point x="68" y="-53"/>
			<point x="68" y="-92" type="curve" smooth="yes"/>
			<point x="68" y="-146"/>
			<point x="103" y="-180"/>
		</contour>
		<contour>
			<point name="ogonekLC" x="282" y="0" type="move"/>
		</contour>
		<contour>
			<point name="aboveLC" x="291" y="524" type="move"/>
		</contour>
		<contour>
			<point name="belowLC" x="276" y="-194" type="move"/>
		</contour>
	</outline>
</glyph>
<glyph name="z" format="1">
	<unicode hex="007A"/>
	<advance width="490"/>
	<outline>
		<contour>
			<point x="390" y="504" type="curve" smooth="yes"/>
			<point x="132" y="504" type="line"/>
			<point x="84" y="504"/>
			<point x="52" y="486"/>
			<point x="52" y="434" type="curve"/>
			<point x="52" y="420" type="line"/>
			<point x="52" y="368"/>
			<point x="84" y="350"/>
			<point x="132" y="350" type="curve"/>
			<point x="242" y="350" type="line"/>
			<point x="230" y="376" type="line"/>
			<point x="88" y="174" type="line" smooth="yes"/>
			<point x="58" y="132"/>
			<point x="44" y="108"/>
			<point x="44" y="66" type="curve" smooth="yes"/>
			<point x="44" y="24"/>
			<point x="66" y="0"/>
			<point x="114" y="0" type="curve" smooth="yes"/>
			<point x="396" y="0" type="line"/>
			<point x="444" y="0"/>
			<point x="476" y="18"/>
			<point x="476" y="70" type="curve"/>
			<point x="476" y="84" type="line"/>
			<point x="476" y="136"/>
			<point x="444" y="154"/>
			<point x="396" y="154" type="curve"/>
			<point x="262" y="154" type="line"/>
			<point x="274" y="128" type="line"/>
			<point x="416" y="330" type="line" smooth="yes"/>
			<point x="446" y="372"/>
			<point x="460" y="396"/>
			<point x="460" y="438" type="curve" smooth="yes"/>
			<point x="460" y="480"/>
			<point x="438" y="504"/>
		</contour>
		<contour>
			<point name="aboveLC" x="269" y="524" type="move"/>
		</contour>
		<contour>
			<point name="baseLC" x="260" y="0" type="move"/>
		</contour>
		<contour>
			<point name="belowLC" x="257" y="-20" type="move"/>
		</contour>
	</outline>
</glyph>
<glyph name="copyright" format="1">
	<unicode hex="00A9"/>
	<advance width="1000"/>
	<outline>
		<contour>
			<point x="519" y="112" type="curve" smooth="yes"/>
			<point x="377" y="112"/>
			<point x="265" y="206"/>
			<point x="265" y="383" type="curve" smooth="yes"/>
			<point x="265" y="556"/>
			<point x="382" y="658"/>
			<point x="527" y="658" type="curve" smooth="yes"/>
			<point x="595" y="658"/>
			<point x="651" y="627"/>
			<point x="674" y="605" type="curve" smooth="yes"/>
			<point x="683" y="597"/>
			<point x="683" y="585"/>
			<point x="675" y="576" type="curve" smooth="yes"/>
			<point x="642" y="540" type="line" smooth="yes"/>
			<point x="634" y="532"/>
			<point x="623" y="531"/>
			<point x="614" y="539" type="curve" smooth="yes"/>
			<point x="600" y="552"/>
			<point x="570" y="569"/>
			<point x="529" y="569" type="curve" smooth="yes"/>
			<point x="439" y="569"/>
			<point x="377" y="500"/>
			<point x="377" y="387" type="curve" smooth="yes"/>
			<point x="377" y="270"/>
			<point x="433" y="203"/>
			<point x="525" y="203" type="curve" smooth="yes"/>
			<point x="573" y="203"/>
			<point x="609" y="222"/>
			<point x="625" y="239" type="curve" smooth="yes"/>
			<point x="633" y="247"/>
			<point x="645" y="247"/>
			<point x="653" y="238" type="curve" smooth="yes"/>
			<point x="684" y="204" type="line" smooth="yes"/>
			<point x="693" y="195"/>
			<point x="693" y="183"/>
			<point x="684" y="174" type="curve" smooth="yes"/>
			<point x="650" y="139"/>
			<point x="591" y="112"/>
		</contour>
		<contour>
			<point x="500" y="-94" type="curve" smooth="yes"/>
			<point x="774" y="-94"/>
			<point x="972" y="106"/>
			<point x="972" y="380" type="curve" smooth="yes"/>
			<point x="972" y="654"/>
			<point x="774" y="854"/>
			<point x="500" y="854" type="curve" smooth="yes"/>
			<point x="226" y="854"/>
			<point x="28" y="654"/>
			<point x="28" y="380" type="curve" smooth="yes"/>
			<point x="28" y="106"/>
			<point x="226" y="-94"/>
		</contour>
		<contour>
			<point x="500" y="-12" type="curve" smooth="yes"/>
			<point x="276" y="-12"/>
			<point x="118" y="150"/>
			<point x="118" y="380" type="curve" smooth="yes"/>
			<point x="118" y="610"/>
			<point x="276" y="772"/>
			<point x="500" y="772" type="curve" smooth="yes"/>
			<point x="724" y="772"/>
			<point x="882" y="610"/>
			<point x="882" y="380" type="curve" smooth="yes"/>
			<point x="882" y="150"/>
			<point x="724" y="-12"/>
		</contour>
	</outline>
</glyph>
<glyph name="registered" format="1">
	<unicode hex="00AE"/>
	<advance width="1000"/>
	<outline>
		<contour>
			<point x="335" y="124" type="line" smooth="yes"/>
			<point x="323" y="124"/>
			<point x="315" y="132"/>
			<point x="315" y="144" type="curve" smooth="yes"/>
			<point x="315" y="626" type="line" smooth="yes"/>
			<point x="315" y="638"/>
			<point x="323" y="646"/>
			<point x="335" y="646" type="curve" smooth="yes"/>
			<point x="506" y="646" type="line" smooth="yes"/>
			<point x="624" y="646"/>
			<point x="715" y="608"/>
			<point x="715" y="487" type="curve" smooth="yes"/>
			<point x="715" y="411"/>
			<point x="673" y="361"/>
			<point x="606" y="338" type="curve"/>
			<point x="728" y="141" type="line" smooth="yes"/>
			<point x="732" y="134"/>
			<point x="726" y="124"/>
			<point x="718" y="124" type="curve" smooth="yes"/>
			<point x="643" y="124" type="line" smooth="yes"/>
			<point x="629" y="124"/>
			<point x="620" y="129"/>
			<point x="613" y="141" type="curve" smooth="yes"/>
			<point x="506" y="320" type="line"/>
			<point x="424" y="320" type="line"/>
			<point x="424" y="144" type="line" smooth="yes"/>
			<point x="424" y="132"/>
			<point x="416" y="124"/>
			<point x="404" y="124" type="curve" smooth="yes"/>
		</contour>
		<contour>
			<point x="424" y="395" type="line"/>
			<point x="497" y="395" type="line" smooth="yes"/>
			<point x="574" y="395"/>
			<point x="612" y="426"/>
			<point x="612" y="481" type="curve" smooth="yes"/>
			<point x="612" y="539"/>
			<point x="571" y="561"/>
			<point x="496" y="561" type="curve" smooth="yes"/>
			<point x="424" y="561" type="line"/>
		</contour>
		<contour>
			<point x="500" y="-94" type="curve" smooth="yes"/>
			<point x="774" y="-94"/>
			<point x="972" y="106"/>
			<point x="972" y="380" type="curve" smooth="yes"/>
			<point x="972" y="654"/>
			<point x="774" y="854"/>
			<point x="500" y="854" type="curve" smooth="yes"/>
			<point x="226" y="854"/>
			<point x="28" y="654"/>
			<point x="28" y="380" type="curve" smooth="yes"/>
			<point x="28" y="106"/>
			<point x="226" y="-94"/>
		</contour>
		<contour>
			<point x="500" y="-12" type="curve" smooth="yes"/>
			<point x="276" y="-12"/>
			<point x="118" y="150"/>
			<point x="118" y="380" type="curve" smooth="yes"/>
			<point x="118" y="610"/>
			<point x="276" y="772"/>
			<point x="500" y="772" type="curve" smooth="yes"/>
			<point x="724" y="772"/>
			<point x="882" y="610"/>
			<point x="882" y="380" type="curve" smooth="yes"/>
			<point x="882" y="150"/>
			<point x="724" y="-12"/>
		</contour>
	</outline>
</glyph>
<glyph name="ZWJ" format="1">
	<unicode hex="200D"/>
	<advance width="1000"/>
	<outline>
		<contour>
			<point x="500" y="-41" type="curve" smooth="yes"/>
			<point x="512" y="-41"/>
			<point x="520" y="-32"/>
			<point x="520" y="-20" type="curve" smooth="yes"/>
			<point x="520" y="-9"/>
			<point x="512" y="0"/>
			<point x="500" y="0" type="curve" smooth="yes"/>
			<point x="489" y="0"/>
			<point x="480" y="-9"/>
			<point x="480" y="-20" type="curve" smooth="yes"/>
			<point x="480" y="-32"/>
			<point x="489" y="-41"/>
		</contour>
		<contour>
			<point x="450" y="-41" type="curve" smooth="yes"/>
			<point x="462" y="-41"/>
			<point x="470" y="-32"/>
			<point x="470" y="-20" type="curve" smooth="yes"/>
			<point x="470" y="-9"/>
			<point x="462" y="0"/>
			<point x="450" y="0" type="curve" smooth="yes"/>
			<point x="439" y="0"/>
			<point x="430" y="-9"/>
			<point x="430" y="-20" type="curve" smooth="yes"/>
			<point x="430" y="-32"/>
			<point x="439" y="-41"/>
		</contour>
		<contour>
			<point x="400" y="459" type="curve" smooth="yes"/>
			<point x="412" y="459"/>
			<point x="420" y="468"/>
			<point x="420" y="480" type="curve" smooth="yes"/>
			<point x="420" y="491"/>
			<point x="412" y="500"/>
			<point x="400" y="500" type="curve" smooth="yes"/>
			<point x="389" y="500"/>
			<point x="380" y="491"/>
			<point x="380" y="480" type="curve" smooth="yes"/>
			<point x="380" y="468"/>
			<point x="389" y="459"/>
		</contour>
		<contour>
			<point x="350" y="459" type="curve" smooth="yes"/>
			<point x="362" y="459"/>
			<point x="370" y="468"/>
			<point x="370" y="480" type="curve" smooth="yes"/>
			<point x="370" y="491"/>
			<point x="362" y="500"/>
			<point x="350" y="500" type="curve" smooth="yes"/>
			<point x="339" y="500"/>
			<point x="330" y="491"/>
			<point x="330" y="480" type="curve" smooth="yes"/>
			<point x="330" y="468"/>
			<point x="339" y="459"/>
		</contour>
		<contour>
			<point x="300" y="459" type="curve" smooth="yes"/>
			<point x="312" y="459"/>
			<point x="320" y="468"/>
			<point x="320" y="480" type="curve" smooth="yes"/>
			<point x="320" y="491"/>
			<point x="312" y="500"/>
			<point x="300" y="500" type="curve" smooth="yes"/>
			<point x="289" y="500"/>
			<point x="280" y="491"/>
			<point x="280" y="480" type="curve" smooth="yes"/>
			<point x="280" y="468"/>
			<point x="289" y="459"/>
		</contour>
		<contour>
			<point x="250" y="459" type="curve" smooth="yes"/>
			<point x="262" y="459"/>
			<point x="270" y="468"/>
			<point x="270" y="480" type="curve" smooth="yes"/>
			<point x="270" y="491"/>
			<point x="262" y="500"/>
			<point x="250" y="500" type="curve" smooth="yes"/>
			<point x="239" y="500"/>
			<point x="230" y="491"/>
			<point x="230" y="480" type="curve" smooth="yes"/>
			<point x="230" y="468"/>
			<point x="239" y="459"/>
		</contour>
		<contour>
			<point x="200" y="459" type="curve" smooth="yes"/>
			<point x="212" y="459"/>
			<point x="220" y="468"/>
			<point x="220" y="480" type="curve" smooth="yes"/>
			<point x="220" y="491"/>
			<point x="212" y="500"/>
			<point x="200" y="500" type="curve" smooth="yes"/>
			<point x="189" y="500"/>
			<point x="180" y="491"/>
			<point x="180" y="480" type="curve" smooth="yes"/>
			<point x="180" y="468"/>
			<point x="189" y="459"/>
		</contour>
		<contour>
			<point x="100" y="459" type="curve" smooth="yes"/>
			<point x="112" y="459"/>
			<point x="120" y="468"/>
			<point x="120" y="480" type="curve" smooth="yes"/>
			<point x="120" y="491"/>
			<point x="112" y="500"/>
			<point x="100" y="500" type="curve" smooth="yes"/>
			<point x="89" y="500"/>
			<point x="80" y="491"/>
			<point x="80" y="480" type="curve" smooth="yes"/>
			<point x="80" y="468"/>
			<point x="89" y="459"/>
		</contour>
		<contour>
			<point x="100" y="409" type="curve" smooth="yes"/>
			<point x="112" y="409"/>
			<point x="120" y="418"/>
			<point x="120" y="430" type="curve" smooth="yes"/>
			<point x="120" y="441"/>
			<point x="112" y="450"/>
			<point x="100" y="450" type="curve" smooth="yes"/>
			<point x="89" y="450"/>
			<point x="80" y="441"/>
			<point x="80" y="430" type="curve" smooth="yes"/>
			<point x="80" y="418"/>
			<point x="89" y="409"/>
		</contour>
		<contour>
			<point x="100" y="359" type="curve" smooth="yes"/>
			<point x="112" y="359"/>
			<point x="120" y="368"/>
			<point x="120" y="380" type="curve" smooth="yes"/>
			<point x="120" y="391"/>
			<point x="112" y="400"/>
			<point x="100" y="400" type="curve" smooth="yes"/>
			<point x="89" y="400"/>
			<point x="80" y="391"/>
			<point x="80" y="380" type="curve" smooth="yes"/>
			<point x="80" y="368"/>
			<point x="89" y="359"/>
		</contour>
		<contour>
			<point x="100" y="309" type="curve" smooth="yes"/>
			<point x="112" y="309"/>
			<point x="120" y="318"/>
			<point x="120" y="330" type="curve" smooth="yes"/>
			<point x="120" y="341"/>
			<point x="112" y="350"/>
			<point x="100" y="350" type="curve" smooth="yes"/>
			<point x="89" y="350"/>
			<point x="80" y="341"/>
			<point x="80" y="330" type="curve" smooth="yes"/>
			<point x="80" y="318"/>
			<point x="89" y="309"/>
		</contour>
		<contour>
			<point x="350" y="259" type="curve" smooth="yes"/>
			<point x="362" y="259"/>
			<point x="370" y="268"/>
			<point x="370" y="280" type="curve" smooth="yes"/>
			<point x="370" y="291"/>
			<point x="362" y="300"/>
			<point x="350" y="300" type="curve" smooth="yes"/>
			<point x="339" y="300"/>
			<point x="330" y="291"/>
			<point x="330" y="280" type="curve" smooth="yes"/>
			<point x="330" y="268"/>
			<point x="339" y="259"/>
		</contour>
		<contour>
			<point x="300" y="259" type="curve" smooth="yes"/>
			<point x="312" y="259"/>
			<point x="320" y="268"/>
			<point x="320" y="280" type="curve" smooth="yes"/>
			<point x="320" y="291"/>
			<point x="312" y="300"/>
			<point x="300" y="300" type="curve" smooth="yes"/>
			<point x="289" y="300"/>
			<point x="280" y="291"/>
			<point x="280" y="280" type="curve" smooth="yes"/>
			<point x="280" y="268"/>
			<point x="289" y="259"/>
		</contour>
		<contour>
			<point x="250" y="259" type="curve" smooth="yes"/>
			<point x="262" y="259"/>
			<point x="270" y="268"/>
			<point x="270" y="280" type="curve" smooth="yes"/>
			<point x="270" y="291"/>
			<point x="262" y="300"/>
			<point x="250" y="300" type="curve" smooth="yes"/>
			<point x="239" y="300"/>
			<point x="230" y="291"/>
			<point x="230" y="280" type="curve" smooth="yes"/>
			<point x="230" y="268"/>
			<point x="239" y="259"/>
		</contour>
		<contour>
			<point x="200" y="259" type="curve" smooth="yes"/>
			<point x="212" y="259"/>
			<point x="220" y="268"/>
			<point x="220" y="280" type="curve" smooth="yes"/>
			<point x="220" y="291"/>
			<point x="212" y="300"/>
			<point x="200" y="300" type="curve" smooth="yes"/>
			<point x="189" y="300"/>
			<point x="180" y="291"/>
			<point x="180" y="280" type="curve" smooth="yes"/>
			<point x="180" y="268"/>
			<point x="189" y="259"/>
		</contour>
		<contour>
			<point x="400" y="259" type="curve" smooth="yes"/>
			<point x="412" y="259"/>
			<point x="420" y="268"/>
			<point x="420" y="280" type="curve" smooth="yes"/>
			<point x="420" y="291"/>
			<point x="412" y="300"/>
			<point x="400" y="300" type="curve" smooth="yes"/>
			<point x="389" y="300"/>
			<point x="380" y="291"/>
			<point x="380" y="280" type="curve" smooth="yes"/>
			<point x="380" y="268"/>
			<point x="389" y="259"/>
		</contour>
		<contour>
			<point x="400" y="209" type="curve" smooth="yes"/>
			<point x="412" y="209"/>
			<point x="420" y="218"/>
			<point x="420" y="230" type="curve" smooth="yes"/>
			<point x="420" y="241"/>
			<point x="412" y="250"/>
			<point x="400" y="250" type="curve" smooth="yes"/>
			<point x="389" y="250"/>
			<point x="380" y="241"/>
			<point x="380" y="230" type="curve" smooth="yes"/>
			<point x="380" y="218"/>
			<point x="389" y="209"/>
		</contour>
		<contour>
			<point x="400" y="159" type="curve" smooth="yes"/>
			<point x="412" y="159"/>
			<point x="420" y="168"/>
			<point x="420" y="180" type="curve" smooth="yes"/>
			<point x="420" y="191"/>
			<point x="412" y="200"/>
			<point x="400" y="200" type="curve" smooth="yes"/>
			<point x="389" y="200"/>
			<point x="380" y="191"/>
			<point x="380" y="180" type="curve" smooth="yes"/>
			<point x="380" y="168"/>
			<point x="389" y="159"/>
		</contour>
		<contour>
			<point x="400" y="109" type="curve" smooth="yes"/>
			<point x="412" y="109"/>
			<point x="420" y="118"/>
			<point x="420" y="130" type="curve" smooth="yes"/>
			<point x="420" y="141"/>
			<point x="412" y="150"/>
			<point x="400" y="150" type="curve" smooth="yes"/>
			<point x="389" y="150"/>
			<point x="380" y="141"/>
			<point x="380" y="130" type="curve" smooth="yes"/>
			<point x="380" y="118"/>
			<point x="389" y="109"/>
		</contour>
		<contour>
			<point x="400" y="59" type="curve" smooth="yes"/>
			<point x="412" y="59"/>
			<point x="420" y="68"/>
			<point x="420" y="80" type="curve" smooth="yes"/>
			<point x="420" y="91"/>
			<point x="412" y="100"/>
			<point x="400" y="100" type="curve" smooth="yes"/>
			<point x="389" y="100"/>
			<point x="380" y="91"/>
			<point x="380" y="80" type="curve" smooth="yes"/>
			<point x="380" y="68"/>
			<point x="389" y="59"/>
		</contour>
		<contour>
			<point x="400" y="9" type="curve" smooth="yes"/>
			<point x="412" y="9"/>
			<point x="420" y="18"/>
			<point x="420" y="30" type="curve" smooth="yes"/>
			<point x="420" y="41"/>
			<point x="412" y="50"/>
			<point x="400" y="50" type="curve" smooth="yes"/>
			<point x="389" y="50"/>
			<point x="380" y="41"/>
			<point x="380" y="30" type="curve" smooth="yes"/>
			<point x="380" y="18"/>
			<point x="389" y="9"/>
		</contour>
		<contour>
			<point x="400" y="-41" type="curve" smooth="yes"/>
			<point x="412" y="-41"/>
			<point x="420" y="-32"/>
			<point x="420" y="-20" type="curve" smooth="yes"/>
			<point x="420" y="-9"/>
			<point x="412" y="0"/>
			<point x="400" y="0" type="curve" smooth="yes"/>
			<point x="389" y="0"/>
			<point x="380" y="-9"/>
			<point x="380" y="-20" type="curve" smooth="yes"/>
			<point x="380" y="-32"/>
			<point x="389" y="-41"/>
		</contour>
		<contour>
			<point x="550" y="-41" type="curve" smooth="yes"/>
			<point x="561" y="-41"/>
			<point x="570" y="-32"/>
			<point x="570" y="-20" type="curve" smooth="yes"/>
			<point x="570" y="-9"/>
			<point x="561" y="0"/>
			<point x="550" y="0" type="curve" smooth="yes"/>
			<point x="538" y="0"/>
			<point x="530" y="-9"/>
			<point x="530" y="-20" type="curve" smooth="yes"/>
			<point x="530" y="-32"/>
			<point x="538" y="-41"/>
		</contour>
		<contour>
			<point x="600" y="459" type="curve" smooth="yes"/>
			<point x="611" y="459"/>
			<point x="620" y="468"/>
			<point x="620" y="480" type="curve" smooth="yes"/>
			<point x="620" y="491"/>
			<point x="611" y="500"/>
			<point x="600" y="500" type="curve" smooth="yes"/>
			<point x="588" y="500"/>
			<point x="580" y="491"/>
			<point x="580" y="480" type="curve" smooth="yes"/>
			<point x="580" y="468"/>
			<point x="588" y="459"/>
		</contour>
		<contour>
			<point x="650" y="459" type="curve" smooth="yes"/>
			<point x="661" y="459"/>
			<point x="670" y="468"/>
			<point x="670" y="480" type="curve" smooth="yes"/>
			<point x="670" y="491"/>
			<point x="661" y="500"/>
			<point x="650" y="500" type="curve" smooth="yes"/>
			<point x="638" y="500"/>
			<point x="630" y="491"/>
			<point x="630" y="480" type="curve" smooth="yes"/>
			<point x="630" y="468"/>
			<point x="638" y="459"/>
		</contour>
		<contour>
			<point x="700" y="459" type="curve" smooth="yes"/>
			<point x="711" y="459"/>
			<point x="720" y="468"/>
			<point x="720" y="480" type="curve" smooth="yes"/>
			<point x="720" y="491"/>
			<point x="711" y="500"/>
			<point x="700" y="500" type="curve" smooth="yes"/>
			<point x="688" y="500"/>
			<point x="680" y="491"/>
			<point x="680" y="480" type="curve" smooth="yes"/>
			<point x="680" y="468"/>
			<point x="688" y="459"/>
		</contour>
		<contour>
			<point x="750" y="459" type="curve" smooth="yes"/>
			<point x="761" y="459"/>
			<point x="770" y="468"/>
			<point x="770" y="480" type="curve" smooth="yes"/>
			<point x="770" y="491"/>
			<point x="761" y="500"/>
			<point x="750" y="500" type="curve" smooth="yes"/>
			<point x="738" y="500"/>
			<point x="730" y="491"/>
			<point x="730" y="480" type="curve" smooth="yes"/>
			<point x="730" y="468"/>
			<point x="738" y="459"/>
		</contour>
		<contour>
			<point x="800" y="459" type="curve" smooth="yes"/>
			<point x="811" y="459"/>
			<point x="820" y="468"/>
			<point x="820" y="480" type="curve" smooth="yes"/>
			<point x="820" y="491"/>
			<point x="811" y="500"/>
			<point x="800" y="500" type="curve" smooth="yes"/>
			<point x="788" y="500"/>
			<point x="780" y="491"/>
			<point x="780" y="480" type="curve" smooth="yes"/>
			<point x="780" y="468"/>
			<point x="788" y="459"/>
		</contour>
		<contour>
			<point x="900" y="459" type="curve" smooth="yes"/>
			<point x="911" y="459"/>
			<point x="920" y="468"/>
			<point x="920" y="480" type="curve" smooth="yes"/>
			<point x="920" y="491"/>
			<point x="911" y="500"/>
			<point x="900" y="500" type="curve" smooth="yes"/>
			<point x="888" y="500"/>
			<point x="880" y="491"/>
			<point x="880" y="480" type="curve" smooth="yes"/>
			<point x="880" y="468"/>
			<point x="888" y="459"/>
		</contour>
		<contour>
			<point x="900" y="409" type="curve" smooth="yes"/>
			<point x="911" y="409"/>
			<point x="920" y="418"/>
			<point x="920" y="430" type="curve" smooth="yes"/>
			<point x="920" y="441"/>
			<point x="911" y="450"/>
			<point x="900" y="450" type="curve" smooth="yes"/>
			<point x="888" y="450"/>
			<point x="880" y="441"/>
			<point x="880" y="430" type="curve" smooth="yes"/>
			<point x="880" y="418"/>
			<point x="888" y="409"/>
		</contour>
		<contour>
			<point x="900" y="359" type="curve" smooth="yes"/>
			<point x="911" y="359"/>
			<point x="920" y="368"/>
			<point x="920" y="380" type="curve" smooth="yes"/>
			<point x="920" y="391"/>
			<point x="911" y="400"/>
			<point x="900" y="400" type="curve" smooth="yes"/>
			<point x="888" y="400"/>
			<point x="880" y="391"/>
			<point x="880" y="380" type="curve" smooth="yes"/>
			<point x="880" y="368"/>
			<point x="888" y="359"/>
		</contour>
		<contour>
			<point x="900" y="309" type="curve" smooth="yes"/>
			<point x="911" y="309"/>
			<point x="920" y="318"/>
			<point x="920" y="330" type="curve" smooth="yes"/>
			<point x="920" y="341"/>
			<point x="911" y="350"/>
			<point x="900" y="350" type="curve" smooth="yes"/>
			<point x="888" y="350"/>
			<point x="880" y="341"/>
			<point x="880" y="330" type="curve" smooth="yes"/>
			<point x="880" y="318"/>
			<point x="888" y="309"/>
		</contour>
		<contour>
			<point x="650" y="259" type="curve" smooth="yes"/>
			<point x="661" y="259"/>
			<point x="670" y="268"/>
			<point x="670" y="280" type="curve" smooth="yes"/>
			<point x="670" y="291"/>
			<point x="661" y="300"/>
			<point x="650" y="300" type="curve" smooth="yes"/>
			<point x="638" y="300"/>
			<point x="630" y="291"/>
			<point x="630" y="280" type="curve" smooth="yes"/>
			<point x="630" y="268"/>
			<point x="638" y="259"/>
		</contour>
		<contour>
			<point x="700" y="259" type="curve" smooth="yes"/>
			<point x="711" y="259"/>
			<point x="720" y="268"/>
			<point x="720" y="280" type="curve" smooth="yes"/>
			<point x="720" y="291"/>
			<point x="711" y="300"/>
			<point x="700" y="300" type="curve" smooth="yes"/>
			<point x="688" y="300"/>
			<point x="680" y="291"/>
			<point x="680" y="280" type="curve" smooth="yes"/>
			<point x="680" y="268"/>
			<point x="688" y="259"/>
		</contour>
		<contour>
			<point x="750" y="259" type="curve" smooth="yes"/>
			<point x="761" y="259"/>
			<point x="770" y="268"/>
			<point x="770" y="280" type="curve" smooth="yes"/>
			<point x="770" y="291"/>
			<point x="761" y="300"/>
			<point x="750" y="300" type="curve" smooth="yes"/>
			<point x="738" y="300"/>
			<point x="730" y="291"/>
			<point x="730" y="280" type="curve" smooth="yes"/>
			<point x="730" y="268"/>
			<point x="738" y="259"/>
		</contour>
		<contour>
			<point x="800" y="259" type="curve" smooth="yes"/>
			<point x="811" y="259"/>
			<point x="820" y="268"/>
			<point x="820" y="280" type="curve" smooth="yes"/>
			<point x="820" y="291"/>
			<point x="811" y="300"/>
			<point x="800" y="300" type="curve" smooth="yes"/>
			<point x="788" y="300"/>
			<point x="780" y="291"/>
			<point x="780" y="280" type="curve" smooth="yes"/>
			<point x="780" y="268"/>
			<point x="788" y="259"/>
		</contour>
		<contour>
			<point x="600" y="259" type="curve" smooth="yes"/>
			<point x="611" y="259"/>
			<point x="620" y="268"/>
			<point x="620" y="280" type="curve" smooth="yes"/>
			<point x="620" y="291"/>
			<point x="611" y="300"/>
			<point x="600" y="300" type="curve" smooth="yes"/>
			<point x="588" y="300"/>
			<point x="580" y="291"/>
			<point x="580" y="280" type="curve" smooth="yes"/>
			<point x="580" y="268"/>
			<point x="588" y="259"/>
		</contour>
		<contour>
			<point x="600" y="209" type="curve" smooth="yes"/>
			<point x="611" y="209"/>
			<point x="620" y="218"/>
			<point x="620" y="230" type="curve" smooth="yes"/>
			<point x="620" y="241"/>
			<point x="611" y="250"/>
			<point x="600" y="250" type="curve" smooth="yes"/>
			<point x="588" y="250"/>
			<point x="580" y="241"/>
			<point x="580" y="230" type="curve" smooth="yes"/>
			<point x="580" y="218"/>
			<point x="588" y="209"/>
		</contour>
		<contour>
			<point x="600" y="159" type="curve" smooth="yes"/>
			<point x="611" y="159"/>
			<point x="620" y="168"/>
			<point x="620" y="180" type="curve" smooth="yes"/>
			<point x="620" y="191"/>
			<point x="611" y="200"/>
			<point x="600" y="200" type="curve" smooth="yes"/>
			<point x="588" y="200"/>
			<point x="580" y="191"/>
			<point x="580" y="180" type="curve" smooth="yes"/>
			<point x="580" y="168"/>
			<point x="588" y="159"/>
		</contour>
		<contour>
			<point x="600" y="109" type="curve" smooth="yes"/>
			<point x="611" y="109"/>
			<point x="620" y="118"/>
			<point x="620" y="130" type="curve" smooth="yes"/>
			<point x="620" y="141"/>
			<point x="611" y="150"/>
			<point x="600" y="150" type="curve" smooth="yes"/>
			<point x="588" y="150"/>
			<point x="580" y="141"/>
			<point x="580" y="130" type="curve" smooth="yes"/>
			<point x="580" y="118"/>
			<point x="588" y="109"/>
		</contour>
		<contour>
			<point x="600" y="59" type="curve" smooth="yes"/>
			<point x="611" y="59"/>
			<point x="620" y="68"/>
			<point x="620" y="80" type="curve" smooth="yes"/>
			<point x="620" y="91"/>
			<point x="611" y="100"/>
			<point x="600" y="100" type="curve" smooth="yes"/>
			<point x="588" y="100"/>
			<point x="580" y="91"/>
			<point x="580" y="80" type="curve" smooth="yes"/>
			<point x="580" y="68"/>
			<point x="588" y="59"/>
		</contour>
		<contour>
			<point x="600" y="9" type="curve" smooth="yes"/>
			<point x="611" y="9"/>
			<point x="620" y="18"/>
			<point x="620" y="30" type="curve" smooth="yes"/>
			<point x="620" y="41"/>
			<point x="611" y="50"/>
			<point x="600" y="50" type="curve" smooth="yes"/>
			<point x="588" y="50"/>
			<point x="580" y="41"/>
			<point x="580" y="30" type="curve" smooth="yes"/>
			<point x="580" y="18"/>
			<point x="588" y="9"/>
		</contour>
		<contour>
			<point x="600" y="-41" type="curve" smooth="yes"/>
			<point x="611" y="-41"/>
			<point x="620" y="-32"/>
			<point x="620" y="-20" type="curve" smooth="yes"/>
			<point x="620" y="-9"/>
			<point x="611" y="0"/>
			<point x="600" y="0" type="curve" smooth="yes"/>
			<point x="588" y="0"/>
			<point x="580" y="-9"/>
			<point x="580" y="-20" type="curve" smooth="yes"/>
			<point x="580" y="-32"/>
			<point x="588" y="-41"/>
		</contour>
		<contour>
			<point x="100" y="259" type="curve" smooth="yes"/>
			<point x="112" y="259"/>
			<point x="120" y="268"/>
			<point x="120" y="280" type="curve" smooth="yes"/>
			<point x="120" y="291"/>
			<point x="112" y="300"/>
			<point x="100" y="300" type="curve" smooth="yes"/>
			<point x="89" y="300"/>
			<point x="80" y="291"/>
			<point x="80" y="280" type="curve" smooth="yes"/>
			<point x="80" y="268"/>
			<point x="89" y="259"/>
		</contour>
		<contour>
			<point x="900" y="259" type="curve" smooth="yes"/>
			<point x="911" y="259"/>
			<point x="920" y="268"/>
			<point x="920" y="280" type="curve" smooth="yes"/>
			<point x="920" y="291"/>
			<point x="911" y="300"/>
			<point x="900" y="300" type="curve" smooth="yes"/>
			<point x="888" y="300"/>
			<point x="880" y="291"/>
			<point x="880" y="280" type="curve" smooth="yes"/>
			<point x="880" y="268"/>
			<point x="888" y="259"/>
		</contour>
		<contour>
			<point x="150" y="459" type="curve" smooth="yes"/>
			<point x="162" y="459"/>
			<point x="170" y="468"/>
			<point x="170" y="480" type="curve" smooth="yes"/>
			<point x="170" y="491"/>
			<point x="162" y="500"/>
			<point x="150" y="500" type="curve" smooth="yes"/>
			<point x="139" y="500"/>
			<point x="130" y="491"/>
			<point x="130" y="480" type="curve" smooth="yes"/>
			<point x="130" y="468"/>
			<point x="139" y="459"/>
		</contour>
		<contour>
			<point x="150" y="259" type="curve" smooth="yes"/>
			<point x="162" y="259"/>
			<point x="170" y="268"/>
			<point x="170" y="280" type="curve" smooth="yes"/>
			<point x="170" y="291"/>
			<point x="162" y="300"/>
			<point x="150" y="300" type="curve" smooth="yes"/>
			<point x="139" y="300"/>
			<point x="130" y="291"/>
			<point x="130" y="280" type="curve" smooth="yes"/>
			<point x="130" y="268"/>
			<point x="139" y="259"/>
		</contour>
		<contour>
			<point x="850" y="459" type="curve" smooth="yes"/>
			<point x="861" y="459"/>
			<point x="870" y="468"/>
			<point x="870" y="480" type="curve" smooth="yes"/>
			<point x="870" y="491"/>
			<point x="861" y="500"/>
			<point x="850" y="500" type="curve" smooth="yes"/>
			<point x="838" y="500"/>
			<point x="830" y="491"/>
			<point x="830" y="480" type="curve" smooth="yes"/>
			<point x="830" y="468"/>
			<point x="838" y="459"/>
		</contour>
		<contour>
			<point x="850" y="259" type="curve" smooth="yes"/>
			<point x="861" y="259"/>
			<point x="870" y="268"/>
			<point x="870" y="280" type="curve" smooth="yes"/>
			<point x="870" y="291"/>
			<point x="861" y="300"/>
			<point x="850" y="300" type="curve" smooth="yes"/>
			<point x="838" y="300"/>
			<point x="830" y="291"/>
			<point x="830" y="280" type="curve" smooth="yes"/>
			<point x="830" y="268"/>
			<point x="838" y="259"/>
		</contour>
		<contour>
			<point x="500" y="800" type="curve" smooth="yes"/>
			<point x="489" y="800"/>
			<point x="480" y="791"/>
			<point x="480" y="779" type="curve" smooth="yes"/>
			<point x="480" y="768"/>
			<point x="489" y="759"/>
			<point x="500" y="759" type="curve" smooth="yes"/>
			<point x="512" y="759"/>
			<point x="520" y="768"/>
			<point x="520" y="779" type="curve" smooth="yes"/>
			<point x="520" y="791"/>
			<point x="512" y="800"/>
		</contour>
		<contour>
			<point x="450" y="800" type="curve" smooth="yes"/>
			<point x="439" y="800"/>
			<point x="430" y="791"/>
			<point x="430" y="779" type="curve" smooth="yes"/>
			<point x="430" y="768"/>
			<point x="439" y="759"/>
			<point x="450" y="759" type="curve" smooth="yes"/>
			<point x="462" y="759"/>
			<point x="470" y="768"/>
			<point x="470" y="779" type="curve" smooth="yes"/>
			<point x="470" y="791"/>
			<point x="462" y="800"/>
		</contour>
		<contour>
			<point x="400" y="550" type="curve" smooth="yes"/>
			<point x="389" y="550"/>
			<point x="380" y="541"/>
			<point x="380" y="529" type="curve" smooth="yes"/>
			<point x="380" y="518"/>
			<point x="389" y="509"/>
			<point x="400" y="509" type="curve" smooth="yes"/>
			<point x="412" y="509"/>
			<point x="420" y="518"/>
			<point x="420" y="529" type="curve" smooth="yes"/>
			<point x="420" y="541"/>
			<point x="412" y="550"/>
		</contour>
		<contour>
			<point x="400" y="600" type="curve" smooth="yes"/>
			<point x="389" y="600"/>
			<point x="380" y="591"/>
			<point x="380" y="579" type="curve" smooth="yes"/>
			<point x="380" y="568"/>
			<point x="389" y="559"/>
			<point x="400" y="559" type="curve" smooth="yes"/>
			<point x="412" y="559"/>
			<point x="420" y="568"/>
			<point x="420" y="579" type="curve" smooth="yes"/>
			<point x="420" y="591"/>
			<point x="412" y="600"/>
		</contour>
		<contour>
			<point x="400" y="650" type="curve" smooth="yes"/>
			<point x="389" y="650"/>
			<point x="380" y="641"/>
			<point x="380" y="629" type="curve" smooth="yes"/>
			<point x="380" y="618"/>
			<point x="389" y="609"/>
			<point x="400" y="609" type="curve" smooth="yes"/>
			<point x="412" y="609"/>
			<point x="420" y="618"/>
			<point x="420" y="629" type="curve" smooth="yes"/>
			<point x="420" y="641"/>
			<point x="412" y="650"/>
		</contour>
		<contour>
			<point x="400" y="700" type="curve" smooth="yes"/>
			<point x="389" y="700"/>
			<point x="380" y="691"/>
			<point x="380" y="679" type="curve" smooth="yes"/>
			<point x="380" y="668"/>
			<point x="389" y="659"/>
			<point x="400" y="659" type="curve" smooth="yes"/>
			<point x="412" y="659"/>
			<point x="420" y="668"/>
			<point x="420" y="679" type="curve" smooth="yes"/>
			<point x="420" y="691"/>
			<point x="412" y="700"/>
		</contour>
		<contour>
			<point x="400" y="750" type="curve" smooth="yes"/>
			<point x="389" y="750"/>
			<point x="380" y="741"/>
			<point x="380" y="729" type="curve" smooth="yes"/>
			<point x="380" y="718"/>
			<point x="389" y="709"/>
			<point x="400" y="709" type="curve" smooth="yes"/>
			<point x="412" y="709"/>
			<point x="420" y="718"/>
			<point x="420" y="729" type="curve" smooth="yes"/>
			<point x="420" y="741"/>
			<point x="412" y="750"/>
		</contour>
		<contour>
			<point x="400" y="800" type="curve" smooth="yes"/>
			<point x="389" y="800"/>
			<point x="380" y="791"/>
			<point x="380" y="779" type="curve" smooth="yes"/>
			<point x="380" y="768"/>
			<point x="389" y="759"/>
			<point x="400" y="759" type="curve" smooth="yes"/>
			<point x="412" y="759"/>
			<point x="420" y="768"/>
			<point x="420" y="779" type="curve" smooth="yes"/>
			<point x="420" y="791"/>
			<point x="412" y="800"/>
		</contour>
		<contour>
			<point x="550" y="800" type="curve" smooth="yes"/>
			<point x="538" y="800"/>
			<point x="530" y="791"/>
			<point x="530" y="779" type="curve" smooth="yes"/>
			<point x="530" y="768"/>
			<point x="538" y="759"/>
			<point x="550" y="759" type="curve" smooth="yes"/>
			<point x="561" y="759"/>
			<point x="570" y="768"/>
			<point x="570" y="779" type="curve" smooth="yes"/>
			<point x="570" y="791"/>
			<point x="561" y="800"/>
		</contour>
		<contour>
			<point x="600" y="550" type="curve" smooth="yes"/>
			<point x="588" y="550"/>
			<point x="580" y="541"/>
			<point x="580" y="529" type="curve" smooth="yes"/>
			<point x="580" y="518"/>
			<point x="588" y="509"/>
			<point x="600" y="509" type="curve" smooth="yes"/>
			<point x="611" y="509"/>
			<point x="620" y="518"/>
			<point x="620" y="529" type="curve" smooth="yes"/>
			<point x="620" y="541"/>
			<point x="611" y="550"/>
		</contour>
		<contour>
			<point x="600" y="600" type="curve" smooth="yes"/>
			<point x="588" y="600"/>
			<point x="580" y="591"/>
			<point x="580" y="579" type="curve" smooth="yes"/>
			<point x="580" y="568"/>
			<point x="588" y="559"/>
			<point x="600" y="559" type="curve" smooth="yes"/>
			<point x="611" y="559"/>
			<point x="620" y="568"/>
			<point x="620" y="579" type="curve" smooth="yes"/>
			<point x="620" y="591"/>
			<point x="611" y="600"/>
		</contour>
		<contour>
			<point x="600" y="650" type="curve" smooth="yes"/>
			<point x="588" y="650"/>
			<point x="580" y="641"/>
			<point x="580" y="629" type="curve" smooth="yes"/>
			<point x="580" y="618"/>
			<point x="588" y="609"/>
			<point x="600" y="609" type="curve" smooth="yes"/>
			<point x="611" y="609"/>
			<point x="620" y="618"/>
			<point x="620" y="629" type="curve" smooth="yes"/>
			<point x="620" y="641"/>
			<point x="611" y="650"/>
		</contour>
		<contour>
			<point x="600" y="700" type="curve" smooth="yes"/>
			<point x="588" y="700"/>
			<point x="580" y="691"/>
			<point x="580" y="679" type="curve" smooth="yes"/>
			<point x="580" y="668"/>
			<point x="588" y="659"/>
			<point x="600" y="659" type="curve" smooth="yes"/>
			<point x="611" y="659"/>
			<point x="620" y="668"/>
			<point x="620" y="679" type="curve" smooth="yes"/>
			<point x="620" y="691"/>
			<point x="611" y="700"/>
		</contour>
		<contour>
			<point x="600" y="750" type="curve" smooth="yes"/>
			<point x="588" y="750"/>
			<point x="580" y="741"/>
			<point x="580" y="729" type="curve" smooth="yes"/>
			<point x="580" y="718"/>
			<point x="588" y="709"/>
			<point x="600" y="709" type="curve" smooth="yes"/>
			<point x="611" y="709"/>
			<point x="620" y="718"/>
			<point x="620" y="729" type="curve" smooth="yes"/>
			<point x="620" y="741"/>
			<point x="611" y="750"/>
		</contour>
		<contour>
			<point x="600" y="800" type="curve" smooth="yes"/>
			<point x="588" y="800"/>
			<point x="580" y="791"/>
			<point x="580" y="779" type="curve" smooth="yes"/>
			<point x="580" y="768"/>
			<point x="588" y="759"/>
			<point x="600" y="759" type="curve" smooth="yes"/>
			<point x="611" y="759"/>
			<point x="620" y="768"/>
			<point x="620" y="779" type="curve" smooth="yes"/>
			<point x="620" y="791"/>
			<point x="611" y="800"/>
		</contour>
	</outline>
</glyph>
<glyph name="quoteright" format="1">
	<unicode hex="2019"/>
	<advance width="342"/>
	<outline>
		<contour>
			<point x="141" y="306" type="curve" smooth="yes"/>
			<point x="206" y="306"/>
			<point x="289" y="382"/>
			<point x="289" y="532" type="curve" smooth="yes"/>
			<point x="289" y="634"/>
			<point x="249" y="695"/>
			<point x="170" y="695" type="curve" smooth="yes"/>
			<point x="114" y="695"/>
			<point x="73" y="654"/>
			<point x="73" y="592" type="curve" smooth="yes"/>
			<point x="73" y="536"/>
			<point x="115" y="500"/>
			<point x="170" y="500" type="curve" smooth="yes"/>
			<point x="194" y="500"/>
			<point x="219" y="512"/>
			<point x="236" y="524" type="curve"/>
			<point x="182" y="604" type="line"/>
			<point x="180" y="502" type="line"/>
			<point x="180" y="458"/>
			<point x="169" y="433"/>
			<point x="152" y="417" type="curve" smooth="yes"/>
			<point x="133" y="399"/>
			<point x="90" y="397"/>
			<point x="90" y="353" type="curve" smooth="yes"/>
			<point x="90" y="322"/>
			<point x="111" y="306"/>
		</contour>
	</outline>
</glyph>
<glyph name="exclamdbl" format="1">
	<unicode hex="203C"/>
	<advance width="1000"/>
	<outline>
		<contour>
			<point x="236" y="290" type="line" smooth="yes"/>
			<point x="237" y="278"/>
			<point x="246" y="270"/>
			<point x="258" y="270" type="curve" smooth="yes"/>
			<point x="359" y="270" type="line" smooth="yes"/>
			<point x="371" y="270"/>
			<point x="380" y="278"/>
			<point x="381" y="290" type="curve" smooth="yes"/>
			<point x="409" y="635" type="line" smooth="yes"/>
			<point x="415" y="804" type="line" smooth="yes"/>
			<point x="415" y="816"/>
			<point x="408" y="824"/>
			<point x="396" y="824" type="curve" smooth="yes"/>
			<point x="221" y="824" type="line" smooth="yes"/>
			<point x="209" y="824"/>
			<point x="202" y="816"/>
			<point x="202" y="804" type="curve" smooth="yes"/>
			<point x="208" y="635" type="line" smooth="yes"/>
		</contour>
		<contour>
			<point x="308" y="-64" type="curve" smooth="yes"/>
			<point x="382" y="-64"/>
			<point x="438" y="-9"/>
			<point x="438" y="68" type="curve" smooth="yes"/>
			<point x="438" y="142"/>
			<point x="382" y="200"/>
			<point x="308" y="200" type="curve" smooth="yes"/>
			<point x="234" y="200"/>
			<point x="178" y="142"/>
			<point x="178" y="68" type="curve" smooth="yes"/>
			<point x="178" y="-9"/>
			<point x="234" y="-64"/>
		</contour>
		<contour>
			<point x="620" y="290" type="line" smooth="yes"/>
			<point x="621" y="278"/>
			<point x="630" y="270"/>
			<point x="642" y="270" type="curve" smooth="yes"/>
			<point x="743" y="270" type="line" smooth="yes"/>
			<point x="755" y="270"/>
			<point x="764" y="278"/>
			<point x="765" y="290" type="curve" smooth="yes"/>
			<point x="793" y="635" type="line" smooth="yes"/>
			<point x="799" y="804" type="line" smooth="yes"/>
			<point x="799" y="816"/>
			<point x="792" y="824"/>
			<point x="780" y="824" type="curve" smooth="yes"/>
			<point x="605" y="824" type="line" smooth="yes"/>
			<point x="593" y="824"/>
			<point x="586" y="816"/>
			<point x="586" y="804" type="curve" smooth="yes"/>
			<point x="592" y="635" type="line" smooth="yes"/>
		</contour>
		<contour>
			<point x="692" y="-64" type="curve" smooth="yes"/>
			<point x="766" y="-64"/>
			<point x="822" y="-9"/>
			<point x="822" y="68" type="curve" smooth="yes"/>
			<point x="822" y="142"/>
			<point x="766" y="200"/>
			<point x="692" y="200" type="curve" smooth="yes"/>
			<point x="618" y="200"/>
			<point x="562" y="142"/>
			<point x="562" y="68" type="curve" smooth="yes"/>
			<point x="562" y="-9"/>
			<point x="618" y="-64"/>
		</contour>
	</outline>
</glyph>
<glyph name="exclamquestion" format="1">
	<unicode hex="2049"/>
	<advance width="1000"/>
	<outline>
		<contour>
			<point x="564" y="290" type="curve" smooth="yes"/>
			<point x="565" y="278"/>
			<point x="574" y="270"/>
			<point x="586" y="270" type="curve" smooth="yes"/>
			<point x="733" y="270" type="line" smooth="yes"/>
			<point x="744" y="270"/>
			<point x="752" y="279"/>
			<point x="752" y="290" type="curve" smooth="yes"/>
			<point x="752" y="412"/>
			<point x="918" y="455"/>
			<point x="918" y="620" type="curve" smooth="yes"/>
			<point x="918" y="766"/>
			<point x="812" y="838"/>
			<point x="676" y="838" type="curve" smooth="yes"/>
			<point x="578" y="838"/>
			<point x="492" y="787"/>
			<point x="446" y="726" type="curve" smooth="yes"/>
			<point x="439" y="716"/>
			<point x="440" y="705"/>
			<point x="449" y="696" type="curve" smooth="yes"/>
			<point x="536" y="616" type="line" smooth="yes"/>
			<point x="545" y="608"/>
			<point x="556" y="608"/>
			<point x="564" y="617" type="curve" smooth="yes"/>
			<point x="582" y="638"/>
			<point x="611" y="665"/>
			<point x="651" y="665" type="curve" smooth="yes"/>
			<point x="688" y="665"/>
			<point x="714" y="641"/>
			<point x="714" y="600" type="curve" smooth="yes"/>
			<point x="714" y="490"/>
			<point x="550" y="434"/>
		</contour>
		<contour>
			<point x="659" y="-64" type="curve" smooth="yes"/>
			<point x="734" y="-64"/>
			<point x="789" y="-8"/>
			<point x="789" y="68" type="curve" smooth="yes"/>
			<point x="789" y="143"/>
			<point x="734" y="200"/>
			<point x="659" y="200" type="curve" smooth="yes"/>
			<point x="585" y="200"/>
			<point x="530" y="143"/>
			<point x="530" y="68" type="curve" smooth="yes"/>
			<point x="530" y="-8"/>
			<point x="585" y="-64"/>
		</contour>
		<contour>
			<point x="176" y="290" type="line" smooth="yes"/>
			<point x="177" y="278"/>
			<point x="186" y="270"/>
			<point x="198" y="270" type="curve" smooth="yes"/>
			<point x="299" y="270" type="line" smooth="yes"/>
			<point x="311" y="270"/>
			<point x="320" y="278"/>
			<point x="321" y="290" type="curve" smooth="yes"/>
			<point x="349" y="635" type="line" smooth="yes"/>
			<point x="355" y="804" type="line" smooth="yes"/>
			<point x="355" y="816"/>
			<point x="348" y="824"/>
			<point x="336" y="824" type="curve" smooth="yes"/>
			<point x="161" y="824" type="line" smooth="yes"/>
			<point x="149" y="824"/>
			<point x="142" y="816"/>
			<point x="142" y="804" type="curve" smooth="yes"/>
			<point x="148" y="635" type="line" smooth="yes"/>
		</contour>
		<contour>
			<point x="248" y="-64" type="curve" smooth="yes"/>
			<point x="322" y="-64"/>
			<point x="378" y="-9"/>
			<point x="378" y="68" type="curve" smooth="yes"/>
			<point x="378" y="142"/>
			<point x="322" y="200"/>
			<point x="248" y="200" type="curve" smooth="yes"/>
			<point x="174" y="200"/>
			<point x="118" y="142"/>
			<point x="118" y="68" type="curve" smooth="yes"/>
			<point x="118" y="-9"/>
			<point x="174" y="-64"/>
		</contour>
	</outline>
</glyph>
<glyph name="keycapcmb" format="1">
	<unicode hex="20E3"/>
	<outline>
		<contour>
			<point x="-750" y="-70" type="curve" smooth="yes"/>
			<point x="-250" y="-70" type="line" smooth="yes"/>
			<point x="-124" y="-70"/>
			<point x="-50" y="4"/>
			<point x="-50" y="130" type="curve" smooth="yes"/>
			<point x="-50" y="630" type="line" smooth="yes"/>
			<point x="-50" y="756"/>
			<point x="-124" y="830"/>
			<point x="-250" y="830" type="curve" smooth="yes"/>
			<point x="-750" y="830" type="line" smooth="yes"/>
			<point x="-876" y="830"/>
			<point x="-950" y="756"/>
			<point x="-950" y="630" type="curve" smooth="yes"/>
			<point x="-950" y="130" type="line" smooth="yes"/>
			<point x="-950" y="3"/>
			<point x="-876" y="-70"/>
		</contour>
		<contour>
			<point x="-916" y="130" type="curve" smooth="yes"/>
			<point x="-916" y="630" type="line" smooth="yes"/>
			<point x="-916" y="734"/>
			<point x="-854" y="796"/>
			<point x="-750" y="796" type="curve" smooth="yes"/>
			<point x="-250" y="796" type="line" smooth="yes"/>
			<point x="-199" y="796"/>
			<point x="-158" y="781"/>
			<point x="-129" y="753" type="curve"/>
			<point x="-197" y="693" type="line"/>
			<point x="-222" y="718"/>
			<point x="-259" y="730"/>
			<point x="-310" y="730" type="curve" smooth="yes"/>
			<point x="-690" y="730" type="line" smooth="yes"/>
			<point x="-791" y="730"/>
			<point x="-840" y="681"/>
			<point x="-840" y="580" type="curve" smooth="yes"/>
			<point x="-840" y="180" type="line" smooth="yes"/>
			<point x="-840" y="129"/>
			<point x="-828" y="92"/>
			<point x="-803" y="67" type="curve"/>
			<point x="-871" y="7" type="line"/>
			<point x="-900" y="35"/>
			<point x="-916" y="77"/>
		</contour>
		<contour>
			<point x="-690" y="64" type="line" smooth="yes"/>
			<point x="-769" y="64"/>
			<point x="-806" y="101"/>
			<point x="-806" y="180" type="curve" smooth="yes"/>
			<point x="-806" y="580" type="line" smooth="yes"/>
			<point x="-806" y="659"/>
			<point x="-769" y="696"/>
			<point x="-690" y="696" type="curve" smooth="yes"/>
			<point x="-310" y="696" type="line" smooth="yes"/>
			<point x="-231" y="696"/>
			<point x="-194" y="659"/>
			<point x="-194" y="580" type="curve" smooth="yes"/>
			<point x="-194" y="180" type="line" smooth="yes"/>
			<point x="-194" y="101"/>
			<point x="-231" y="64"/>
			<point x="-310" y="64" type="curve" smooth="yes"/>
		</contour>
	</outline>
</glyph>
<glyph name="trademark" format="1">
	<unicode hex="2122"/>
	<advance width="1000"/>
	<outline>
		<contour>
			<point x="179" y="220" type="line" smooth="yes"/>
			<point x="179" y="208"/>
			<point x="187" y="200"/>
			<point x="199" y="200" type="curve" smooth="yes"/>
			<point x="282" y="200" type="line" smooth="yes"/>
			<point x="294" y="200"/>
			<point x="302" y="208"/>
			<point x="302" y="220" type="curve" smooth="yes"/>
			<point x="302" y="636" type="line"/>
			<point x="436" y="636" type="line" smooth="yes"/>
			<point x="448" y="636"/>
			<point x="456" y="644"/>
			<point x="456" y="656" type="curve" smooth="yes"/>
			<point x="456" y="719" type="line" smooth="yes"/>
			<point x="456" y="731"/>
			<point x="448" y="739"/>
			<point x="436" y="739" type="curve" smooth="yes"/>
			<point x="44" y="739" type="line" smooth="yes"/>
			<point x="32" y="739"/>
			<point x="24" y="731"/>
			<point x="24" y="719" type="curve" smooth="yes"/>
			<point x="24" y="656" type="line" smooth="yes"/>
			<point x="24" y="644"/>
			<point x="32" y="636"/>
			<point x="44" y="636" type="curve" smooth="yes"/>
			<point x="179" y="636" type="line"/>
		</contour>
		<contour>
			<point x="510" y="220" type="line" smooth="yes"/>
			<point x="510" y="208"/>
			<point x="518" y="200"/>
			<point x="530" y="200" type="curve" smooth="yes"/>
			<point x="605" y="200" type="line" smooth="yes"/>
			<point x="617" y="200"/>
			<point x="625" y="208"/>
			<point x="625" y="220" type="curve" smooth="yes"/>
			<point x="625" y="348" type="line" smooth="yes"/>
			<point x="625" y="417"/>
			<point x="611" y="550"/>
			<point x="605" y="617" type="curve"/>
			<point x="609" y="617" type="line"/>
			<point x="651" y="442" type="line" smooth="yes"/>
			<point x="704" y="230" type="line" smooth="yes"/>
			<point x="707" y="218"/>
			<point x="716" y="211"/>
			<point x="729" y="211" type="curve" smooth="yes"/>
			<point x="749" y="211" type="line" smooth="yes"/>
			<point x="762" y="211"/>
			<point x="771" y="218"/>
			<point x="774" y="230" type="curve" smooth="yes"/>
			<point x="827" y="442" type="line" smooth="yes"/>
			<point x="867" y="617" type="line"/>
			<point x="871" y="617" type="line"/>
			<point x="865" y="550"/>
			<point x="853" y="417"/>
			<point x="853" y="348" type="curve" smooth="yes"/>
			<point x="853" y="220" type="line" smooth="yes"/>
			<point x="853" y="208"/>
			<point x="861" y="200"/>
			<point x="873" y="200" type="curve" smooth="yes"/>
			<point x="950" y="200" type="line" smooth="yes"/>
			<point x="962" y="200"/>
			<point x="970" y="208"/>
			<point x="970" y="220" type="curve" smooth="yes"/>
			<point x="970" y="719" type="line" smooth="yes"/>
			<point x="970" y="731"/>
			<point x="962" y="739"/>
			<point x="950" y="739" type="curve" smooth="yes"/>
			<point x="848" y="739" type="line" smooth="yes"/>
			<point x="835" y="739"/>
			<point x="826" y="732"/>
			<point x="823" y="720" type="curve" smooth="yes"/>
			<point x="766" y="491" type="line" smooth="yes"/>
			<point x="742" y="378" type="line"/>
			<point x="738" y="378" type="line"/>
			<point x="715" y="491" type="line" smooth="yes"/>
			<point x="657" y="720" type="line" smooth="yes"/>
			<point x="654" y="732"/>
			<point x="645" y="739"/>
			<point x="632" y="739" type="curve" smooth="yes"/>
			<point x="530" y="739" type="line" smooth="yes"/>
			<point x="518" y="739"/>
			<point x="510" y="731"/>
			<point x="510" y="719" type="curve" smooth="yes"/>
		</contour>
	</outline>
</glyph>
<glyph name="informationsource" format="1">
	<unicode hex="2139"/>
	<advance width="1000"/>
	<outline>
		<contour>
			<point x="503" y="537" type="curve" smooth="yes"/>
			<point x="461" y="537"/>
			<point x="432" y="563"/>
			<point x="432" y="601" type="curve" smooth="yes"/>
			<point x="432" y="640"/>
			<point x="461" y="668"/>
			<point x="503" y="668" type="curve" smooth="yes"/>
			<point x="543" y="668"/>
			<point x="573" y="640"/>
			<point x="573" y="601" type="curve" smooth="yes"/>
			<point x="573" y="563"/>
			<point x="543" y="537"/>
		</contour>
		<contour>
			<point x="346" y="124" type="line" smooth="yes"/>
			<point x="334" y="124"/>
			<point x="326" y="132"/>
			<point x="326" y="144" type="curve" smooth="yes"/>
			<point x="326" y="187" type="line" smooth="yes"/>
			<point x="326" y="199"/>
			<point x="334" y="207"/>
			<point x="346" y="207" type="curve" smooth="yes"/>
			<point x="454" y="207" type="line"/>
			<point x="454" y="398" type="line"/>
			<point x="362" y="398" type="line" smooth="yes"/>
			<point x="350" y="398"/>
			<point x="342" y="406"/>
			<point x="342" y="418" type="curve" smooth="yes"/>
			<point x="342" y="461" type="line" smooth="yes"/>
			<point x="342" y="473"/>
			<point x="350" y="481"/>
			<point x="362" y="481" type="curve" smooth="yes"/>
			<point x="540" y="481" type="line" smooth="yes"/>
			<point x="552" y="481"/>
			<point x="560" y="473"/>
			<point x="560" y="461" type="curve" smooth="yes"/>
			<point x="560" y="207" type="line"/>
			<point x="655" y="207" type="line" smooth="yes"/>
			<point x="667" y="207"/>
			<point x="675" y="199"/>
			<point x="675" y="187" type="curve" smooth="yes"/>
			<point x="675" y="144" type="line" smooth="yes"/>
			<point x="675" y="132"/>
			<point x="667" y="124"/>
			<point x="655" y="124" type="curve" smooth="yes"/>
		</contour>
		<contour>
			<point x="500" y="-89" type="curve" smooth="yes"/>
			<point x="757" y="-89"/>
			<point x="969" y="119"/>
			<point x="969" y="380" type="curve" smooth="yes"/>
			<point x="969" y="639"/>
			<point x="759" y="849"/>
			<point x="500" y="849" type="curve" smooth="yes"/>
			<point x="241" y="849"/>
			<point x="31" y="639"/>
			<point x="31" y="380" type="curve" smooth="yes"/>
			<point x="31" y="121"/>
			<point x="241" y="-89"/>
		</contour>
	</outline>
</glyph>
<glyph name="arrowboth" format="1">
	<unicode hex="2194"/>
	<advance width="1000"/>
	<outline>
		<contour>
			<point x="1020" y="255" type="line"/>
			<point x="723" y="599" type="line"/>
			<point x="678" y="559" type="line"/>
			<point x="942" y="262" type="line"/>
			<point x="952" y="284" type="line"/>
			<point x="48" y="284" type="line"/>
			<point x="58" y="262" type="line"/>
			<point x="322" y="559" type="line"/>
			<point x="277" y="599" type="line"/>
			<point x="-20" y="255" type="line"/>
			<point x="-20" y="249" type="line"/>
			<point x="277" y="-95" type="line"/>
			<point x="322" y="-55" type="line"/>
			<point x="58" y="242" type="line"/>
			<point x="48" y="220" type="line"/>
			<point x="952" y="220" type="line"/>
			<point x="942" y="242" type="line"/>
			<point x="678" y="-55" type="line"/>
			<point x="723" y="-95" type="line"/>
			<point x="1020" y="249" type="line"/>
		</contour>
	</outline>
</glyph>
<glyph name="arrowupdn" format="1">
	<unicode hex="2195"/>
	<advance width="1000"/>
	<outline>
		<contour>
			<point x="503" y="-264" type="line"/>
			<point x="847" y="33" type="line"/>
			<point x="807" y="78" type="line"/>
			<point x="510" y="-186" type="line"/>
			<point x="532" y="-196" type="line"/>
			<point x="532" y="698" type="line"/>
			<point x="510" y="688" type="line"/>
			<point x="807" y="424" type="line"/>
			<point x="847" y="469" type="line"/>
			<point x="503" y="766" type="line"/>
			<point x="497" y="766" type="line"/>
			<point x="153" y="469" type="line"/>
			<point x="193" y="424" type="line"/>
			<point x="490" y="688" type="line"/>
			<point x="468" y="698" type="line"/>
			<point x="468" y="-196" type="line"/>
			<point x="490" y="-186" type="line"/>
			<point x="193" y="78" type="line"/>
			<point x="153" y="33" type="line"/>
			<point x="497" y="-264" type="line"/>
		</contour>
	</outline>
</glyph>
<glyph name="arrowupleft" format="1">
	<unicode hex="2196"/>
	<advance width="1000"/>
	<outline>
		<contour>
			<point x="914" y="147" type="line"/>
			<point x="551" y="491" type="line"/>
			<point x="811" y="491" type="line"/>
			<point x="795" y="764" type="line"/>
			<point x="122" y="733" type="line"/>
			<point x="119" y="730" type="line"/>
			<point x="88" y="57" type="line"/>
			<point x="361" y="41" type="line"/>
			<point x="361" y="301" type="line"/>
			<point x="705" y="-62" type="line"/>
		</contour>
	</outline>
</glyph>
<glyph name="arrowupright" format="1">
	<unicode hex="2197"/>
	<advance width="1000"/>
	<outline>
		<contour>
			<point x="297" y="-62" type="line"/>
			<point x="641" y="301" type="line"/>
			<point x="641" y="41" type="line"/>
			<point x="914" y="57" type="line"/>
			<point x="883" y="730" type="line"/>
			<point x="880" y="733" type="line"/>
			<point x="207" y="764" type="line"/>
			<point x="191" y="491" type="line"/>
			<point x="451" y="491" type="line"/>
			<point x="88" y="147" type="line"/>
		</contour>
	</outline>
</glyph>
<glyph name="arrowdownright" format="1">
	<unicode hex="2198"/>
	<advance width="1000"/>
	<outline>
		<contour>
			<point x="295" y="764" type="line"/>
			<point x="86" y="555" type="line"/>
			<point x="449" y="211" type="line"/>
			<point x="189" y="211" type="line"/>
			<point x="205" y="-62" type="line"/>
			<point x="878" y="-31" type="line"/>
			<point x="881" y="-28" type="line"/>
			<point x="912" y="645" type="line"/>
			<point x="639" y="661" type="line"/>
			<point x="639" y="401" type="line"/>
		</contour>
	</outline>
</glyph>
<glyph name="arrowdownleft" format="1">
	<unicode hex="2199"/>
	<advance width="1000"/>
	<outline>
		<contour>
			<point x="705" y="764" type="line"/>
			<point x="361" y="401" type="line"/>
			<point x="361" y="661" type="line"/>
			<point x="88" y="645" type="line"/>
			<point x="119" y="-28" type="line"/>
			<point x="122" y="-31" type="line"/>
			<point x="795" y="-62" type="line"/>
			<point x="811" y="211" type="line"/>
			<point x="551" y="211" type="line"/>
			<point x="914" y="555" type="line"/>
		</contour>
	</outline>
</glyph>
<glyph name="minus" format="1">
	<unicode hex="2212"/>
	<advance width="554"/>
	<outline>
		<contour>
			<point x="104" y="258" type="curve"/>
			<point x="450" y="258" type="line"/>
			<point x="500" y="258"/>
			<point x="530" y="276"/>
			<point x="530" y="328" type="curve"/>
			<point x="530" y="332" type="line"/>
			<point x="530" y="384"/>
			<point x="500" y="402"/>
			<point x="450" y="402" type="curve"/>
			<point x="104" y="402" type="line"/>
			<point x="54" y="402"/>
			<point x="24" y="384"/>
			<point x="24" y="332" type="curve"/>
			<point x="24" y="328" type="line"/>
			<point x="24" y="276"/>
			<point x="54" y="258"/>
		</contour>
	</outline>
</glyph>
<glyph name="hourglass" format="1">
	<unicode hex="231B"/>
	<advance width="1008"/>
	<outline>
		<contour>
			<point x="336" y="504" type="line"/>
			<point x="336" y="672" type="line"/>
			<point x="756" y="672" type="line"/>
			<point x="756" y="504" type="line"/>
			<point x="840" y="504" type="line"/>
			<point x="840" y="840" type="line"/>
			<point x="252" y="840" type="line"/>
			<point x="252" y="504" type="line"/>
		</contour>
		<contour>
			<point x="336" y="420" type="line"/>
			<point x="420" y="420" type="line"/>
			<point x="420" y="504" type="line"/>
			<point x="336" y="504" type="line"/>
		</contour>
		<contour>
			<point x="672" y="420" type="line"/>
			<point x="756" y="420" type="line"/>
			<point x="756" y="504" type="line"/>
			<point x="672" y="504" type="line"/>
		</contour>
		<contour>
			<point x="504" y="252" type="line"/>
			<point x="504" y="420" type="line"/>
			<point x="420" y="420" type="line"/>
			<point x="420" y="252" type="line"/>
		</contour>
		<contour>
			<point x="672" y="252" type="line"/>
			<point x="672" y="420" type="line"/>
			<point x="588" y="420" type="line"/>
			<point x="588" y="252" type="line"/>
		</contour>
		<contour>
			<point x="336" y="168" type="line"/>
			<point x="420" y="168" type="line"/>
			<point x="420" y="252" type="line"/>
			<point x="336" y="252" type="line"/>
		</contour>
		<contour>
			<point x="672" y="168" type="line"/>
			<point x="756" y="168" type="line"/>
			<point x="756" y="252" type="line"/>
			<point x="672" y="252" type="line"/>
		</contour>
		<contour>
			<point x="840" y="-168" type="line"/>
			<point x="840" y="168" type="line"/>
			<point x="756" y="168" type="line"/>
			<point x="756" y="84" type="line"/>
			<point x="672" y="84" type="line"/>
			<point x="672" y="0" type="line"/>
			<point x="756" y="0" type="line"/>
			<point x="756" y="-84" type="line"/>
			<point x="672" y="-84" type="line"/>
			<point x="672" y="0" type="line"/>
			<point x="588" y="0" type="line"/>
			<point x="588" y="-84" type="line"/>
			<point x="504" y="-84" type="line"/>
			<point x="504" y="0" type="line"/>
			<point x="420" y="0" type="line"/>
			<point x="420" y="-84" type="line"/>
			<point x="336" y="-84" type="line"/>
			<point x="336" y="0" type="line"/>
			<point x="420" y="0" type="line"/>
			<point x="420" y="84" type="line"/>
			<point x="336" y="84" type="line"/>
			<point x="336" y="168" type="line"/>
			<point x="252" y="168" type="line"/>
			<point x="252" y="-168" type="line"/>
		</contour>
		<contour>
			<point x="504" y="0" type="line"/>
			<point x="588" y="0" type="line"/>
			<point x="588" y="84" type="line"/>
			<point x="504" y="84" type="line"/>
		</contour>
	</outline>
</glyph>
<glyph name="clocktimer" format="1">
	<unicode hex="23F2"/>
	<advance width="1000"/>
	<outline>
		<contour>
			<point x="500" y="688" type="curve" smooth="yes"/>
			<point x="521" y="688"/>
			<point x="536" y="703"/>
			<point x="536" y="724" type="curve" smooth="yes"/>
			<point x="536" y="745"/>
			<point x="521" y="760"/>
			<point x="500" y="760" type="curve" smooth="yes"/>
			<point x="479" y="760"/>
			<point x="464" y="745"/>
			<point x="464" y="724" type="curve" smooth="yes"/>
			<point x="464" y="703"/>
			<point x="479" y="688"/>
		</contour>
		<contour>
			<point x="326" y="661" type="curve" smooth="yes"/>
			<point x="338" y="661"/>
			<point x="347" y="670"/>
			<point x="347" y="682" type="curve" smooth="yes"/>
			<point x="347" y="695"/>
			<point x="338" y="703"/>
			<point x="326" y="703" type="curve" smooth="yes"/>
			<point x="314" y="703"/>
			<point x="305" y="695"/>
			<point x="305" y="682" type="curve" smooth="yes"/>
			<point x="305" y="670"/>
			<point x="314" y="661"/>
		</contour>
		<contour>
			<point x="674" y="661" type="curve" smooth="yes"/>
			<point x="686" y="661"/>
			<point x="695" y="669"/>
			<point x="695" y="681" type="curve" smooth="yes"/>
			<point x="695" y="695"/>
			<point x="686" y="702"/>
			<point x="674" y="702" type="curve" smooth="yes"/>
			<point x="662" y="702"/>
			<point x="653" y="695"/>
			<point x="653" y="682" type="curve" smooth="yes"/>
			<point x="653" y="670"/>
			<point x="662" y="661"/>
		</contour>
		<contour>
			<point x="798" y="516" type="curve" smooth="yes"/>
			<point x="819" y="516"/>
			<point x="834" y="531"/>
			<point x="834" y="552" type="curve" smooth="yes"/>
			<point x="834" y="573"/>
			<point x="819" y="588"/>
			<point x="798" y="588" type="curve" smooth="yes"/>
			<point x="777" y="588"/>
			<point x="762" y="573"/>
			<point x="762" y="552" type="curve" smooth="yes"/>
			<point x="762" y="531"/>
			<point x="777" y="516"/>
		</contour>
		<contour>
			<point x="202" y="516" type="curve" smooth="yes"/>
			<point x="223" y="516"/>
			<point x="238" y="531"/>
			<point x="238" y="552" type="curve" smooth="yes"/>
			<point x="238" y="573"/>
			<point x="223" y="588"/>
			<point x="202" y="588" type="curve" smooth="yes"/>
			<point x="181" y="588"/>
			<point x="166" y="573"/>
			<point x="166" y="552" type="curve" smooth="yes"/>
			<point x="166" y="531"/>
			<point x="181" y="516"/>
		</contour>
		<contour>
			<point x="850" y="359" type="curve" smooth="yes"/>
			<point x="863" y="359"/>
			<point x="871" y="368"/>
			<point x="871" y="380" type="curve" smooth="yes"/>
			<point x="871" y="392"/>
			<point x="863" y="401"/>
			<point x="850" y="401" type="curve" smooth="yes"/>
			<point x="838" y="401"/>
			<point x="829" y="392"/>
			<point x="829" y="380" type="curve" smooth="yes"/>
			<point x="829" y="368"/>
			<point x="838" y="359"/>
		</contour>
		<contour>
			<point x="150" y="359" type="curve" smooth="yes"/>
			<point x="162" y="359"/>
			<point x="171" y="368"/>
			<point x="171" y="380" type="curve" smooth="yes"/>
			<point x="171" y="392"/>
			<point x="162" y="401"/>
			<point x="150" y="401" type="curve" smooth="yes"/>
			<point x="137" y="401"/>
			<point x="129" y="392"/>
			<point x="129" y="380" type="curve" smooth="yes"/>
			<point x="129" y="368"/>
			<point x="137" y="359"/>
		</contour>
		<contour>
			<point x="202" y="172" type="curve" smooth="yes"/>
			<point x="223" y="172"/>
			<point x="238" y="187"/>
			<point x="238" y="208" type="curve" smooth="yes"/>
			<point x="238" y="229"/>
			<point x="223" y="244"/>
			<point x="202" y="244" type="curve" smooth="yes"/>
			<point x="181" y="244"/>
			<point x="166" y="229"/>
			<point x="166" y="208" type="curve" smooth="yes"/>
			<point x="166" y="187"/>
			<point x="181" y="172"/>
		</contour>
		<contour>
			<point x="798" y="172" type="curve" smooth="yes"/>
			<point x="819" y="172"/>
			<point x="834" y="187"/>
			<point x="834" y="208" type="curve" smooth="yes"/>
			<point x="834" y="229"/>
			<point x="819" y="244"/>
			<point x="798" y="244" type="curve" smooth="yes"/>
			<point x="777" y="244"/>
			<point x="762" y="229"/>
			<point x="762" y="208" type="curve" smooth="yes"/>
			<point x="762" y="187"/>
			<point x="777" y="172"/>
		</contour>
		<contour>
			<point x="674" y="58" type="curve" smooth="yes"/>
			<point x="686" y="58"/>
			<point x="695" y="65"/>
			<point x="695" y="79" type="curve" smooth="yes"/>
			<point x="695" y="91"/>
			<point x="686" y="99"/>
			<point x="674" y="99" type="curve" smooth="yes"/>
			<point x="662" y="99"/>
			<point x="653" y="91"/>
			<point x="653" y="78" type="curve" smooth="yes"/>
			<point x="653" y="65"/>
			<point x="662" y="58"/>
		</contour>
		<contour>
			<point x="326" y="57" type="curve" smooth="yes"/>
			<point x="338" y="57"/>
			<point x="347" y="65"/>
			<point x="347" y="78" type="curve" smooth="yes"/>
			<point x="347" y="90"/>
			<point x="338" y="99"/>
			<point x="326" y="99" type="curve" smooth="yes"/>
			<point x="314" y="99"/>
			<point x="305" y="90"/>
			<point x="305" y="78" type="curve" smooth="yes"/>
			<point x="305" y="65"/>
			<point x="314" y="57"/>
		</contour>
		<contour>
			<point x="500" y="0" type="curve" smooth="yes"/>
			<point x="521" y="0"/>
			<point x="536" y="15"/>
			<point x="536" y="36" type="curve" smooth="yes"/>
			<point x="536" y="57"/>
			<point x="521" y="72"/>
			<point x="500" y="72" type="curve" smooth="yes"/>
			<point x="479" y="72"/>
			<point x="464" y="57"/>
			<point x="464" y="36" type="curve" smooth="yes"/>
			<point x="464" y="15"/>
			<point x="479" y="0"/>
		</contour>
		<contour>
			<point x="500" y="318" type="curve" smooth="yes"/>
			<point x="544" y="318"/>
			<point x="570" y="348"/>
			<point x="570" y="396" type="curve" smooth="yes"/>
			<point x="570" y="476"/>
			<point x="540" y="600"/>
			<point x="508" y="750" type="curve"/>
			<point x="492" y="750" type="line"/>
			<point x="460" y="600"/>
			<point x="430" y="476"/>
			<point x="430" y="396" type="curve" smooth="yes"/>
			<point x="430" y="348"/>
			<point x="456" y="318"/>
		</contour>
		<component base="face"/>
	</outline>
</glyph>
<glyph name="pauseav" format="1">
	<unicode hex="23F8"/>
	<advance width="1000"/>
	<outline>
		<contour>
			<point x="560" y="160" type="line"/>
			<point x="720" y="160" type="line"/>
			<point x="720" y="600" type="line"/>
			<point x="560" y="600" type="line"/>
		</contour>
		<contour>
			<point x="280" y="160" type="line"/>
			<point x="440" y="160" type="line"/>
			<point x="440" y="600" type="line"/>
			<point x="280" y="600" type="line"/>
		</contour>
	</outline>
</glyph>
<glyph name="recordav" format="1">
	<unicode hex="23FA"/>
	<advance width="1000"/>
	<outline>
		<contour>
			<point x="500" y="148" type="curve" smooth="yes"/>
			<point x="635" y="148"/>
			<point x="735" y="247"/>
			<point x="735" y="380" type="curve" smooth="yes"/>
			<point x="735" y="513"/>
			<point x="635" y="612"/>
			<point x="500" y="612" type="curve" smooth="yes"/>
			<point x="365" y="612"/>
			<point x="265" y="513"/>
			<point x="265" y="380" type="curve" smooth="yes"/>
			<point x="265" y="247"/>
			<point x="365" y="148"/>
		</contour>
	</outline>
</glyph>
<glyph name="Mcircle" format="1">
	<unicode hex="24C2"/>
	<advance width="1000"/>
	<outline>
		<contour>
			<point x="500" y="-89" type="curve" smooth="yes"/>
			<point x="757" y="-89"/>
			<point x="969" y="119"/>
			<point x="969" y="380" type="curve" smooth="yes"/>
			<point x="969" y="639"/>
			<point x="759" y="849"/>
			<point x="500" y="849" type="curve" smooth="yes"/>
			<point x="241" y="849"/>
			<point x="31" y="639"/>
			<point x="31" y="380" type="curve" smooth="yes"/>
			<point x="31" y="121"/>
			<point x="241" y="-89"/>
		</contour>
		<contour>
			<point x="254" y="144" type="curve" smooth="yes"/>
			<point x="254" y="626" type="line" smooth="yes"/>
			<point x="254" y="638"/>
			<point x="262" y="646"/>
			<point x="274" y="646" type="curve" smooth="yes"/>
			<point x="349" y="646" type="line" smooth="yes"/>
			<point x="363" y="646"/>
			<point x="371" y="640"/>
			<point x="376" y="627" type="curve" smooth="yes"/>
			<point x="464" y="402" type="line" smooth="yes"/>
			<point x="500" y="305" type="line"/>
			<point x="504" y="305" type="line"/>
			<point x="539" y="402" type="line" smooth="yes"/>
			<point x="624" y="627" type="line" smooth="yes"/>
			<point x="629" y="640"/>
			<point x="637" y="646"/>
			<point x="651" y="646" type="curve" smooth="yes"/>
			<point x="727" y="646" type="line" smooth="yes"/>
			<point x="739" y="646"/>
			<point x="747" y="638"/>
			<point x="747" y="626" type="curve" smooth="yes"/>
			<point x="747" y="144" type="line" smooth="yes"/>
			<point x="747" y="132"/>
			<point x="739" y="124"/>
			<point x="727" y="124" type="curve" smooth="yes"/>
			<point x="668" y="124" type="line" smooth="yes"/>
			<point x="656" y="124"/>
			<point x="648" y="132"/>
			<point x="648" y="144" type="curve" smooth="yes"/>
			<point x="648" y="318" type="line" smooth="yes"/>
			<point x="648" y="368"/>
			<point x="656" y="445"/>
			<point x="661" y="495" type="curve"/>
			<point x="657" y="495" type="line"/>
			<point x="612" y="374" type="line" smooth="yes"/>
			<point x="538" y="190" type="line" smooth="yes"/>
			<point x="533" y="177"/>
			<point x="525" y="171"/>
			<point x="511" y="171" type="curve" smooth="yes"/>
			<point x="488" y="171" type="line" smooth="yes"/>
			<point x="474" y="171"/>
			<point x="466" y="177"/>
			<point x="461" y="190" type="curve" smooth="yes"/>
			<point x="388" y="374" type="line" smooth="yes"/>
			<point x="342" y="495" type="line"/>
			<point x="338" y="495" type="line"/>
			<point x="343" y="446"/>
			<point x="351" y="368"/>
			<point x="351" y="318" type="curve" smooth="yes"/>
			<point x="351" y="144" type="line" smooth="yes"/>
			<point x="351" y="132"/>
			<point x="343" y="124"/>
			<point x="331" y="124" type="curve" smooth="yes"/>
			<point x="274" y="124" type="line" smooth="yes"/>
			<point x="262" y="124"/>
			<point x="254" y="132"/>
		</contour>
	</outline>
</glyph>
<glyph name="bulletsquarewhite" format="1">
	<unicode hex="25AB"/>
	<advance width="1000"/>
	<outline>
		<contour>
			<point x="278" y="158" type="line"/>
			<point x="722" y="158" type="line"/>
			<point x="722" y="602" type="line"/>
			<point x="278" y="602" type="line"/>
		</contour>
		<contour>
			<point x="332" y="208" type="line"/>
			<point x="332" y="552" type="line"/>
			<point x="668" y="552" type="line"/>
			<point x="668" y="208" type="line"/>
		</contour>
	</outline>
</glyph>
<glyph name="squaremediumwhite" format="1">
	<unicode hex="25FB"/>
	<advance width="1000"/>
	<outline>
		<contour>
			<point x="198" y="78" type="line"/>
			<point x="802" y="78" type="line"/>
			<point x="802" y="682" type="line"/>
			<point x="198" y="682" type="line"/>
		</contour>
		<contour>
			<point x="252" y="128" type="line"/>
			<point x="252" y="632" type="line"/>
			<point x="748" y="632" type="line"/>
			<point x="748" y="128" type="line"/>
		</contour>
	</outline>
</glyph>
<glyph name="sunblack" format="1">
	<unicode hex="2600"/>
	<advance width="1000"/>
	<outline>
		<contour>
			<point x="500" y="156" type="curve" smooth="yes"/>
			<point x="628" y="156"/>
			<point x="730" y="256"/>
			<point x="730" y="380" type="curve" smooth="yes"/>
			<point x="730" y="504"/>
			<point x="628" y="604"/>
			<point x="500" y="604" type="curve" smooth="yes"/>
			<point x="372" y="604"/>
			<point x="270" y="504"/>
			<point x="270" y="380" type="curve" smooth="yes"/>
			<point x="270" y="256"/>
			<point x="372" y="156"/>
		</contour>
		<contour>
			<point x="457" y="668" type="line"/>
			<point x="543" y="668" type="line"/>
			<point x="543" y="844" type="line"/>
			<point x="457" y="844" type="line"/>
		</contour>
		<contour>
			<point x="261" y="556" type="line"/>
			<point x="319" y="614" type="line"/>
			<point x="200" y="734" type="line"/>
			<point x="142" y="676" type="line"/>
		</contour>
		<contour>
			<point x="737" y="558" type="line"/>
			<point x="858" y="676" type="line"/>
			<point x="800" y="734" type="line"/>
			<point x="679" y="616" type="line"/>
		</contour>
		<contour>
			<point x="40" y="338" type="line"/>
			<point x="206" y="338" type="line"/>
			<point x="206" y="422" type="line"/>
			<point x="40" y="422" type="line"/>
		</contour>
		<contour>
			<point x="794" y="338" type="line"/>
			<point x="960" y="338" type="line"/>
			<point x="960" y="422" type="line"/>
			<point x="794" y="422" type="line"/>
		</contour>
		<contour>
			<point x="200" y="24" type="line"/>
			<point x="321" y="142" type="line"/>
			<point x="263" y="200" type="line"/>
			<point x="142" y="82" type="line"/>
		</contour>
		<contour>
			<point x="800" y="24" type="line"/>
			<point x="858" y="82" type="line"/>
			<point x="739" y="202" type="line"/>
			<point x="681" y="144" type="line"/>
		</contour>
		<contour>
			<point x="457" y="-84" type="line"/>
			<point x="543" y="-84" type="line"/>
			<point x="543" y="92" type="line"/>
			<point x="457" y="92" type="line"/>
		</contour>
	</outline>
</glyph>
<glyph name="cloud" format="1">
	<unicode hex="2601"/>
	<advance width="1000"/>
	<outline>
		<contour>
			<point x="288" y="18" type="line" smooth="yes"/>
			<point x="110" y="18"/>
			<point x="20" y="104"/>
			<point x="20" y="246" type="curve" smooth="yes"/>
			<point x="20" y="359"/>
			<point x="80" y="440"/>
			<point x="190" y="469" type="curve"/>
			<point x="162" y="431" type="line"/>
			<point x="153" y="455"/>
			<point x="148" y="481"/>
			<point x="148" y="510" type="curve" smooth="yes"/>
			<point x="148" y="656"/>
			<point x="238" y="744"/>
			<point x="410" y="744" type="curve" smooth="yes"/>
			<point x="546" y="744"/>
			<point x="637" y="683"/>
			<point x="656" y="582" type="curve"/>
			<point x="618" y="598" type="line"/>
			<point x="645" y="607"/>
			<point x="664" y="614"/>
			<point x="698" y="614" type="curve" smooth="yes"/>
			<point x="803" y="614"/>
			<point x="860" y="558"/>
			<point x="860" y="476" type="curve" smooth="yes"/>
			<point x="860" y="446"/>
			<point x="854" y="412"/>
			<point x="829" y="387" type="curve"/>
			<point x="820" y="420" type="line"/>
			<point x="926" y="399"/>
			<point x="980" y="326"/>
			<point x="980" y="218" type="curve" smooth="yes"/>
			<point x="980" y="90"/>
			<point x="902" y="18"/>
			<point x="746" y="18" type="curve" smooth="yes"/>
		</contour>
		<contour>
			<point x="746" y="72" type="line" smooth="yes"/>
			<point x="856" y="72"/>
			<point x="920" y="123"/>
			<point x="920" y="218" type="curve" smooth="yes"/>
			<point x="920" y="290"/>
			<point x="886" y="362"/>
			<point x="790" y="376" type="curve" smooth="yes"/>
			<point x="781" y="377"/>
			<point x="777" y="388"/>
			<point x="783" y="395" type="curve" smooth="yes"/>
			<point x="799" y="415"/>
			<point x="800" y="450"/>
			<point x="800" y="468" type="curve" smooth="yes"/>
			<point x="800" y="530"/>
			<point x="757" y="562"/>
			<point x="692" y="562" type="curve" smooth="yes"/>
			<point x="676" y="562"/>
			<point x="648" y="558"/>
			<point x="626" y="551" type="curve" smooth="yes"/>
			<point x="615" y="547"/>
			<point x="605" y="552"/>
			<point x="602" y="563" type="curve" smooth="yes"/>
			<point x="574" y="653"/>
			<point x="502" y="692"/>
			<point x="410" y="692" type="curve" smooth="yes"/>
			<point x="283" y="692"/>
			<point x="208" y="629"/>
			<point x="208" y="510" type="curve" smooth="yes"/>
			<point x="208" y="492"/>
			<point x="210" y="472"/>
			<point x="215" y="449" type="curve" smooth="yes"/>
			<point x="218" y="437"/>
			<point x="213" y="428"/>
			<point x="201" y="423" type="curve" smooth="yes"/>
			<point x="118" y="388"/>
			<point x="80" y="328"/>
			<point x="80" y="246" type="curve" smooth="yes"/>
			<point x="80" y="133"/>
			<point x="158" y="72"/>
			<point x="288" y="72" type="curve" smooth="yes"/>
		</contour>
	</outline>
</glyph>
<glyph name="umbrella" format="1">
	<unicode hex="2602"/>
	<advance width="1000"/>
	<outline>
		<contour>
			<point x="530" y="396" type="line"/>
			<point x="519" y="399"/>
			<point x="509" y="402"/>
			<point x="499" y="402" type="curve" smooth="yes"/>
			<point x="489" y="402"/>
			<point x="479" y="399"/>
			<point x="470" y="396" type="curve"/>
			<point x="470" y="28" type="line" smooth="yes"/>
			<point x="470" y="-20"/>
			<point x="433" y="-54"/>
			<point x="392" y="-54" type="curve" smooth="yes"/>
			<point x="355" y="-54"/>
			<point x="320" y="-28"/>
			<point x="320" y="36" type="curve" smooth="yes"/>
			<point x="320" y="53"/>
			<point x="308" y="66"/>
			<point x="291" y="66" type="curve" smooth="yes"/>
			<point x="274" y="66"/>
			<point x="260" y="53"/>
			<point x="260" y="36" type="curve" smooth="yes"/>
			<point x="260" y="-59"/>
			<point x="321" y="-106"/>
			<point x="392" y="-106" type="curve" smooth="yes"/>
			<point x="467" y="-106"/>
			<point x="530" y="-45"/>
			<point x="530" y="40" type="curve" smooth="yes"/>
		</contour>
		<contour>
			<point x="998" y="379" type="curve" smooth="yes"/>
			<point x="998" y="381"/>
			<point x="998" y="382"/>
			<point x="998" y="384" type="curve"/>
			<point x="944" y="610"/>
			<point x="722" y="739"/>
			<point x="499" y="739" type="curve" smooth="yes"/>
			<point x="275" y="739"/>
			<point x="56" y="610"/>
			<point x="1" y="384" type="curve"/>
			<point x="0" y="382"/>
			<point x="0" y="381"/>
			<point x="0" y="379" type="curve" smooth="yes"/>
			<point x="0" y="369"/>
			<point x="9" y="360"/>
			<point x="19" y="360" type="curve" smooth="yes"/>
			<point x="25" y="360"/>
			<point x="29" y="363"/>
			<point x="33" y="366" type="curve" smooth="yes"/>
			<point x="68" y="399"/>
			<point x="100" y="421"/>
			<point x="150" y="421" type="curve" smooth="yes"/>
			<point x="207" y="421"/>
			<point x="256" y="386"/>
			<point x="289" y="341" type="curve" smooth="yes"/>
			<point x="296" y="331"/>
			<point x="301" y="320"/>
			<point x="308" y="310" type="curve" smooth="yes"/>
			<point x="312" y="303"/>
			<point x="317" y="300"/>
			<point x="325" y="300" type="curve" smooth="yes"/>
			<point x="333" y="300"/>
			<point x="338" y="303"/>
			<point x="342" y="310" type="curve" smooth="yes"/>
			<point x="349" y="320"/>
			<point x="354" y="331"/>
			<point x="361" y="341" type="curve" smooth="yes"/>
			<point x="394" y="386"/>
			<point x="442" y="421"/>
			<point x="499" y="421" type="curve" smooth="yes"/>
			<point x="556" y="421"/>
			<point x="605" y="386"/>
			<point x="637" y="341" type="curve" smooth="yes"/>
			<point x="644" y="331"/>
			<point x="650" y="320"/>
			<point x="656" y="310" type="curve" smooth="yes"/>
			<point x="661" y="303"/>
			<point x="665" y="300"/>
			<point x="674" y="300" type="curve" smooth="yes"/>
			<point x="682" y="300"/>
			<point x="686" y="303"/>
			<point x="691" y="310" type="curve" smooth="yes"/>
			<point x="697" y="320"/>
			<point x="703" y="331"/>
			<point x="710" y="341" type="curve" smooth="yes"/>
			<point x="742" y="386"/>
			<point x="791" y="421"/>
			<point x="848" y="421" type="curve" smooth="yes"/>
			<point x="898" y="421"/>
			<point x="931" y="399"/>
			<point x="965" y="366" type="curve" smooth="yes"/>
			<point x="970" y="363"/>
			<point x="974" y="360"/>
			<point x="979" y="360" type="curve" smooth="yes"/>
			<point x="989" y="360"/>
			<point x="998" y="369"/>
		</contour>
		<contour>
			<point x="538" y="816" type="line" smooth="yes"/>
			<point x="538" y="837"/>
			<point x="520" y="854"/>
			<point x="499" y="854" type="curve" smooth="yes"/>
			<point x="478" y="854"/>
			<point x="461" y="837"/>
			<point x="461" y="816" type="curve" smooth="yes"/>
			<point x="461" y="757" type="line"/>
			<point x="473" y="757"/>
			<point x="487" y="758"/>
			<point x="499" y="758" type="curve" smooth="yes"/>
			<point x="512" y="758"/>
			<point x="525" y="757"/>
			<point x="538" y="757" type="curve"/>
		</contour>
	</outline>
</glyph>
